<?xml version="1.0" standalone="no"?>
<!DOCTYPE svg PUBLIC "-//W3C//DTD SVG 1.1//EN" "http://www.w3.org/Graphics/SVG/1.1/DTD/svg11.dtd" >
<svg>
<metadata>
Created by FontForge 20090622 at Sat Jun  2 13:25:39 2018
 By deploy user
(c)nanum.org.made by-hope428@daum.net
</metadata>
<defs>
<font id="Her-Leeoksun" horiz-adv-x="80" >
  <font-face 
    font-family="Her-Leeoksun"
    font-weight="400"
    font-stretch="normal"
    units-per-em="1024"
    panose-1="2 1 5 4 0 1 1 1 1 1"
    ascent="819"
    descent="-205"
    x-height="492"
    cap-height="634"
    bbox="-5.8 -242 1094.2 1094"
    underline-thickness="40"
    underline-position="20"
    unicode-range="U+0020-U+FFE6"
  />
<missing-glyph horiz-adv-x="820" 
d="M10 40v800h800v-800h-800zM60 90h700v700h-700v-700z" />
    <glyph glyph-name=".notdef" horiz-adv-x="820" 
d="M10 40v800h800v-800h-800zM60 90h700v700h-700v-700z" />
    <glyph glyph-name="space" unicode=" " horiz-adv-x="600" 
 />
    <glyph glyph-name="exclam" unicode="!" horiz-adv-x="537" 
d="M189 733q-20 -18 -16 -38l8 -40q0 -26 1 -50t9 -52q-6 -50 16 -147t34 -143q0 -24 21 -31l33 -11q18 -24 36 1t8 39q2 20 -6 39t-8 39q0 14 -3 76t-7 76q0 16 -6 30t-8 28q-12 22 -17 41t-5 37l-4 41t-16 41q-10 10 -31 18t-39 6zM241 161q-12 -2 -28 -4t-16 -20
q-2 -12 -7 -27t9 -31q-2 -30 33 -49t55 -7q28 6 34 34t6 48q-20 24 -39 37t-47 19z" />
    <glyph glyph-name="quotedbl" unicode="&#x22;" horiz-adv-x="366" 
d="M184 614q-6 32 -25 41t-31 5q10 28 28 61t20 67q-4 24 -15 38t-33 10q-2 -8 -8 -12t0 -10q-16 -36 -34 -64t-28 -72q-2 -2 -10 -12t-6 -22q6 -14 7 -31t1 -35q6 -16 3 -35t21 -39q14 -8 28 -13t28 -5t35 11t29 7q16 -20 38 -26t42 0q16 -2 10 5t8 9q4 0 12 10t4 16
q8 12 9 24t-3 22q4 10 -6 22t-10 22q-22 6 -23 22t-1 32l16 36l16 38q-6 18 7 38t-5 36q-4 8 -13 16t-19 2q-18 10 -23 -6t-9 -26q-2 -18 -11 -37t-13 -37q-2 -20 -14 -52t-22 -56z" />
    <glyph glyph-name="numbersign" unicode="#" horiz-adv-x="794" 
d="M504 672q-4 -8 -19 -17t-7 -21q-10 -32 -22 -63t-24 -59q2 -36 -25 -39t-49 -3q-2 22 6 42t4 40q8 26 4 64t-52 40q-8 4 -17 0t-15 -14q-20 -32 -25 -67t-15 -69q6 -36 -20 -30t-42 6q-20 8 -45 5t-41 -29q-14 -20 13 -45t47 -11q16 -14 34 -10t26 -18q-2 -14 -1 -35
t-27 -13q-24 0 -49 20t-53 -2q-14 4 -32 -8t-8 -30q4 -18 24 -28t36 -10q16 -8 33 -10t33 -12q26 -2 18 -18t-12 -28q0 -14 -10 -28t-16 -28q-8 -20 9 -41t37 -25q14 -2 22 -1t22 13q-2 22 14 40t18 38q2 16 17 41t35 9q-10 -16 -20 -37t-26 -37l-25 -53t27 -45q6 -8 15 -13
t17 -3q26 -6 36 17t22 39q22 4 19 22t13 26q20 12 30 32t28 36q16 32 48 19t58 -3q22 0 46 -9t46 -9q28 -18 44 13t-12 47q-18 12 -42 24t-46 8q-20 -2 -39 3t-41 3q-44 -2 -30 26t12 46q2 32 23 26t35 -2q22 4 46 -1t44 -5q20 10 40 9t36 21q20 16 -2 40t-44 20
q-34 -14 -68 -7t-68 9q-12 0 -14 11t6 19q-2 20 6 39t10 39q16 22 -6 57t-50 27zM376 392q28 6 19 -14t-3 -30q-4 -8 -8 -18t-14 -12q-22 -12 -33 4t1 32q-6 22 9 28t29 10z" />
    <glyph glyph-name="dollar" unicode="$" horiz-adv-x="636" 
d="M430 854q-6 -2 -9 -7t-7 -13q-14 -24 -12 -61t-36 -41q-12 10 -18 -3t-16 -7q-42 2 -66 -39t-36 -79q-6 -36 -1 -69t15 -67q-2 -24 15 -47t23 -45q-6 -32 -19 -64t-37 -62q-20 -32 -40 -69t-38 -61q-16 10 -7 24t11 26q10 28 24 41t22 37q8 22 -18 35t-42 1
q-14 -8 -31 -20t-27 -26q-16 -18 -27 -36t-13 -40q0 -34 21 -60t47 -54q-10 -26 -29 -45t-21 -45q16 -14 17 -29t21 -23q16 4 31 7t25 23q2 20 18 37t28 33q16 34 47 34t57 6q28 8 57 18t57 24q26 18 44 28t40 34q2 18 16 32t10 34q10 14 6 29t-8 25q-14 22 -33 30t-39 24
q-12 20 -34 26t-24 32q16 28 26 57t16 57q6 40 19 80t23 80q18 10 26 -6t4 -26q-16 -24 -25 -59t35 -35q22 -12 31 12t19 32q-2 16 11 31t11 29q0 14 1 29t5 27q0 34 -31 47t-53 9q-20 0 -15 13t3 21q6 26 -17 56t-53 18zM372 634q16 -4 5 -18t-11 -24q-6 -20 -12 -35
t-10 -33q-6 -8 -14 -17l-8 -9q0 34 4 69t46 67zM368 286q20 -14 44 -21t26 -35q-28 -46 -68 -68t-78 -30q-26 -6 -10 15t20 35q28 28 30 55t36 49z" />
    <glyph glyph-name="percent" unicode="%" horiz-adv-x="816" 
d="M192 678q-6 -8 -26 -19t-6 -27l-30 -54t-26 -56l-12 -33t-8 -33q-8 -40 -4 -81t30 -77q20 -26 45 -32t51 -8q10 -8 23 2t15 -14q-22 -16 -41 -40t-37 -38q-10 -30 -68 -63t0 -71q16 -12 35 -10t33 14q8 14 27 24t33 24q40 34 90 89t76 101q12 4 18 9t0 7l8 -2
q-26 -30 -39 -59t-15 -63q2 -14 5 -29t9 -25q22 -32 44 -56t54 -36q32 -6 64 -4t62 10q28 4 57 28t55 32q16 38 39 74t-7 74q-24 62 -82 105t-114 45q-14 0 -27 -9t-23 -21q-12 -6 -28 -6t-20 8q16 12 27 29t21 27q36 50 81 89t73 85q6 30 -24 44t-52 4l-54 -53t-56 -61
q-14 -20 -17 2t-7 30q-12 18 -28 36t-38 32q-10 12 -23 18t-29 10q-32 8 -66 22t-68 6zM254 582q20 10 42 -9t30 -35q28 -32 28 -67t-26 -69q-20 -16 -37 -37t-45 -23q-14 0 -34 -2t-22 18q0 14 -4 29t-4 27q4 10 1 23t7 23q16 12 11 23t9 21q-2 20 10 42t34 36zM576 286
q18 2 40 -12t36 -36l8 -40t-14 -40q-18 -22 -42 -38t-48 -24q-22 -2 -46 -5t-46 31q-6 16 -5 38t15 40q-4 10 9 16t9 16l33 34t39 16l6 2z" />
    <glyph glyph-name="ampersand" unicode="&#x26;" horiz-adv-x="706" 
d="M222 746q-14 -2 -26 -6t-26 -8q-38 -14 -62 -56t-8 -76q8 -32 27 -64t33 -62q16 -14 9 -24t-15 -26q-32 -34 -51 -67t-33 -73q-4 -26 -14 -60t-12 -66q-4 -30 -3 -62t15 -66q18 -38 57 -72t77 -38q16 -4 37 -11t43 -5q14 2 28 3t30 5q22 8 46 15t46 19q22 10 39 20l37 22
q12 8 26 0t26 -20q20 -10 38 -28t44 4q6 4 10 19t-4 27q-10 26 -31 29t-31 23q-16 4 -10 14t16 18q-2 16 11 29t25 21q6 16 18 27t16 25q16 40 -30 65t-74 -15q2 -26 -36 -58t-48 -30q-6 16 -60 99t-66 97q-2 20 -15 38t-19 32q-16 22 6 35t34 33q6 16 20 28t22 30
q16 28 14 55t-6 53q-12 20 -25 45t-41 39q-22 12 -49 21t-55 3zM266 660q40 -2 38 -39t-22 -59q-16 -18 -25 -33t-27 -21q-12 30 -37 63t3 65q16 10 34 13t36 11zM230 348q38 -36 67 -84t51 -96q14 -24 29 -44t29 -42q-18 -26 -49 -57t-65 -29q-30 -12 -62 -8t-62 22l-14 17
t-10 15q-12 28 -10 56t6 56q2 14 7 31t13 37q4 16 11 33t13 33q10 10 17 20l13 18q6 6 9 13t7 9z" />
    <glyph glyph-name="quotesingle" unicode="'" horiz-adv-x="276" 
d="M146 838q-20 -2 -27 -17t-23 -17q-8 -22 -16 -47t-14 -47q-4 -32 -15 -68t7 -74q8 -10 16 -23t24 -19q18 -14 34 -16t32 2q14 4 27 10t27 28q18 22 18 55t-40 53q-18 10 -30 11t-22 9q6 20 9 39t17 37q2 22 20 21t28 13q6 44 -22 47t-50 3z" />
    <glyph glyph-name="parenleft" unicode="(" horiz-adv-x="318" 
d="M210 656q-24 -14 -52 -36t-38 -56q-2 -18 -17 -36t-21 -40q-10 -34 -15 -67t-15 -61q6 -20 -2 -44t-4 -48q-6 -32 1 -65t11 -61q8 -26 19 -53t27 -49q10 -18 23 -46t35 -32q10 -14 23 -13t19 -1q26 -14 49 15t-1 49q-16 6 -26 22t-28 30q-22 38 -40 74t-16 74
q-2 52 3 102t13 100q6 18 14 37t16 33q8 18 17 33t25 29q4 20 26 28t18 34q-2 22 -22 37t-42 11z" />
    <glyph glyph-name="parenright" unicode=")" horiz-adv-x="284" 
d="M90 608q-18 -12 -17 -31t7 -35q4 -24 22 -32t24 -26q20 -44 23 -86t1 -86q-8 -20 -27 -91t-25 -87q-2 -8 -23 -30t-25 -32q-10 -22 -4 -33t12 -19q8 -18 25 -24t31 -6q22 2 21 17t13 17q16 22 50 136t40 142q4 12 5 51t-13 53q4 22 -9 45t-17 47q-8 10 -11 22t-7 24
q-26 18 -42 41t-54 23z" />
    <glyph glyph-name="asterisk" unicode="*" horiz-adv-x="490" 
d="M214 554q-26 -24 -15 -50t3 -48q8 -14 8 -28t2 -28q4 -44 -21 -28t-45 12q-22 -4 -47 17t-45 -11q-14 -14 -5 -22t5 -16q10 -18 26 -29t30 -9q14 -6 29 -9t13 -13q-14 -2 -25 -13t-5 -31q-14 -30 22 -54t62 8q6 18 20 34t28 14q10 12 18 -3t14 -25q6 -14 19 -21t21 -25
q18 -2 25 -17t29 -15q16 16 28 37t-12 41q-8 10 -11 26t-19 14q-14 16 -28 28t-18 26q20 16 33 28t33 28q6 18 19 35t33 17q2 20 7 40t-23 34q-32 34 -64 -11t-56 -57q-14 -20 -17 -2t-3 26q-4 28 -13 64t-55 36z" />
    <glyph glyph-name="plus" unicode="+" horiz-adv-x="714" 
d="M392 580q-8 2 -20 -9t-20 -15q-6 -20 -10 -41t-12 -35q0 -14 -14 -55t-18 -55q-2 -26 -25 -20t-41 4q-32 8 -59 8t-57 4q-34 16 -55 -26t55 -60q24 2 53 -4t57 -10q16 -8 35 -8t15 -22q-6 -32 -19 -92t-11 -88q-24 -20 0 -47t44 -13q18 2 22 21t12 29q20 34 32 111t22 95
q20 4 39 3t41 1q30 10 61 5t63 7q34 -8 63 39t-39 53l-52 -4t-52 0q-26 -2 -52 -1t-48 -1q-4 16 16 79t36 83q6 28 -15 48t-47 16z" />
    <glyph glyph-name="comma" unicode="," horiz-adv-x="298" 
d="M164 142q-8 -2 -13 -5t-9 -5q-30 -14 -33 -39t-9 -51q-4 -18 10 -25t16 -17q-8 -10 -35 -39t-37 -49q-14 -26 40 -14t64 30q14 22 38 36t44 32q4 8 10 18t4 24q4 14 2 27t-6 27q-8 28 -35 41t-51 9z" />
    <glyph glyph-name="hyphen" unicode="-" horiz-adv-x="594" 
d="M442 356q-8 -4 -18 -3t-22 1q-62 -8 -124 -8t-126 -8q-26 -6 -59 7t-53 -27q0 -38 37 -50t61 -14q16 2 32 -2t36 2q10 -4 22 -4h24q26 10 51 6t51 6h46t44 2q12 -2 23 -2t25 2q62 12 20 57t-70 35z" />
    <glyph glyph-name="period" unicode="." horiz-adv-x="262" 
d="M92 156l-7 -7l-7 -7q-2 -18 -20 -42t-14 -50q10 -26 26 -37t46 -25q16 -4 50 12t36 28q4 10 12 23t-10 27q-4 10 -3 20t-13 24q-10 20 -27 20t-31 12q-8 -2 -17 1t-21 1z" />
    <glyph glyph-name="slash" unicode="/" horiz-adv-x="514" 
d="M420 704q-12 -6 -18 -12t-8 -14q-14 -42 -152 -301l-180 -335q-22 -24 -4 -49t36 -27q34 -2 40 21t26 35q22 40 54 111t60 115q14 32 28 60t32 60q20 46 73 136t67 132q0 26 -14 45t-40 23z" />
    <glyph glyph-name="zero" unicode="0" horiz-adv-x="446" 
d="M228 620q-18 -8 -39 -15t-37 -19q-8 -26 -27 -52t-33 -58q-20 -56 -34 -109t-18 -111q4 -14 7 -29t3 -27q8 -30 7 -62t17 -66q12 -20 40 -43t46 -27q30 2 62 5t64 19q22 4 36 22t26 30q30 30 38 65t14 71q-2 16 2 32t2 34l-11 116t-17 124q-2 18 -15 34t-29 18
q-20 10 -48 29t-56 19zM244 528q6 2 12 -8t8 -14q22 -38 34 -79t6 -79q-2 -30 -1 -63t-5 -61q-14 -34 -26 -79t-66 -57q-26 -8 -37 19t-21 45q-8 18 -7 33t3 35q-2 22 1 45t5 47t12 50t12 52l17 33t15 33q4 10 17 24t21 24z" />
    <glyph glyph-name="one" unicode="1" horiz-adv-x="370" 
d="M170 640l-4 -5l-4 -5q-8 -28 -37 -54t-51 -54q-34 -18 -14 -50t52 -26q20 -14 22 8t16 6v-63v-63l-4 -61t0 -65q2 -32 -5 -87t-9 -89q0 -22 43 -24t49 20q6 10 6 25t-6 31q12 34 12 88t2 88q6 46 1 162t13 142q-6 20 -10 35t-28 29q-8 16 -19 13t-25 -1z" />
    <glyph glyph-name="two" unicode="2" horiz-adv-x="638" 
d="M252 618q-8 -4 -15 -5t-15 -3q-34 0 -65 -28t-55 -58q-52 -24 -16 -56t56 -18q22 24 48 43t52 29q16 2 32 7t34 -1q28 0 57 -29t31 -57q14 -90 -47 -149t-147 -119q-32 -14 -60 -39t-62 -41q-40 -16 -19 -52t49 -28q36 4 72 10t68 8q40 10 79 11t79 9q24 8 51 7t53 -3
q16 4 33 3t31 13q22 24 4 42t-42 26q-48 4 -97 1t-97 -13q-10 2 -53 -10t-49 -8q22 18 84 55t82 65q2 4 35 45t35 55q16 14 19 31t-1 33q4 48 -24 105t-74 83q-36 28 -74 31t-72 5z" />
    <glyph glyph-name="three" unicode="3" horiz-adv-x="584" 
d="M220 602q-12 -8 -26 -7t-28 -7q-14 4 -18 -10t-8 -20q12 -64 57 -49t77 9q12 -2 27 -1t29 -3q18 -4 54 -8t44 -14q-64 -74 -114 -89t-96 -25q-20 0 -29 -15t-7 -31q4 -10 16 -25t30 -19l36 -4t34 -4q18 -2 38 -6t34 -20q30 -56 -2 -94t-72 -58q-26 -14 -59 -19t-61 11
q-26 2 -41 32t-47 26q-14 4 -31 -7t-17 -29q6 -20 16 -33t26 -25q52 -62 108 -57t108 -1q38 -4 65 24t57 42q22 16 29 37t13 41l9 27t7 29q-4 14 -6 29t-12 29q-4 26 -26 48t-36 38q-8 4 4 10t16 12q14 4 26 13t26 15q10 16 30 43t26 47q18 24 16 41t-22 41q-38 26 -80 27
t-82 9q-32 -4 -67 0t-71 0z" />
    <glyph glyph-name="four" unicode="4" horiz-adv-x="537" 
d="M350 652l-9 -5l-9 -5q-26 -28 -25 -59t-3 -57q-12 -56 -28 -117t-38 -123q4 -32 -38 -20t-48 28l-4 91t8 93q0 18 20 37t14 43q-12 20 -36 22t-38 6q-20 6 -28 -12t-12 -30q-14 -20 -9 -40t-5 -38q-4 -56 -5 -115t19 -117q10 -20 32 -25t32 -15q14 -8 41 -18t21 -22
q-6 -36 -19 -65t-17 -69q2 -20 19 -33t31 -7q16 -8 25 5t19 17q14 50 21 87t21 77q38 0 61 7t61 11q6 6 15 6t19 6q16 8 40 12t34 18q14 42 -30 59t-70 -1q-32 -2 -53 -12t-49 -8q0 14 5 27t13 31l24 89t20 87q6 22 8 45t-2 45q14 18 -7 43t-41 21z" />
    <glyph glyph-name="five" unicode="5" horiz-adv-x="666" 
d="M258 618q-10 -2 -17 -9t-9 -17q4 -32 -11 -67t-25 -69q4 -20 15 -47t31 -41q22 -36 48 -89t-2 -105q-14 -42 -34 -66t-62 -6q-8 6 -30 18t-28 24q-14 -2 -30 9t-32 1q-32 -2 -21 -27t13 -37q18 -10 57 -45t65 -39q36 -10 69 0t41 26q34 16 47 48t23 64q16 46 8 117
t-36 119q-8 12 -15 20t1 10q24 0 50 -1t50 -9q18 -6 34 -7t34 -1q26 -14 53 -10t53 10q28 18 12 40t-30 36q-42 12 -77 14l-73 4l-46 8t-46 6q-18 2 -13 20t-1 34q16 24 -15 46t-51 18z" />
    <glyph glyph-name="six" unicode="6" horiz-adv-x="420" 
d="M276 662q-22 -8 -47 -11t-49 -17q-26 -4 -65 -30t-49 -62q-14 -26 -18 -43t-8 -43q8 -12 5 -41t-1 -69q4 -24 15 -43t7 -37q4 -38 7 -80t-7 -78q-6 -22 -1 -42t1 -40q-8 -42 28 -57t64 -7q22 4 47 17l41 21q22 4 37 26t33 38q8 20 25 43t13 59q4 76 -28 108t-44 40
q-26 24 -50 36t-50 14q-30 0 -35 8t-9 32q-8 28 9 75t55 67q28 12 54 22t50 6q14 4 34 -3t34 11q28 10 15 39t-35 31q-20 2 -38 8t-40 2zM170 274q22 -6 61 -36t33 -58q-2 -32 -29 -65t-65 -39q-14 20 -13 105t13 93z" />
    <glyph glyph-name="seven" unicode="7" horiz-adv-x="529" 
d="M398 618l-49 -15t-49 -11q-48 0 -97 -13t-95 -13q-22 10 -54 -10t-6 -52q16 -18 32 -22t30 -2q20 -4 39 -3t39 9q28 -4 54 4t50 8q18 -6 34 2t26 -2q-14 -38 -25 -77l-23 -79q-12 -28 -18 -54t-10 -50q-2 -14 -8 -29t-10 -27q-2 -24 -14 -51l-24 -53q0 -22 -3 -45t29 -45
q16 6 35 12t31 24q10 40 74 257t72 231q2 14 13 32t-3 32q-10 28 -29 36t-41 6z" />
    <glyph glyph-name="eight" unicode="8" horiz-adv-x="500" 
d="M270 644q-4 -4 -9 -3t-15 -1q-36 -14 -73 -39t-53 -67q-28 -50 0 -110t76 -100q44 -20 13 -29t-41 -19q-28 -20 -53 -44t-45 -52q-20 -36 -25 -70t15 -68q-2 -20 49 -50t73 -28q12 4 28 2t32 6q10 -2 19 3t13 7q46 10 83 51t57 85q-4 12 11 27t-1 33q4 22 -10 45t-24 45
q-20 18 4 29t34 27q20 36 26 78t-12 80q-20 16 -14 32t6 36q-4 16 -17 36t-29 32q-32 18 -61 21t-57 5zM286 558q10 4 18 -8t10 -22l29 -37t23 -39q4 -26 -12 -58t-54 -42q-6 -4 -14 2t-14 10q-18 14 -40 36t-26 46q-8 22 7 49t41 37q8 14 15 13t17 13zM300 226
q34 -14 27 -44t-17 -56q-14 -18 -32 -31t-34 -17q-30 -10 -62 -22t-52 22q-2 16 12 36t34 32q6 34 45 59t79 21z" />
    <glyph glyph-name="nine" unicode="9" horiz-adv-x="576" 
d="M164 622q-34 -20 -56 -48t-40 -54q-12 -22 -20 -49t-6 -55q0 -18 6 -35t12 -31q16 -34 50 -53t60 -35q26 -6 50 -5t38 -15q-12 -36 -53 -73t-69 -77q-24 -36 -59 -56t-35 -58q4 -10 12 -24t24 -12q32 4 55 32t43 42q12 12 36 29t38 37q30 40 76 88t78 92q16 18 28 36
t32 22q10 -2 28 4t10 24q-6 10 5 24t13 28q16 32 -2 55t-26 47q-30 22 -38 52t-42 48q-26 20 -56 37t-64 19q-14 2 -62 -12t-66 -24zM314 562q22 -4 53 -25t31 -49q10 -28 6 -70t-50 -52q-26 -2 -51 -13t-47 -13q-32 -10 -81 6t-41 64q0 20 7 44t27 38q16 24 38 36t44 14
q16 10 31 8t33 12z" />
    <glyph glyph-name="colon" unicode=":" horiz-adv-x="486" 
d="M249 583q-8 -2 -25 -8t-19 -18q-12 -26 -10 -53t26 -49q10 -8 23 -13t25 -3q20 16 38 29t6 39q16 16 8 37t-24 29q-8 4 -23 9t-25 1zM219 227q-10 -4 -20 -2t-14 -2q-14 -32 -16 -61t36 -57q6 -26 27 -22t37 12q32 8 28 34t-2 48q-2 32 -28 43t-48 7z" />
    <glyph glyph-name="semicolon" unicode=";" horiz-adv-x="328" 
d="M184 602q-26 -14 -36 -45t-8 -55q-8 -30 21 -42t53 -16q16 6 26 2t14 6q-4 26 14 41t20 33q-8 34 -42 54t-62 22zM218 268q-24 -10 -45 -33t-23 -49q-6 -14 0 -28t4 -28q16 -14 4 -21t-16 -11q-10 -22 -33 -25t-45 3q-12 -2 -18 -7t-4 -15q6 -10 20 -21t28 -9q30 4 54 4
t48 20q38 26 66 63t24 75q0 22 -17 52t-47 30z" />
    <glyph glyph-name="less" unicode="&#x3c;" horiz-adv-x="566" 
d="M426 588q-6 -4 -13 -1t-17 -7q-40 -14 -86 -34t-92 -36q-12 -10 -26 -15t-30 -17q-14 -8 -29 -14l-25 -10q-10 -2 -19 -7t-15 -3q-34 -10 -33 -40t27 -46l83 -82l73 -78q28 -32 45 -63t47 -61q12 -32 40 -40t48 -6q10 8 17 15t7 21l-16 25t-28 17l-41 56t-37 54
q-18 24 -33 41t-41 37q-16 14 -36 36t-40 48q6 10 24 17t32 15q8 6 17 8t19 10q28 18 63 28t71 34q16 2 37 12t37 10q12 2 41 10t1 34q-8 28 -32 26t-40 6z" />
    <glyph glyph-name="equal" unicode="=" horiz-adv-x="642" 
d="M491 482q-20 -2 -42 -5t-44 -11q-34 10 -61 1t-53 -1q-44 -2 -85 -14t-75 -18q-26 12 -51 -28t23 -50q20 0 45 -3t51 3q10 8 24 10t32 6q28 12 58 10t62 0q14 2 27 3t21 -3q26 8 51 7t51 5q58 10 29 53t-63 35zM551 324q-8 -6 -40 -13t-40 -5q-20 -2 -38 -6t-40 -8
q-42 0 -76 -7t-74 -17q-44 -10 -90 -16t-96 -26q-34 -24 9 -53t79 -15q34 16 70 15t74 11q34 4 61 13t53 3q28 4 65 7t75 11q22 10 32 57t-24 49z" />
    <glyph glyph-name="greater" unicode="&#x3e;" horiz-adv-x="592" 
d="M490 512q-20 0 -40 -5t-36 -3l-65 4t-63 2q-26 10 -54 16t-56 14h-45h-49q-42 0 -30 -38t44 -38q24 -2 47 -3t45 -1q22 -2 48 -8t52 -16q12 2 26 -2t28 -4q4 -4 34 -4t24 -10q-28 -20 -73 -46t-73 -44q-38 -10 -62 -35t-64 -35q-20 -20 -20 -47t26 -43q32 -20 53 7t49 33
q16 18 36 26t40 28q22 2 38 14t32 18q16 16 38 32t42 28q14 22 52 52t18 62q-4 16 -14 26t-28 20z" />
    <glyph glyph-name="question" unicode="?" horiz-adv-x="558" 
d="M292 706q-64 -14 -133 -48t-91 -110q-14 -28 -21 -52t15 -52q12 -22 24 -10t28 8q28 4 34 29t16 41q10 44 31 59t53 31q20 10 38 12t32 8q16 2 47 -3t39 -27q-26 -18 -45 -43t-51 -45q-40 -14 -51 -43l-21 -55q10 -28 1 -58l-17 -56q8 -14 7 -28t15 -30q18 -10 26 -21
t28 7q28 34 27 70t7 70q-20 38 17 60t63 36q40 36 74 77t6 83q-20 76 -85 82t-113 8zM250 180q-48 4 -40 -31t-2 -59q10 -8 17 -37t35 -29q52 -20 51 25t-1 67q6 24 -19 42t-41 22z" />
    <glyph glyph-name="at" unicode="@" horiz-adv-x="810" 
d="M456 642q-6 -8 -12 -9t-14 -5q-16 -16 -40 -17t-50 -17q-14 -12 -37 -18t-35 -28q-32 -20 -60 -61t-60 -63q-22 -34 -49 -71t-37 -75q-14 -22 -13 -41t-9 -41q8 -28 7 -61t15 -67q22 -42 55 -71t71 -43l52 -12t52 -6q32 4 64 6t64 8l52 20t50 14q16 4 26 9t18 7
q32 -12 58 17t50 49q6 22 22 33t28 37q28 30 13 64t-49 48q18 30 32 56t18 54q8 16 11 31t5 29q16 46 -18 100t-84 80q-10 18 -31 21t-37 9q-28 -2 -60 7t-68 7zM508 552q18 0 42 -5t46 -13q26 0 42 -19t28 -41q4 -18 -3 -41t-13 -45q-14 -20 -10 4t-16 30q-14 14 -31 21
t-29 -15q-8 -8 -22 10t-30 14q-14 4 -30 -6t-28 -8q-20 4 -53 -13t-33 -45q-8 -22 -39 -46t-27 -52q2 -12 -6 -29t8 -31q-4 -18 15 -36t25 -32q14 -4 25 -8t25 -8q22 -4 45 13t43 13q10 -20 27 -26l29 -10q20 8 31 26t31 22q14 8 38 37t12 -15q-10 -24 -29 -41t-35 -43
q-36 -48 -79 -49t-87 -21q-22 -14 -49 -18l-53 -8q-14 -6 -30 5t-36 -3q-14 6 -29 8t-27 8l-21 11t-11 19q-16 18 -18 38t-12 42q-8 38 6 83t44 79q22 40 68 86t76 86q24 24 58 40t64 18q12 10 27 5t31 9zM502 360q38 -14 25 -46l-25 -60q-20 -12 -38 -15t-40 -1
q-10 -10 -21 -11t-21 -7q-16 34 10 67t64 59q12 4 22 8t24 6z" />
    <glyph glyph-name="A" unicode="A" horiz-adv-x="651" 
d="M472 656q-14 -6 -26 -21t-18 -17q-26 0 -43 -27t7 -45q18 -10 5 -26t-17 -38q-4 -20 -75 -106t-125 -120q-18 16 -36 -12t-28 -36q-2 -32 -26 -47t-42 -33q-62 -26 -22 -74t84 -26q6 22 46 67t70 57q50 10 112 7t112 -5q16 12 18 -5t0 -27q12 -12 -3 -26t5 -34
q30 -14 85 -18t47 56q-18 22 -22 42t-14 46q-4 26 -8 48t-8 48q-4 56 -7 110t1 110q-8 8 -9 17t-1 21q28 36 0 65t-62 49zM448 422q6 -12 16 -95t-6 -75q-26 18 -76 3t-68 -7q14 20 74 97z" />
    <glyph glyph-name="B" unicode="B" horiz-adv-x="552" 
d="M106 686l-7 -3l-7 -3q-14 -16 -40 -16t-26 -32q0 -30 23 -38t35 -18q0 -36 -1 -71t-7 -73q2 -12 -3 -27t-17 -25q-18 -22 -1 -37t17 -33q-4 -18 0 -35t-2 -33q4 -22 3 -35t3 -41q-10 -20 -1 -39t-13 -35q-32 -8 -21 -38t39 -34q10 -2 27 -13t29 3q12 12 25 15t27 -3
q34 10 64 10h60q24 -14 52 12t38 36q12 12 42 45t36 59q10 44 14 91t-24 91q-8 10 -26 25t-36 17q-18 4 -3 8t15 12q10 22 32 47t34 51q-2 14 -3 29t-11 29q-2 16 -15 34t-31 30q-32 32 -66 26t-62 0l-39 -8t-41 -2q-26 -2 -53 7t-59 15zM328 600q22 -8 43 -2t25 -26
q16 -22 -12 -45t-44 -51q-10 -22 -25 -30t-33 -16q-18 0 -35 -4t-33 -4q-14 4 -39 -9t-11 25q4 34 5 69t5 67q6 24 31 17t47 -5q22 -6 41 6t35 8zM388 326q24 -4 21 -28t-5 -46q-10 -26 -55 -80t-63 -58q-18 -6 -34 -4t-36 -2q-16 4 -38 -3t-18 21v69t2 63q2 12 -3 28t15 12
q22 -4 46 -1t44 5q34 -2 64 11t60 13z" />
    <glyph glyph-name="C" unicode="C" horiz-adv-x="662" 
d="M322 610q-6 -2 -17 2t-23 -10q-28 -2 -62 -26t-58 -54q-30 -32 -48 -71l-36 -79q-10 -18 -21 -42t-15 -50q-2 -14 -2 -29t4 -31q2 -32 16 -59t32 -55q34 -42 76 -54t80 -12q10 4 102 1t112 5q28 22 63 21t67 43q10 28 11 51t-3 49q-8 18 -22 31t-30 13q-14 10 -47 -3
t-5 -37q12 -14 14 -27t-14 -23q-4 -6 -15 -4t-23 -8q-20 -2 -40 -12t-36 -8q-24 0 -44 -1t-42 3q-6 -8 -18 -7t-24 3q-26 8 -47 10t-41 10q-32 40 -36 80t22 88q32 46 45 78t53 68q8 20 29 31t39 17q10 8 24 9t28 7q4 2 14 -3t20 3q24 -8 46 -9t42 -17q18 -10 33 -23t5 -31
q4 -14 -1 -32t-3 -40q4 -38 43 -39t41 37q2 12 7 26t-1 34q4 38 -8 68t-52 60q-28 20 -60 27l-60 13q-20 2 -50 7t-64 1z" />
    <glyph glyph-name="D" unicode="D" horiz-adv-x="648" 
d="M190 608q-12 -6 -23 -20t-9 -24q8 -14 -1 -31t-7 -35q-10 -74 -40 -170t-44 -176q-26 -24 2 -62t62 -40q24 -2 49 -20t51 -10q24 -4 43 2t39 4q16 4 34 3t38 1q22 18 52 48l54 52l69 121t45 123q-8 16 -2 34t-10 36q-14 50 -59 74t-81 34q-22 16 -46 23t-46 21
q-22 10 -47 6t-45 -8q-20 -14 -36 -2t-42 16zM332 524q42 -2 83 -31t85 -41q4 -6 11 -13t5 -15q6 -44 -25 -113t-65 -115q-26 -30 -44 -44t-46 -40q-16 0 -32 -4t-32 -10q-14 0 -26 -3t-22 -1q-18 -2 -37 10t-37 16q2 10 8 25t8 29q12 36 23 88t19 86q14 42 19 81t19 77
l36 7t32 5l9 3z" />
    <glyph glyph-name="E" unicode="E" horiz-adv-x="678" 
d="M464 612q-30 -4 -60 -5t-62 -5l-62 -8l-64 -8l-56 -4t-58 0q-22 4 -36 -21t6 -41q-10 -14 0 -29t6 -29q2 -32 11 -63t-5 -61q-14 -12 -1 -21t13 -15q-2 -14 0 -28t-8 -26q0 -40 -14 -79t-20 -79q-14 -18 -7 -35t21 -27q22 -12 44 -12t36 14q28 20 177 36t175 12
q16 10 35 13t35 5q16 8 41 6t27 28q-18 60 -58 51t-68 -5q-12 -4 -160 -22l-182 -22q-14 8 -3 28t9 40q10 24 6 62t36 32q26 8 52 6t52 0q28 8 57 11t57 5l21 -8t25 6q34 4 49 40t-19 52q-16 20 -33 18t-29 -4q-26 -12 -54 -18t-58 -14q-26 -2 -48 -6t-40 0q-24 16 -44 1
t-30 5q0 18 -4 35t-8 31q0 16 -3 26t-1 18q22 6 47 7t51 1q38 2 70 8t68 10q22 -2 45 1t43 1q18 6 35 2t35 -2q44 -2 35 38t-43 44q-20 -2 -40 1t-42 3z" />
    <glyph glyph-name="F" unicode="F" horiz-adv-x="625" 
d="M516 628q-20 -12 -48 -11t-54 -3q-28 10 -57 6l-57 -8q-36 -8 -72 -15t-76 -23q-14 10 -30 -13t-4 -33q2 -12 7 -23t1 -21q-2 -14 -3 -30t-5 -28q2 -18 -5 -38t-11 -42q-8 -22 -14 -44t-14 -44q-8 -40 -11 -77t-15 -73q6 -16 -9 -36t17 -30q16 -20 42 -22t34 18
q4 16 5 30t3 30q12 22 11 46t5 44q-2 26 7 50t13 50q16 4 35 1t45 -1q8 10 19 0t25 4q16 -2 32 0t36 4q26 2 50 5t50 1q18 10 36 3t34 5q32 -10 32 28t-22 42q-22 28 -47 19t-47 -3q-24 -8 -49 -7t-53 -9q-24 4 -46 0t-44 -2q-16 6 -34 0t-24 2q14 10 7 22t-5 20q6 16 4 30
t4 28q14 8 25 20t23 16q22 8 45 13t43 5q28 14 56 1t60 -9q22 10 44 7t48 -1q16 10 27 21t1 29q-6 22 -27 38t-43 8z" />
    <glyph glyph-name="G" unicode="G" horiz-adv-x="630" 
d="M284 576q-14 6 -27 -7t-25 -9q-40 -38 -92 -82t-66 -98q-7 -26 -10.5 -33t-10.5 -46q2 -48 12.5 -66t28.5 -37q20 -14 27 -25t38 -24q16 -22 32.5 -30.5t46.5 -18.5q20 -10 39 -21t33 -15q55 -3 76.5 1.5t49.5 16.5l69 52t57 70q16 16 22 37t6 37q-8 16 -11 26t-9 24
q-15 18 -28.5 27t-31.5 17q-22 10 -44 13t-44 5q-28 -2 -72 -19t-26 -63q18 -22 42 -17t46 -1q12 8 20 10t18 -2q16 10 34 -1t4 -53q-27 -24 -36.5 -35t-31.5 -32q-28 -7 -43 -15t-33 -6q-34 4 -71 26t-71 36q-14 6 -37 32t-19 46q7 44 18.5 75t45.5 57q24 21 41 39.5
t37 20.5q12 18 31 19t41 -3q12 -14 23 -13t27 3q14 10 16 24t4 26q-8 12 -26 19t-34 11q-20 -4 -42 -1t-44 3z" />
    <glyph glyph-name="H" unicode="H" horiz-adv-x="644" 
d="M542 656q-18 10 -29 -7t-13 -31q0 -20 1 -40t-3 -40q-8 -24 -10 -47t-10 -43q-8 -18 -10 -34t-6 -32q-22 -12 -47 -13t-51 -11q-20 -8 -39 -7t-41 -9q-18 2 -34 0t-28 6q4 18 6 34t0 32q4 18 5 35t9 31q6 20 -13 47t-41 21q-44 10 -43 -26t-3 -56q-2 -62 -15 -123
t-35 -125q-6 -6 -12 -10t2 -20q4 -10 -7 -24t-15 -30q-2 -12 -11 -25t-7 -31q0 -18 20 -34t36 -8q22 -2 32 15t12 29q4 10 8 16t6 16q14 22 17 41t13 39q6 18 9 35t17 29q28 0 53 5t51 7q12 6 27 4t29 4q16 -8 30 3t24 7q4 0 2 -5t-2 -11q2 -26 -6 -55t-8 -59q-6 -18 -5 -35
t-15 -31q6 -14 2 -29t8 -31q10 -10 25 -19t29 -1q32 -10 33 16t3 36q10 22 10 41t8 39q4 30 6 58t14 58q-2 22 13 35t29 33q-2 16 -11 31t-1 27q4 18 10 39t8 41q0 16 12 34t0 36q10 18 12 39t-10 45q-18 8 -24 22t-26 16z" />
    <glyph glyph-name="I" unicode="I" horiz-adv-x="294" 
d="M172 602q-8 0 -16 -9t-12 -15q-2 -24 -1 -47t-3 -45q-2 -38 -11 -73t-7 -75q-10 -56 -26 -113t-34 -113q-14 -16 -18 -36t6 -38q16 -30 52 -28t36 36q10 22 22 46t10 46l8 16t6 16q22 58 26 111t12 109q6 22 9 45t5 47q-4 16 7 32t1 36q-10 16 -30 35t-42 17z" />
    <glyph glyph-name="J" unicode="J" horiz-adv-x="394" 
d="M282 558q-8 -2 -25 -12t-11 -20q-2 -18 -7 -37t-5 -41q4 -10 -4 -21t-2 -25q-8 -32 -12 -63t-12 -63q-2 -16 -6 -34t-8 -34q-4 -32 -6 -67t-30 -57q-24 20 -48 35t-52 -3q-26 -30 2 -56t42 -44q18 -8 35 -17t37 -5q18 2 36 13t32 23q36 30 38 70t10 76q10 28 25 154
t29 154q-6 12 -2 29t-24 29q-8 10 -17 9t-15 7z" />
    <glyph glyph-name="K" unicode="K" horiz-adv-x="562" 
d="M90 648l-13 -17t-1 -19l-8 -52t-4 -52q-4 -20 2 -40t2 -40q2 -72 -6 -142l-16 -142q-6 -18 -4 -42t28 -32q34 -26 54 9t14 55q8 38 9 74t9 68q16 -8 23 -20l19 -32q26 -42 51 -78t59 -78q22 -22 44 -58t60 -30q28 8 23 29t-11 35q-4 38 -38 64t-50 56l-50 83t-62 79
q-24 18 -7 27t29 17q38 24 76 43t76 33q28 8 58 21t52 33q26 18 12 32t-22 28q-14 10 -33 12t-29 -10q-8 -12 -16 -18t-20 -10q-20 -8 -45 -14t-47 -16q-20 -2 -40 -16t-40 -22q-20 -2 -40 -24t-30 -2q4 24 0 48t0 44q-4 20 9 44t-3 52q-16 -4 -34 13t-40 7z" />
    <glyph glyph-name="L" unicode="L" horiz-adv-x="458" 
d="M136 626q-28 -22 -35 -53t-23 -57q-8 -44 -7 -87t-3 -87q-4 -20 -7 -79t-11 -77q-10 -26 -7 -52t-3 -52q6 -38 35 -46t55 -8q16 -4 30 5t26 9l63 8t67 10q22 18 48 9t52 25q2 42 -29 54t-59 8q-24 4 -79 -7t-83 -21q-38 -22 -27 8t7 46q0 18 8 95t8 101q4 14 3 28t-1 28
q-2 40 21 80t11 80l-28 21t-32 11z" />
    <glyph glyph-name="M" unicode="M" horiz-adv-x="778" 
d="M634 660q-10 4 -41 -44t-39 -74q-22 -42 -34 -82t-36 -78q-2 -14 -10 -29t-12 -29q-10 -14 -22 -33t-22 -29q-6 -8 -19 -31t-23 -3q-20 60 -42 114t-56 112q-20 28 -26 56t-36 60q-14 10 -28 17t-28 9q-26 -18 -35 -34l-21 -36q-16 -60 -30 -121t-10 -121q2 -12 -1 -27
t1 -31q-4 -14 -1 -29t-1 -27q-2 -20 -6 -45t-16 -47q4 -42 48 -45t54 35q0 12 4 27t4 31q0 10 4 20t2 24q4 48 6 97t0 95q6 22 6 41t14 33q22 -32 35 -64t31 -68l20 -57t22 -57q6 -20 16 -43l20 -47q-6 -32 31 -49t63 1q10 28 23 57t29 57q34 40 60 98t42 112q4 14 23 40
t21 46q4 24 13 28t5 -42q2 -28 -23 -148t-41 -166q-2 -20 1 -50t17 -30q14 2 40 15t34 25q20 58 27 112t21 106q16 32 14 65t4 61q8 22 4 47t-4 45q4 14 -14 65t-40 57q-6 14 -20 10t-22 -2z" />
    <glyph glyph-name="N" unicode="N" horiz-adv-x="585" 
d="M122 588q-20 -2 -35 -20t-15 -32l-4 -75t0 -73q2 -10 -4 -21t-2 -25q0 -20 -5 -44t-5 -48q-12 -48 -1 -93t3 -91q10 -28 27 -20t29 6q34 6 35 32t3 44q0 16 -4 29t2 27q-2 26 3 51t3 51q-2 16 3 34t1 36q10 22 9 44t11 34q10 -16 17 -31t11 -31q10 -28 48 -110t40 -106
q0 -38 59 -62t69 34q22 28 25 57t21 53q18 38 28 75t26 73q6 30 24 64t-4 62q-14 28 -32 32t-44 -10q-20 -44 -28 -87t-24 -83q-12 -30 -22 -68t-26 -56q-14 16 -41 91t-39 95q-14 30 -33 63t-53 47q-18 10 -35 27t-41 25z" />
    <glyph glyph-name="O" unicode="O" horiz-adv-x="560" 
d="M260 548l-16 -8t-18 -8q-16 -16 -36 -29t-44 -37q-4 -14 -21 -21t-29 -23q-22 -22 -27 -50t-21 -50q-8 -22 -4 -47t12 -47q16 -62 70 -101t108 -49q40 -10 83 -4t71 44q36 22 46 47t36 51q10 28 30 57t10 59q-2 38 -10 82t-54 70q-22 16 -41 18t-39 12q-26 16 -52 25
t-54 9zM294 464q20 -14 42 -21t48 -9q32 -22 30 -54t-2 -62q-14 -34 -33 -66t-47 -62q-12 -8 -24 -23t-26 -19q-38 -16 -82 16t-54 76q-2 4 -2 9v9q12 12 4 21t-4 17q-4 12 12 27t6 29q10 16 35 36t35 40q12 12 30 20t32 16z" />
    <glyph glyph-name="P" unicode="P" horiz-adv-x="444" 
d="M80 614q-14 -2 -20 -9t-16 -13q-2 -32 6 -60t4 -56q4 -20 3 -39t3 -41q4 -34 1 -69t-7 -69q4 -40 -4 -83t-8 -87q0 -14 1 -29t-3 -29q0 -14 10 -37t34 -21q46 10 41 41t3 53q4 34 5 69t9 67q-8 20 43 23t61 13q24 4 48 22t38 30l41 64t25 64q6 40 3 88t-55 74
q-24 10 -48 11t-44 9q-32 10 -88 10t-86 4zM224 530q24 -4 51 -16t45 -40q6 -32 -15 -72t-59 -64q-10 -14 -58 -21t-44 19q0 34 1 68t-3 70q4 16 -1 33t15 19l34 2z" />
    <glyph glyph-name="Q" unicode="Q" horiz-adv-x="602" 
d="M314 514q-62 -8 -98 -26t-86 -70q-40 -40 -60 -100t-24 -102q-6 -44 45 -80t87 -52q22 -14 46 -13t50 5q26 0 52 12t52 18q8 2 54 -36t72 -32q46 -6 21 45t-47 79q22 28 47 45t25 45q12 40 7 86t-33 70q-16 16 -27 28t-31 26q-32 28 -71 42t-81 10zM348 430
q22 -10 17 -28t23 -16q16 -2 51 -33t19 -63q-8 -30 -24 -49t-38 -17q-18 4 -41 24t-35 40q-18 16 -44 19t-54 -11q-10 -18 -5 -50t33 -30q18 14 38 -22t-14 -22q-32 -32 -76 -18t-58 58q-8 14 -7 38t21 44q24 32 60 70t56 48q22 10 40 10t38 8z" />
    <glyph glyph-name="R" unicode="R" horiz-adv-x="480" 
d="M101 589q-14 -2 -30 -3t-28 -11q-30 -34 -1 -57t55 -39q8 -10 5 -25t1 -31q-6 -28 -8 -56t-12 -56q-14 -32 -9 -63t-7 -63q0 -30 -9 -61t-9 -65q-10 -32 33 -50t59 14q2 26 8 53t8 53q2 12 3 26t9 20q26 -20 70 -47t68 -51q14 0 32 -19t38 -11q18 -8 34 18t-4 44
q-22 20 -47 33t-47 33q-4 8 -18 15t-18 19q2 16 20 20t32 12q24 10 42 32t16 50q22 28 29 57t9 55q10 26 -15 56t-51 38q-22 12 -45 20t-47 10q-10 -2 -31 4t-35 4q-22 -2 -47 9t-53 13zM197 469q12 2 35 0t37 -4q16 -8 47 -10t17 -30q-4 -34 -30 -78t-64 -54l-40 -13t-20 7
q-2 32 9 72t5 72q4 10 -1 22t5 16z" />
    <glyph glyph-name="S" unicode="S" horiz-adv-x="664" 
d="M454 664q-12 -2 -23 -3t-23 -3q-22 -18 -36 -28t-36 -38q-8 -22 -15 -46t-1 -52q6 -12 10 -27t12 -31q10 -30 39 -59t59 -45q4 -18 11 -33t9 -25q2 -14 4 -25t-2 -23q-2 -38 -23 -70t-53 -52q-14 -16 -29 -16t-39 -2q-8 -4 -16 -2t-22 2q-30 14 -59 14t-57 18
q-10 10 -21 24t-5 28q-6 18 -3 35t3 37q2 10 11 22t11 28q8 28 -20 36t-44 16q-22 -2 -31 -21t-13 -31q-2 -28 -7 -62t5 -68q-4 -48 47 -85t87 -47q16 2 37 -8t41 -4q12 -20 22 -13t18 -1q18 2 41 4t43 -2q14 4 29 6t35 16q8 10 26 19t20 25q34 26 46 73t18 91q-2 38 -17 79
t-45 69q-12 16 -27 24t-27 22q-14 8 -18 24t-14 36q-4 20 10 53t46 35q14 10 26 -2t38 -12q16 -2 37 1t37 5q18 22 10 38t-28 32q-16 6 -35 16t-41 4q-14 4 -29 3t-29 1z" />
    <glyph glyph-name="T" unicode="T" horiz-adv-x="604" 
d="M406 568q-14 -8 -26 -6t-28 -2q-14 -8 -33 -10t-35 -6q-6 -2 -16 1t-18 -5q-10 2 -66 7t-70 -1q-14 -8 -38 -4t-36 -28q4 -32 22 -44t44 -16q10 -2 67 -2h67q22 2 15 -17t-7 -35q4 -18 -2 -37t-4 -41q-2 -18 -10 -79t-12 -77q-2 -10 -7 -21t-7 -23q-18 -34 27 -59t65 11
q10 44 21 123t19 117q0 16 4 32t4 34q4 18 10 38t8 42q16 22 52 21t56 1q16 -2 27 1t19 3q16 -12 31 8t11 34q-28 50 -77 41t-77 -1z" />
    <glyph glyph-name="U" unicode="U" horiz-adv-x="485" 
d="M94 576q-14 4 -26 -10t-12 -26q10 -38 4 -79t2 -81q-8 -50 -6 -103t0 -105q12 -20 7 -42t-1 -44q-6 -38 37 -64t73 -2q10 4 18 8t16 6q14 4 38 15t42 17q10 10 22 9t26 11q8 14 24 21t24 23q26 16 36 46t12 52t0 46l-4 46q-8 42 -7 84t-1 86q12 44 -28 56t-62 -10
q2 -26 -5 -52t1 -54q2 -28 3 -56t7 -56q2 -24 -1 -47t-1 -45q-12 -42 -61 -67t-83 -39q-22 -8 -26 16t-12 38q0 14 1 169t-5 185q-8 16 -22 30t-30 18z" />
    <glyph glyph-name="V" unicode="V" horiz-adv-x="560" 
d="M100 552q-18 -2 -39 -15t-9 -37q16 -26 25 -50t17 -50q-2 -24 33 -127t47 -135q8 -24 19 -37t19 -31q4 -8 16 -25t24 -17q14 2 29 3t29 7q8 14 82 190t82 190q0 28 23 51t7 53q-8 8 -16 14t-20 6q-8 2 -20 3t-28 -7q-32 -64 -83 -197t-61 -153q-12 -20 -15 -3t-13 25
q-16 16 -23 43t-15 51q-4 40 -14 76l-20 74q-6 14 -9 29t-11 29q0 30 -20 29t-36 11z" />
    <glyph glyph-name="W" unicode="W" horiz-adv-x="632" 
d="M284 558q-16 -8 -22 -23t-10 -31q-12 -50 -52 -140t-68 -142l7 46t7 54q6 28 4 53t2 51q-6 28 10 64t-26 50q-14 -2 -34 8t-28 -18l-8 -62t-2 -62q4 -28 -4 -57t-6 -57q-2 -28 -2 -56t-8 -58q-4 -22 -1 -46t5 -46q4 -40 49 -46t53 38q18 26 39 60t35 60q4 18 16 39l22 37
q10 6 11 41t9 21l21 -62t13 -64q4 -32 31 -88t47 -80q20 -14 41 -14t35 14q4 22 16 38t16 42q-2 16 5 34t11 32q-2 16 23 114l29 114q10 22 11 46t11 46q0 26 -25 38t-45 4q-32 -10 -32 -47t-14 -63q0 -20 -27 -138t-31 -134v11t-8 25q-12 30 -18 58t-14 56q-4 32 -14 64
t-8 62q-2 22 1 46t-7 46q-14 10 -32 18t-34 4z" />
    <glyph glyph-name="X" unicode="X" horiz-adv-x="590" 
d="M446 562q-26 -38 -74 -100t-82 -102q-8 -10 -18 -31t-20 -17q-4 10 -13 27t-13 21q-20 38 -35 74t-33 74q-14 28 -62 27t-40 -33q34 -66 62 -128t64 -128q-18 -20 -37 -49t-41 -49q-12 -18 -38 -27t-26 -35t24 -41t42 -1q40 -8 73 36t59 70q10 22 24 8t26 -30
q20 -16 44 -40t50 -40q12 -8 22 -23t30 -27q22 -12 45 -13t37 19q2 38 -43 76t-71 56q-26 26 -53 49t-41 55l40 45t38 41q30 36 77 99t77 99q10 28 -29 53t-65 -15z" />
    <glyph glyph-name="Y" unicode="Y" horiz-adv-x="564" 
d="M444 618q-8 -2 -19 -10t-13 -18q8 -12 -5 -26t-11 -30q-8 -18 -22 -45t-30 -49q-24 -14 -32 -32t-28 -26q-14 12 -16 30t-26 32q-20 20 -47 50t-61 46q-18 10 -56 10t-22 -42q46 -50 90 -83t58 -77q6 -34 17 -67t17 -61q14 -38 18 -91t6 -93q6 -32 34 -38t50 4
q20 2 16 15t-4 17q8 14 -2 25t-6 23q-2 26 -6 63t-4 61q0 28 -6 53t26 43q18 22 83 119t67 117q-2 10 6 22t-6 26q-12 10 -31 21t-35 11z" />
    <glyph glyph-name="Z" unicode="Z" horiz-adv-x="631" 
d="M102 616q-18 -8 -17 -29t3 -31q46 -44 93 -34t89 0q24 -2 43 2t39 0q14 -2 27 2t15 -6q-14 -8 -19 -19t-15 -17q-30 -18 -54 -52t-48 -58q-14 -30 -77 -101t-85 -99q-8 -14 -45 -44t5 -60q10 -6 26 -12t32 -4q26 2 51 0t49 4q24 4 48 5t44 1q44 10 88 7t86 -7q26 8 59 8
t49 38q-2 8 2 17t-14 21q-20 14 -40 14h-40q-30 -4 -139 -7t-139 -3q-20 -12 -15 -1t15 13q36 20 77 88t67 94q18 30 84 87t82 85q48 26 17 58t-55 40q-14 -10 -27 -5t-29 1q-12 6 -126 0t-136 -6q-20 6 -36 7t-34 3z" />
    <glyph glyph-name="bracketleft" unicode="[" horiz-adv-x="406" 
d="M242 736l-9 -3l-9 -3q-8 -20 -21 -13t-29 11q-26 2 -25 -19t-13 -31q-14 -54 -33 -120t-19 -120q6 -16 0 -157t-10 -155q0 -18 -9 -37t-13 -41q-12 -26 10 -40t42 -18q22 -2 40 7t34 15q24 -16 50 17t-16 57q-14 18 -23 10t-19 6q10 58 5 164t7 168q4 18 3 35t7 33
q0 12 5 39t13 39q2 16 5 34t17 26q22 8 46 9t44 1q44 2 30 33t-30 35q-20 12 -40 14z" />
    <glyph glyph-name="backslash" unicode="\" horiz-adv-x="884" 
d="M672 570q-20 -12 -32 -31t-14 -41q0 -22 1 -41t-3 -39q6 -22 -24 -24t-44 4q-12 10 -12 31t-10 41q-10 22 -17 55t-45 21q-24 16 -37 -7t-17 -39q-20 -22 -35 -51t-33 -53q-18 -2 -51 -2h-53q-2 6 2 17t0 23q-8 20 4 45t-14 45q-16 6 -35 20t-37 -2q-30 -6 -15 -27
t11 -35q-2 -20 -1 -40t-15 -30q-12 2 -23 3t-25 3q-12 -4 -28 -6t-26 -10q2 -16 -1 -36t9 -36q22 4 45 4t45 -4q4 -18 -4 -40t-8 -46q-6 -40 -13 -80t1 -82q10 -14 23 -25t25 -9q14 -12 27 1t21 15q-2 20 10 27t26 21q20 16 74 95l82 117q16 10 33 11t25 -19q-2 -38 5 -74
t3 -74q-2 -18 0 -35t4 -31q6 -20 1 -43t27 -39q30 -22 60 -5t54 33q22 -4 36 15t24 27q16 16 24 37t16 39q6 16 11 35t9 37q-2 20 -2 37t2 37q16 0 39 -10l37 -16q30 -12 30 65t-60 43q-18 4 -36 2t-28 10q4 18 5 38t7 40q-2 16 16 35t-8 35q-14 10 -33 11t-35 7zM572 316
l49 -5t19 -35q-4 -20 -7 -41t-11 -39q-10 -20 -19 -41t-27 -27q-12 32 -7 68t-5 74q4 16 1 27t7 19zM294 318q-8 -16 -46 -81t-54 -69q-16 12 9 79t23 75q0 4 32 -1t36 -3z" />
    <glyph glyph-name="bracketright" unicode="]" horiz-adv-x="382" 
d="M162 714l-7 -2l-7 -2q-20 -2 -22 -21t0 -29q8 -12 18 -24t24 -6q12 -2 23 -5t25 -1q12 10 14 -4t2 -22q0 -44 -6 -115t-16 -117q-6 -36 -16 -72t-16 -76q0 -18 -4 -49t-8 -43q-2 -8 -5 -17t-9 -15q-20 0 -49 8t-49 -20q-8 -6 -11 -21t1 -25q20 -26 38 -20t34 4
q20 0 30 -8t28 -26q10 4 22 -6t26 10q16 12 23 26t17 24q-2 34 2 82t8 80q4 22 9 42t7 40q-2 22 7 49t11 53q6 38 11 100t-1 98q-4 26 11 59t-17 53q-22 14 -41 14t-43 -10q-18 16 -33 5t-31 9z" />
    <glyph glyph-name="asciicircum" unicode="^" horiz-adv-x="610" 
d="M266 818q-8 -4 -16 -9t-12 -9q-2 -12 -15 -20t-3 -28q-6 -32 -28 -63l-48 -65q-10 -30 -40 -58t-46 -62q-18 -30 -8 -68t36 -24q18 -6 23 12t17 20q26 12 31 32t19 28q28 42 64 80t58 84q8 -2 25 -23t25 -33l59 -65t55 -63q14 -26 48 -39t60 17q-2 26 -15 50t-27 44
q-18 22 -43 38t-41 42q-32 32 -58 69t-38 75q-14 20 -37 29t-45 9z" />
    <glyph glyph-name="underscore" unicode="_" horiz-adv-x="676" 
d="M556 114q-18 -2 -38 -4t-38 -6q-44 2 -173 -2t-159 -12q-20 -8 -39 -10t-41 -8q-28 -8 -24 -35t20 -37q34 -16 68 -11t60 7q46 12 184 14t160 4q16 8 33 4t37 -2q20 -2 25 46t-75 52z" />
    <glyph glyph-name="grave" unicode="`" horiz-adv-x="314" 
d="M96 804q-24 4 -40 -27t14 -45q10 -32 44 -61t52 -55q18 -14 63 -28t33 66q-14 34 -77 92t-89 58z" />
    <glyph glyph-name="a" unicode="a" horiz-adv-x="502" 
d="M234 578l-17 -11l-17 -11q-34 -4 -72 -37t-58 -71q-16 -26 -21 -55t-9 -57q8 -26 52 -23t38 21q4 22 5 39t15 37q12 28 35 52t53 26l50 -8t30 -16q0 -20 3 -55t-7 -53q-20 -14 -82 -38t-90 -54q-16 -12 -24 -25l-18 -29q4 -20 -5 -39t-3 -41q4 -30 30 -54t54 -34
q26 -16 84 -4t78 14q10 12 24 -1t30 -21q18 -8 43 -1t27 35q-10 10 -21 30t-27 22q-6 16 -1 35t1 39q0 16 -4 27t0 21q4 22 10 44t18 42q4 24 -11 33t-7 23q-2 18 -8 35t2 33l-18 59t-48 47q-20 12 -56 17t-58 7zM308 258q18 -2 10 -28t0 -44q-2 -8 -3 -24t-9 -26
q-8 -8 -25 -4t-35 2q-12 -8 -42 7t-18 27q6 24 56 51t66 39z" />
    <glyph glyph-name="b" unicode="b" horiz-adv-x="532" 
d="M140 598q-14 0 -27 -16t-3 -28q14 -22 10 -57t0 -63l-4 -52t-10 -50q-14 -46 -28 -105t-24 -105q-12 -26 -13 -56t29 -46q16 -8 40 2t26 26q8 22 8 39t12 27q16 -2 31 -20t27 -34t39 -31t51 -9q22 8 51 9t47 25q34 20 55 56t29 68q0 28 3 67t-25 67q-14 12 -26 19t-30 15
q-20 0 -44 6t-46 2q-20 8 -44 19t-48 13q-18 -2 -17 13t-3 27q6 26 1 62t-9 62q-4 20 -23 33t-35 15zM214 306q22 0 43 -10t45 -14q22 -8 41 -5t39 -9q16 -4 15 -35t-11 -49q-10 -20 -29 -44t-39 -34q-16 -10 -25 8t-25 28q-20 16 -44 38t-48 36q0 16 5 42t13 40q2 6 8 4
t12 4z" />
    <glyph glyph-name="c" unicode="c" horiz-adv-x="514" 
d="M296 536l-9 -6l-9 -6q-90 -34 -143 -98t-69 -92q-26 -44 -24 -86t14 -76q20 -16 41 -55t47 -45q22 -4 45 -7t43 1q26 4 45 11l39 15l37 24l37 24q32 20 56 54t24 68q4 16 -15 30t-29 12q-14 14 -37 -4t-15 -36q-8 -22 -36 -55t-56 -37q-18 -2 -35 -15t-35 -7
q-20 -8 -49 28t-31 64q-2 46 55 108t71 72q10 -2 16 10t14 10q18 18 39 9t43 19q8 34 -19 52t-55 14z" />
    <glyph glyph-name="d" unicode="d" horiz-adv-x="602" 
d="M502 690q-4 -4 -13 -5t-13 -15q-2 -34 -10 -91t-6 -91q2 -32 -17 -21t-35 7q-10 -2 -20 -2h-22q-28 -2 -54 -14t-52 -22q-26 -18 -55 -29t-55 -29q-26 -30 -53 -41t-39 -51q-18 -26 -17 -54t3 -50q-4 -22 5 -41t1 -39q2 -18 21 -35t37 -19q28 -6 62 -15t66 -7
q40 20 79 22t81 32q12 10 16 4t2 -20q-4 -8 2 -17t2 -17q22 -34 46 -17t40 37q-2 24 1 49t3 45q-16 20 4 35t22 41q8 16 -4 25t-12 17q4 22 4 24v22q16 38 27 179t13 151q-6 22 -23 37t-37 15zM386 388q12 -8 25 -2t17 -4q14 -2 9 -52t-19 -92q6 -22 -16 -42t-42 -34
q-26 -26 -59 -34t-65 -12q-8 -8 -15 -5t-19 -5q-14 0 -35 8t-29 36q-2 12 -1 56t19 62q34 30 102 65t88 41q10 4 21 9t19 5z" />
    <glyph glyph-name="e" unicode="e" horiz-adv-x="664" 
d="M210 506l-41 -20t-35 -20q-20 -28 -42 -70t-34 -78q6 -12 -6 -27t8 -31q2 -28 17 -57t27 -57q32 -32 54 -60t64 -44q50 -38 100 -23t96 23q32 6 64 23t58 25q14 18 46 34t10 42q-2 14 -17 20t-19 14q-14 16 -22 6t-16 -2q-26 -24 -43 -28t-43 -24q-14 -14 -31 -18
t-37 -14q-20 -2 -39 -8t-39 -8q-16 8 -33 11t-33 15q-20 22 -36 49t-26 53q-6 10 -4 21t-4 23q4 20 -2 34t2 28q16 26 51 55t55 35q30 0 64 1t62 -5q22 -12 42 -17t36 -17q24 -16 42 -31t14 -19q-14 -8 -127 13t-127 23q-38 10 -38 -43t34 -51q22 -12 164 -32t158 -2
q16 -2 26 33t10 49q4 16 -11 50t-31 46q-20 18 -83 56t-87 40q-50 8 -104 7t-94 -23z" />
    <glyph glyph-name="f" unicode="f" horiz-adv-x="517" 
d="M261 656l-7 -3l-7 -3q-40 0 -54 -34t0 -60q-6 -30 4 -78t12 -72q-10 -4 -24 -4t-28 6q-20 -8 -44 -5t-48 -1q-22 -4 -32 -36t22 -40q4 -8 15 -12t19 0q34 0 65 5t59 -3q18 -2 13 -18t3 -28q8 -54 -5 -123t-47 -127q2 -30 24 -32t36 -10q18 -2 38 14t8 36q20 30 33 107
t11 89q10 16 4 34t-8 34q2 26 22 21t34 15q14 2 28 8t28 8q58 28 17 61t-71 27q-20 4 -40 -6t-36 4q-4 24 -12 66t2 56q16 -2 35 -15t43 -1q30 2 26 25t-16 37q-12 2 -20 7t-18 13q-12 34 -39 35t-45 3z" />
    <glyph glyph-name="g" unicode="g" horiz-adv-x="674" 
d="M525 564q-32 -8 -14 -29t12 -31q2 -26 3 -36t-13 -24q-16 12 -65 33t-65 25q-28 10 -41 12t-29 0q-18 6 -39 0t-35 -16q-38 -28 -61 -56t-45 -68q-6 -32 1 -77t23 -77q8 -44 51 -60t73 -16q30 4 69 10t71 22q30 14 3 -49t-35 -73q-16 -14 -38 -28t-42 -16q-24 -10 -48 -6
t-54 6q-8 0 -16 5t-18 1q-14 4 -38 14t-50 14q-14 18 -36 8t-26 -30q-8 -34 81 -71t149 -37q78 0 124 24t58 32q30 20 54 88t36 88l62 119t20 123q10 30 11 51t1 53q6 12 -6 24t-16 22q-20 22 -38 22t-34 4zM305 424q20 2 39 -4t39 -18q12 -6 58 -26t40 -42q-8 -14 -23 -33
t-43 -29q-34 -26 -75 -32l-69 -10q-30 0 -38 42t-16 64q4 10 17 31t15 29q8 10 21 18t35 10z" />
    <glyph glyph-name="h" unicode="h" horiz-adv-x="479" 
d="M109 649q-4 -4 -16 -5t-6 -11q-14 -8 -8 -16t8 -16q-4 -32 -3 -74t1 -72q4 -12 1 -28t-1 -32q10 -24 -9 -18t-31 -2q-34 -16 -23 -45t39 -35q28 0 20 -26t0 -46q6 -40 -3 -82t-7 -88q22 -30 53 -30t45 34q-2 38 7 77t1 81q4 16 0 29t2 27q-4 12 -3 20t7 22q12 -10 17 0
t13 8q16 0 47 4t45 -2q14 4 21 -12t5 -26q-2 -8 -5 -13t-7 -17q-8 -32 -7 -64t-9 -62q4 -18 3 -35t1 -33q-10 -28 14 -52t50 -16q22 2 30 20t0 30q8 58 5 111t25 107q0 12 1 23t-3 25q-14 26 -39 53t-57 31q-14 -2 -49 4t-51 0q-18 -2 -30 -4t-22 4q4 10 -3 17t-1 15
q-8 22 -4 50t0 50q0 30 -9 78t-55 42z" />
    <glyph glyph-name="i" unicode="i" horiz-adv-x="270" 
d="M152 666q-26 -10 -25 -31t3 -33q4 -10 3 -20t1 -24q0 -18 17 -30t27 -12q48 -10 50 30t0 60q2 28 -27 44t-49 16zM120 448q-16 -22 -23 -49t-9 -53q6 -26 -6 -86t-10 -88q-8 -14 -5 -24t-5 -20q-4 -24 -6 -47t-10 -43q-6 -22 13 -47t39 -15q26 -10 41 15t13 45
q10 20 9 39t5 39q4 22 12 116t0 106q8 12 13 22t1 24q16 28 -15 49t-57 17z" />
    <glyph glyph-name="j" unicode="j" horiz-adv-x="414" 
d="M279 656q-32 -16 -19 -36t15 -32q6 -6 -5 -12t3 -16q6 -10 -7 -26t3 -32q24 -20 54 -12t46 34q2 24 3 49t-7 47q-10 42 -38 38t-48 -2zM269 414q-14 -12 -19 -17t-9 -21q-4 -26 -5 -51t-3 -51q-8 -26 -12 -53t-12 -51q6 -14 -4 -31t-4 -37l-8 -52t-14 -50q2 -14 -18 -30
t-28 14q-14 12 -22 29t-36 19q-50 10 -33 -29t31 -57q6 -10 14 -16t18 -6q20 -22 45 -20t45 2q6 2 15 0t17 -4q10 2 24 13t22 25q-2 20 6 43t12 49q4 12 6 21t0 23q0 28 4 53l8 51t9 52t13 50q-8 16 -1 33t-1 37q-10 16 -22 39t-38 23z" />
    <glyph glyph-name="k" unicode="k" horiz-adv-x="622" 
d="M153 696q-20 -2 -31 -17t-17 -29q-14 -30 -18 -59t-10 -57q0 -30 -4 -62l-8 -62q-8 -18 -7 -35t-3 -33q4 -40 -2 -81t-6 -81q2 -10 -1 -21t-3 -23q0 -10 -3 -21t1 -25q-30 -44 10 -53t64 -3q28 30 24 57t0 51q-2 16 3 33t1 37v21t8 15q8 -8 16 -13t16 -9q42 -32 71 -71
t83 -65q24 -8 73 -46t63 -44q14 4 26 6t24 14q30 -2 27 23t-19 37q-44 30 -88 50t-84 50q-46 34 -84 71t-84 67q4 10 22 17t28 9q58 28 113 51t111 39q28 16 78 32t24 66q-16 16 -35 24t-35 -12q-12 -20 -33 -23t-41 -15q-38 -4 -76 -19t-68 -35q-14 -2 -29 -13t-25 -15
q-18 0 -39 -14t-27 6q4 14 3 29t1 27q8 22 10 46t8 44q8 18 14 35t16 33q30 26 -8 48t-50 18z" />
    <glyph glyph-name="l" unicode="l" horiz-adv-x="208" 
d="M104 728q-8 -4 -17 -9t-13 -21q-4 -22 0 -42t2 -40q4 -54 -2 -107t-8 -109q-14 -56 -10 -92t-2 -90q-8 -32 -6 -65t-2 -61q4 -16 -1 -40t27 -40q16 -6 43 -2t25 30q16 22 11 40l-9 32q6 70 12 216t8 184q4 26 4 51t-2 51q2 22 3 52t-27 48q-2 12 -14 12t-22 2z" />
    <glyph glyph-name="m" unicode="m" horiz-adv-x="806" 
d="M106 550q-20 -2 -26 -13t-10 -15q-30 -8 -19 -27t13 -25q-10 -40 -4 -78t-4 -72q-2 -38 -3 -110t3 -102q-2 -36 34 -39t56 21q6 50 2 71t-4 65q2 28 4 64t0 62q-6 16 76 47t106 35q14 0 25 6t13 2q-2 -14 -18 -55t-30 -91t-24 -99t-16 -71q-14 -44 38 -57t66 33
q2 12 6 59t18 99q14 50 32 90t20 46q14 4 26 9t20 7q12 4 24 10t28 16q28 20 61 23t47 -27q10 -20 3 -44t-9 -52q-8 -20 -11 -40t-13 -36q-2 -24 -12 -76t-20 -80q-8 -44 32 -45t60 33q-2 16 16 59t14 73q10 18 22 77t8 83q10 16 6 25t0 17q-4 24 -12 43t-22 35
q-6 14 -22 17t-24 11q-38 12 -72 11t-70 -5q-2 -2 -10 0t-12 -14l-28 -12t-30 -10q-4 -22 -20 -17t-32 15q-14 14 -30 14t-32 6q-20 -8 -36 -10t-38 -6q-14 -6 -29 -10t-27 -2l-29 -16t-25 -12q-2 4 5 18t-3 34q0 10 -10 19t-12 11q-8 -2 -16 1t-20 1z" />
    <glyph glyph-name="n" unicode="n" horiz-adv-x="528" 
d="M100 580l-7 -7l-7 -7q6 -30 0 -62t-4 -66q-2 -32 -12 -66t-6 -70q0 -26 -1 -74t-9 -70q-6 -22 -10 -52t24 -46q10 -18 32 -8t34 28q10 22 11 41t11 39q2 40 3 102t3 100q4 18 10 34t26 16q16 8 78 9t70 -9q22 -6 32 -30t-4 -44l-39 -104l-39 -104q6 -16 -28 -40t-2 -42
q10 -14 27 -22t33 -4q26 -2 35 16t23 32q6 20 12 45t16 45q6 48 41 118t17 120q-2 28 -23 50t-47 36q-18 18 -42 22t-46 2q-20 4 -59 -3t-55 -3q-26 -18 -18 3t4 29q0 34 -31 42t-53 4z" />
    <glyph glyph-name="o" unicode="o" horiz-adv-x="506" 
d="M168 454q-26 -18 -51 -42t-45 -56q-6 -16 -15 -33t-5 -37q-12 -30 0 -63t20 -63q6 -26 29 -51t51 -35q14 -10 25 -7t21 -3q18 4 37 9t33 11q24 4 46 13t42 23q28 0 54 27t34 53q22 44 13 89t-33 83q-6 30 -25 50l-41 44q-12 28 -24 20t-22 6q-10 0 -85 -8t-59 -30z
M266 406q16 2 42 -7t28 -37q18 -30 24 -58t-2 -54q-16 -40 -54 -61t-78 -25l-39 -12t-29 18q-10 22 -15 46t-3 44q4 34 35 76t69 56q4 6 9 8t13 6z" />
    <glyph glyph-name="p" unicode="p" horiz-adv-x="623" 
d="M92 574q-8 -2 -19 -2t-13 -14q-2 -12 -22 -23t2 -33q16 -2 19 -20t11 -34q8 -32 17 -64t5 -60q4 -38 4 -74t-4 -74q0 -14 1 -53t1 -53q0 -12 -9 -26t-9 -28q-20 -26 2 -43t42 -19q44 -14 59 27t17 65q4 12 2 48t0 42q4 10 20 4t28 0q26 -4 50 -6t50 0l53 18t49 30
q22 4 41 25t31 41q4 10 11 18t17 22q18 22 17 37t7 31q8 22 -2 43t-18 41q-22 42 -57 73t-79 33q-22 2 -46 -2l-48 -8q-14 -8 -31 -9t-37 -11q-10 -8 -26 -9t-32 -11q-10 -2 -24 -9t-16 7q0 28 -16 53t-48 27zM396 470q22 10 38 -9t28 -39q28 -32 10 -62t-36 -68
q-14 -4 -18 -12t-14 -10q-2 -10 -14 -17t-22 -11q-42 -32 -87 -20t-89 14q-8 10 -7 27t-3 37q0 28 -3 52t5 46q18 12 38 17t42 19q20 16 43 18t45 10q10 2 21 3t23 5z" />
    <glyph glyph-name="q" unicode="q" horiz-adv-x="494" 
d="M380 634q-8 -8 -20 -15t-16 -23v-22t-2 -12q-16 -6 -35 -4t-43 0q-32 -18 -84 -12t-84 -32q-26 -34 -41 -80t-11 -86q10 -18 10 -39t14 -39q16 -36 50 -50t58 -22q30 0 79 10t77 14q20 10 14 -9t-10 -29q-2 -16 -1 -32t5 -34q0 -22 -9 -77t-17 -85q2 -22 17 -30t31 -12
q22 -2 39 21t11 41q6 24 9 93t1 91q0 34 4 68t18 66q4 16 5 31t-7 29q4 22 6 56t-2 54q2 20 0 37l-4 33q0 16 4 23t4 23q4 32 -22 47t-48 7zM332 488q28 -6 25 -37t-1 -49q-6 -14 -4 -32t-14 -24q-10 -20 -29 -25t-35 -13q-20 -16 -61 -21t-57 9q-8 12 -10 27t-6 29
q12 16 8 43t14 39q18 22 52 33t54 11q16 -6 33 -1t31 11z" />
    <glyph glyph-name="r" unicode="r" horiz-adv-x="459" 
d="M88 558q-8 -2 -14 -4t-12 -6q-14 -2 -18 -21t2 -33q4 -16 2 -37t6 -43q4 -14 5 -33t3 -35q26 -38 29 -78t-1 -78q-12 -32 -6 -64t-2 -60q-14 -38 25 -52t59 12q16 28 16 58t-2 56q2 26 8 51t-2 51q8 34 -5 66t-11 60q-4 10 21 32t37 6q44 10 69 -31t69 -47q14 -10 26 -5
t24 3q32 44 -11 78l-73 56q-14 14 -29 16t-27 10q-14 8 -30 11t-28 13q-28 20 -41 -4t-31 -28q-2 18 -10 49t-48 31z" />
    <glyph glyph-name="s" unicode="s" horiz-adv-x="588" 
d="M350 590q-14 -2 -23 -10t-17 -12q-30 -2 -65 -31t-35 -63q-14 -36 19 -77t65 -57l47 -56t11 -56q-6 -16 -23 -33t-25 -39q-14 -14 -30 -34t-32 -26q-16 -10 -32 -4t-32 14q-54 34 -49 84t59 94q14 26 -4 36t-34 26q-20 4 -37 -2t-29 -28q-40 -58 -42 -131t78 -125
q40 -28 88 -55t92 9q34 16 54 50t40 60q22 16 34 37t22 47q2 16 0 33l-4 35q-24 56 -61 95t-89 77q4 28 37 40t55 14q28 10 55 -21t59 -31q46 16 29 45t-43 53q-20 26 -39 32t-41 6q-14 6 -29 4t-29 0z" />
    <glyph glyph-name="t" unicode="t" horiz-adv-x="660" 
d="M340 590q-14 -8 -21 -14t-19 -26q10 -46 -25 -43t-61 -7q-36 4 -70 -4t-68 -6q-26 8 -31 -17t9 -43q36 -14 71 -13t67 -3q24 -2 47 4t37 -12q0 -22 -5 -47t-13 -53q-2 -40 -12 -58t-22 -64q-8 -26 -18 -50t-24 -52q-16 -14 -11 -30l9 -30q4 -20 26 -28t38 0q22 10 44 9
t48 5q10 4 21 -4t23 4q28 -6 44 24t-14 44q-10 22 -28 19t-28 1q-12 14 -28 4t-28 -8q-16 2 -5 10t13 16q22 62 29 105t29 111q-4 22 0 45t12 41q20 4 39 2t35 -8q16 -4 30 -4t28 -6q16 -4 31 -4t25 4q10 -14 22 -7t14 15q16 2 18 21t-2 31q0 16 -14 22t-24 14q-16 10 -31 1
t-27 -7q-32 4 -63 4t-51 12q16 6 14 22t-8 30q-14 12 -31 22t-41 6z" />
    <glyph glyph-name="u" unicode="u" horiz-adv-x="485" 
d="M350 590q-44 -8 -35 -37t5 -45q4 -20 2 -39t4 -41q0 -48 5 -88t5 -88q-6 -26 1 -51t-19 -47q-24 -14 -72 -18t-74 -2q-38 4 -27 35t9 57q-2 30 8 112t20 110q0 20 5 44t-17 44q-20 20 -43 20t-41 -22q-6 -18 -23 -25t-29 -23q-8 -38 22 -39t26 -17q-2 -22 -11 -74t-7 -68
q4 -40 -14 -85t10 -85q18 -20 51 -48t61 -26q22 -8 69 3t67 7q16 4 23 -11t23 -25q24 -20 53 1t21 49q2 16 5 34t1 36q8 30 0 122t-10 112l-4 45t-2 47q-6 22 -3 49t-19 51q-8 16 -22 17t-24 9z" />
    <glyph glyph-name="v" unicode="v" horiz-adv-x="458" 
d="M81 536q-8 -4 -12 -12t-10 -10q2 -30 8 -56t2 -52q-2 -40 2 -81t6 -81q-8 -20 4 -38t12 -40q6 -12 7 -26t3 -28q0 -20 9 -42t41 -22q16 -8 31 5t23 21q18 36 43 68t31 68q28 46 58 110t68 112q30 18 4 39t-40 13q-18 18 -27 6t-21 -12l-27 -43t-29 -49q-16 -38 -36 -72
t-36 -76q-4 -4 -7 -14t-11 -6q-2 20 -5 35t-3 31q8 10 1 18t-5 16q-2 32 -1 64t3 62q4 18 2 37t-12 35q-14 16 -37 22t-39 -2z" />
    <glyph glyph-name="w" unicode="w" horiz-adv-x="792" 
d="M346 546l-8 -7l-8 -7q-12 -24 -10 -50t-8 -50q-8 -44 -32 -96t-58 -94q-20 28 -34 58t-36 62q-10 22 -32 36t-46 22q-50 0 -29 -35t29 -61q22 -28 37 -59l31 -63q12 -14 8 -28t10 -28q-10 -12 6 -23t6 -23q8 -18 13 -44t37 -36q44 -18 52 22t4 60q4 54 40 115t62 115
q8 14 10 24t8 20q8 -14 9 -39t13 -43q-2 -32 16 -67t20 -69q-8 -32 33 -60t67 14q12 16 24 43l22 51l37 76t43 78q16 34 42 61t18 65q-8 14 -15 21t-21 5q-4 8 -13 10t-19 -2q-10 -20 -30 -40t-30 -42q-26 -44 -43 -94t-41 -90q-8 16 -18 50t-10 56q-12 26 -13 51t-25 51
q-14 16 -31 33t-27 35q-12 4 -27 12t-33 4z" />
    <glyph glyph-name="x" unicode="x" horiz-adv-x="588" 
d="M474 584l-9 -4l-9 -4q-16 -10 -27 -23t-7 -29q-18 -50 -61 -96t-75 -100q-2 -16 -12 -14t-14 16l-63 75t-79 63q-16 20 -44 7t-20 -35q-14 -24 13 -38t41 -28q40 -26 61 -64t49 -70q-18 -36 -44 -71t-54 -69q-26 -20 -6 -47t46 -21q28 4 64 42t52 64q16 42 30 16t30 -34
q34 -32 57 -58t67 -36q16 -2 37 10t7 34q-32 40 -85 82t-75 82q10 22 30 46t30 44q8 18 23 33t31 37q6 16 25 37t21 39q10 16 27 34t7 38q-2 14 -25 33t-39 9z" />
    <glyph glyph-name="y" unicode="y" horiz-adv-x="580" 
d="M492 610q-28 -10 -25 -31t-9 -41l-39 -82l-41 -84q-14 -28 -23 -56t-29 -38q-6 18 -7 49t-5 53q0 34 -7 66t-21 56q-10 16 -37 28t-43 -8q-26 -26 -8 -48t12 -42q10 -30 10 -63t2 -63q6 -52 17 -104t-41 -98q-30 -20 -42 -47t-40 -31q-16 -8 -42 10t-48 20
q-26 14 -15 -29t25 -53q26 -20 60 -42t66 -2q14 10 30 18t30 26q12 10 30 30t28 36q46 56 87 117t75 123q22 30 41 71l39 81q12 40 25 74t11 72q-16 8 -30 27t-36 5z" />
    <glyph glyph-name="z" unicode="z" horiz-adv-x="660" 
d="M492 576q-10 0 -18 -4t-14 -2q-22 -8 -49 -13t-41 -3q-22 -12 -41 -15t-41 -15q-34 -4 -68 -17t-68 -13q-18 -8 -38 -1t-42 3q-32 0 -32 -33t22 -49q16 0 35 -4t35 2q18 -10 35 -7t33 7q30 6 57 12t59 18q16 4 35 11t35 5q4 4 16 10t-2 -10q-34 -28 -115 -111t-109 -121
q-18 -28 -35 -47t-39 -47q-14 -8 -25 -29t-13 -37q20 -50 56 -42t64 22q18 -2 35 6t33 4q30 14 58 9t56 5q34 -2 66 5t62 9q26 16 56 -6t58 26q12 26 -6 48t-46 28q-26 -2 -52 -3t-54 -7q-10 -6 -25 -9t-29 -1q-38 -6 -73 -9t-75 -5q-6 8 -16 -5t-4 3q12 16 22 28t18 24
q52 52 77 74t71 78q20 16 65 73t59 73l14 23t-8 25q0 26 -19 34t-35 0z" />
    <glyph glyph-name="braceleft" unicode="{" horiz-adv-x="436" 
d="M318 818q-6 -8 -17 -15t-21 -11q-18 -2 -22 -20t-12 -32q2 -28 3 -56t-3 -56q4 -20 -6 -40t-2 -42q0 -20 -5 -43t-9 -47q-2 -4 -10 -9t-16 -3q-20 -8 -33 -15t-31 -25q-10 -28 6 -63t50 -45q36 10 19 -10t-23 -30q-30 -52 -51 -103t-33 -105q-4 -16 -22 -21t-36 -21
q-4 -38 29 -55t59 -27q10 4 22 -2t26 14q14 14 26 21t22 19q16 10 46 34t-12 44q-10 12 -38 0t-30 -2q14 48 41 104t67 98q0 16 18 33t8 35q2 10 -26 22t-30 20q-26 10 5 25t45 29q-2 20 -6 39t-6 43q-2 28 10 60t10 66q4 28 6 62t40 44q20 10 19 33t-17 35q-14 4 -28 13
t-32 5z" />
    <glyph glyph-name="bar" unicode="|" horiz-adv-x="519" 
d="M226 700l-5 -6l-5 -6q2 -26 3 -52t5 -52t7 -51t1 -53q2 -14 -2 -31t-2 -35q-8 -40 -15 -110t-17 -110q4 -22 -6 -46t-10 -46q0 -20 -8 -39t-6 -41q4 -28 32 -43t52 15q10 16 19 38t5 42q14 50 25 129l17 125q10 50 11 98t-3 96q0 26 -1 52t-7 52q16 34 -21 58t-69 16z
" />
    <glyph glyph-name="braceright" unicode="}" horiz-adv-x="400" 
d="M280 768q-8 -4 -21 -5t-23 -5q-14 0 -28 -13t-10 -31q2 -8 5 -16t13 -16q22 -8 21 -28t-5 -42q0 -30 -5 -61l-11 -65q-4 -16 -13 -36t-9 -42q-4 -18 24 -18t6 -22q-18 -16 -39 -29t-25 -43q10 -6 6 -15t8 -19q-2 -8 1 -16t-1 -18q2 -38 -6 -77t-22 -79q-14 -16 -60 -22
t-18 -50q12 -24 28 -22t28 -6q18 0 33 8t27 2q18 4 30 21t16 31q-2 22 12 44t16 48q-4 16 0 32t0 36q6 22 -1 46t17 40q14 36 50 66t-4 68q-22 24 -20 48t4 54q8 22 10 45t6 45q0 16 6 28t8 28q4 18 6 38t-14 40q-8 6 -21 17t-25 11z" />
    <glyph glyph-name="asciitilde" unicode="~" horiz-adv-x="712" 
d="M210 454l-6 -3l-6 -3q-24 -2 -51 -11t-49 -37q-8 -8 -15 -17t-15 -25q-28 -20 0 -56t54 -10q-2 12 10 20t18 16q8 20 25 23t33 11q10 10 25 10h29q58 -20 116 -57t120 -23q12 -8 20 1t14 5q20 0 37 5t33 17q22 10 36 25t30 29q4 20 2 36t-24 30q-10 14 -27 14t-31 -2
q-18 -26 -52 -49t-62 -19q-40 -16 -82 9t-86 45q-22 8 -47 14t-49 2z" />
    <glyph glyph-name="uni007F" horiz-adv-x="20" 
 />
    <glyph glyph-name="uniAC00" unicode="&#xac00;" horiz-adv-x="968" 
d="M662 688q-12 -4 -26 -2t-18 -16q0 -22 1 -45t9 -41q-4 -42 -10 -86t-22 -88q2 -18 -20 -40t-14 -44q-20 -32 -25 -67t-31 -71l-15 -37t-15 -39q2 -14 10 -35t28 -27q20 0 34 4t20 30q6 22 38 84t22 78q-2 10 12 26t18 8q10 -6 26 -17t30 -11q16 14 27 0t25 -8
q28 -20 95 24t13 80q-38 -8 -70 -10t-64 -2q-12 -8 -21 -1t-23 5q-6 6 -17 2t-13 4q8 10 6 19t6 17q6 8 23 91t19 103q2 18 -2 31t-14 27q-4 16 -16 34t-26 20zM432 640q-22 -4 -39 -5t-39 -5q-44 -8 -130 -26t-118 -28q-16 -8 -39 -1t-27 -13q2 -26 13 -43t35 -29
q16 -4 122 23t114 27l32 11t40 3q28 10 19 -11t-9 -35q-8 -6 -28 -50t-40 -64q-18 -20 -29 -38t-31 -40q-10 -14 -55 -61t-57 -57q-8 -4 -15 -12t-17 -16q-10 -10 -14 -23t-2 -23q6 -26 28 -28t36 6q22 0 82 63l80 85q16 24 35 47t43 49q26 26 35 55t29 61q2 28 18 52t10 54
q14 36 -22 56t-60 16z" />
    <glyph glyph-name="uniAC01" unicode="&#xac01;" horiz-adv-x="856" 
d="M600 792q-2 -8 -10 -10t-10 -6q-38 -12 -20 -39t14 -47q-8 -16 -10 -33t-6 -33q-8 -30 -9 -58t-11 -56q4 -18 -4 -36t-6 -34q-8 -28 -11 -56t-21 -58q-6 -18 -24 -15t-34 3q-10 6 -21 2t-23 4q-8 2 -17 5t-19 1h-16h-18q-36 20 -49 -20t17 -56q14 -14 25 -5t21 3
q8 4 16 -2t20 -4q14 -4 39 -5t15 -29q-10 -10 -19 -17t-17 -19q-20 -30 -44 -54t-46 -58q-14 -24 -37 -37t-9 -41q2 -16 15 -28t27 -6q32 -4 50 27t44 51l48 50l44 50q26 22 46 51t46 51q16 16 9 34t-11 32q-4 10 8 21t6 23q8 20 7 37t19 29t39 -1t39 -5q14 -8 28 -3t28 1
q14 4 33 7t17 21q18 34 -14 46t-54 14q-14 -6 -28 -3t-28 5q-10 6 -22 3t-18 7q2 20 3 39t-3 39q0 22 13 46t9 46q10 22 8 46t10 46q-10 28 -30 31t-44 3zM94 750q-20 0 -37 -20t5 -42q12 -12 25 -18t31 -6q22 -8 41 -5t39 1q10 6 21 1t23 3q16 -8 30 -4t28 -6q22 -4 11 -19
t-11 -35l-5 -15t-11 -15q-14 -14 -16 -32t-24 -34q-4 -20 -13 -41t-27 -41q-4 -16 -20 -39t-36 -35q-8 -20 -20 -38t14 -36q4 -38 37 -27t47 31q0 28 23 47t33 51q10 22 25 42t19 46q22 28 44 64t28 68q8 24 14 48t2 44q8 24 -21 42t-49 14q-20 -14 -43 -9t-45 7
q-20 -4 -37 -1t-33 -1q-22 8 -45 8t-47 2z" />
    <glyph glyph-name="uniAC02" unicode="&#xac02;" 
 />
    <glyph glyph-name="uniAC03" unicode="&#xac03;" 
 />
    <glyph glyph-name="uniAC04" unicode="&#xac04;" horiz-adv-x="838" 
d="M612 756q-8 -4 -16 -6t-12 -12q-20 -12 -6 -28t16 -26q10 -16 7 -33t5 -35q-4 -12 -7 -57t-9 -61q-8 -34 -17 -67t-19 -65q-2 -14 -31 -74t-51 -86q4 -20 15 -29t19 -21q14 -20 31 -10t27 14q10 2 11 13t3 13q20 28 23 49t21 39q-2 16 7 30t11 28q8 4 23 1t31 -13
q10 2 29 -9t29 15q46 16 24 48t-50 34q-14 10 -27 7t-23 -1q-12 8 -11 18t-1 24l11 37t11 35q-2 14 1 29t1 31q-2 10 -1 24t-5 26q4 18 -7 33t-9 29q4 20 -17 37t-37 19zM56 742q-14 -18 -15 -33t11 -31q2 -48 36 -38t52 6q14 -6 127 -2t135 -8q8 4 12 -6t2 -16
q-2 -22 -11 -48t-19 -52q4 -14 -83 -148t-103 -142q0 -16 -17 -26t-27 -22q-32 -14 -15 -29t25 -25q28 -20 49 -10t41 24q12 2 21 15l13 19q16 10 15 25t7 23q18 16 82 117t68 115q8 24 14 48t16 44q10 22 11 46t1 46q-8 18 -12 36t-14 38q-30 16 -54 17t-50 3q-12 6 -123 1
t-127 -1q-14 6 -31 12t-37 2zM330 160q-20 -8 -24 -25t2 -27q-2 -12 8 -36t12 -32q6 -14 14 -19t10 -19q32 -8 56 -9t50 -1q38 0 76 -3t76 -3q28 0 72 -4t58 46q-8 12 -18 31t-32 19q-14 -2 -27 -5t-25 -7q-14 6 -74 2t-84 -2q-24 10 -42 5t-32 7q4 10 -3 23t-17 25
q-8 10 -23 24t-33 10z" />
    <glyph glyph-name="uniAC05" unicode="&#xac05;" 
 />
    <glyph glyph-name="uniAC06" unicode="&#xac06;" 
 />
    <glyph glyph-name="uniAC07" unicode="&#xac07;" horiz-adv-x="844" 
d="M562 258l17 74t15 56q10 22 15 41t9 39q-4 6 4 16t10 6q12 -6 20 -7t16 -11q18 -8 35 -9t35 -11q22 -8 44 11t10 41q-10 58 -54 51t-76 25q-26 8 -16 27t8 35q2 24 7 50t1 52q4 22 -22 45t-48 11l-5 -7l-5 -7q-6 -14 -7 -24t1 -22q-2 -18 -2 -36t-10 -34q4 -20 -3 -39
t-11 -41q-10 -22 -12 -45t-6 -45q-8 -20 -13 -45t-15 -47q-2 -20 -20 -74t-22 -76q0 -2 -1 -4t-1 -6q-2 0 -4 -1t-6 -1q-34 0 -69 -13t-67 -15q-24 -2 -52 -25t0 -51q16 -8 15 -27t-5 -35q4 -20 -8 -39t-6 -41q0 -44 43 -56t69 -8q34 16 69 19t67 21q24 14 48 17t44 5
q16 4 30 11t28 9q12 4 25 13t9 27q0 20 -22 42t-42 12q-26 18 -46 -5t-42 -17q-28 -4 -54 -17t-50 -17q-18 -2 -34 -14t-30 4q4 20 5 40t5 38q20 16 44 22t44 2q16 2 35 3t35 7q14 4 28 4t28 -2q16 10 34 9t36 5q32 24 -3 62t-63 28q-8 -2 -17 -3t-19 -3zM94 708
q-20 0 -37 -20t7 -40q10 -12 23 -18t29 -6q22 -8 42 -5t40 1q10 6 21 1t23 3q16 -8 30 -4t28 -6q22 -4 11 -21t-11 -33q-14 -8 -11 -20t-13 -22q-2 -14 -17 -31t-19 -39q-2 -20 -21 -42t-21 -44q-16 -14 -26 -35t-34 -33q-2 -14 -9 -29t13 -31q4 -40 37 -28t47 32
q0 28 23 46t33 50q10 24 25 44t19 46q22 28 44 64t28 68q8 22 14 46t2 46q8 24 -21 41t-47 13q-22 -14 -46 -9t-46 7q-18 -6 -35 -2t-33 0q-22 8 -46 8t-46 2z" />
    <glyph glyph-name="uniAC08" unicode="&#xac08;" horiz-adv-x="934" 
d="M662 836q-6 -4 -17 -10t-9 -16q0 -16 4 -34t18 -32q4 -28 -2 -56t-18 -58q4 -12 -5 -23t-7 -23q-18 -44 -45 -90t-49 -96q-6 -20 -21 -34t-17 -30q-12 -12 -3 -23t3 -23q-38 -2 -74 -1t-76 -3h-33t-33 2q28 28 63 55t61 59q8 10 18 18t16 20q22 14 52 71l44 83q8 14 5 26
t3 30q4 22 -11 37t-33 29q-14 0 -30 1t-26 7q-20 -4 -109 11t-107 7q-22 4 -45 -2t-45 -6q-14 0 -35 -9t-25 -21q-2 -8 8 -18t8 -14q10 -2 17 -16t13 -6q14 -10 28 0t28 2q16 6 102 -4t102 -4q16 -14 35 -6t23 -14q-2 -8 -11 -20t-11 -22q-20 -34 -38 -59t-46 -55
q-28 -40 -75 -80l-81 -70q-32 -26 -61 -47t-67 -43q-8 -18 2 -32t16 -32q26 -2 52 3t52 27q14 -2 28 19t28 -1q44 -2 86 -6t86 -4q22 2 45 -1t45 5q52 12 15 -12t-39 -28q-8 -8 -17 -5t-17 -3h-23h-23h-39h-41q-30 -8 -62 -12t-64 -26q4 -28 0 -56t-18 -58q-4 -10 -8 -25
t0 -29q-10 -8 -3 -22t21 -16q12 -2 120 -1t118 7l53 22t3 38q-4 16 -21 29t-33 7q-22 -8 -39 -15t-39 -5q-14 -6 -28 -6t-28 8q-20 -8 -18 9t0 25q4 10 -1 22t9 18h45t45 2q10 0 19 1t17 -3q20 -20 39 -19t39 3q22 14 85 71t81 61q6 14 26 23t6 23q-4 10 -14 23t-8 23
q-2 16 -15 15t-25 1q-24 12 -5 28t11 28q10 18 34 67t30 63q8 8 11 16t13 4q4 -8 11 -16t5 -18q26 -2 50 -24t44 -44q10 0 23 -8t21 -12q10 -6 21 2t19 16q-6 12 -3 23t-7 23q-2 16 -16 28t-30 18q-20 2 -68 46t-42 62q12 16 10 72t-4 76q-6 16 -5 34t-11 36q-2 22 -22 19
t-34 3z" />
    <glyph glyph-name="uniAC09" unicode="&#xac09;" horiz-adv-x="874" 
d="M596 314l16 66t12 48q10 22 15 41t9 41q-4 4 5 16t13 6q10 -4 19 -6t17 -12q16 -8 33 -8t35 -12q22 -8 43 10t11 42q-12 56 -55 48t-75 26q-28 8 -18 28t8 34q2 26 8 51t2 51q2 22 -22 44t-46 10l-5 -6l-5 -6q-6 -12 -7 -23t1 -23q-2 -18 -2 -35t-8 -35q2 -20 -5 -39
t-11 -41q-10 -20 -12 -44t-6 -46q-8 -20 -13 -45t-15 -47q-2 -20 -20 -74t-22 -76q-2 -2 -2 -5v-9q-20 -6 -45 -12t-41 -32q-14 -26 16 -46t52 -18q14 4 28 7t28 7q22 18 24 -1t-6 -29q-14 -26 -20 -52t-28 -48q-4 -28 -23 -49t-25 -49q-6 -8 -5 -25t13 -23t23 -13t23 -5
q16 4 23 17t23 27l31 74l31 74q18 32 31 64t21 62q0 14 5 29t-1 29q0 26 -27 35t-49 7zM250 272q4 2 4 3t2 3q0 28 23 47t33 49q10 26 25 47t21 43q22 28 43 64t27 68q8 22 14 47t2 45q8 22 -20 39t-46 13q-22 -14 -46 -9t-46 7q-16 -4 -34 -1t-34 -1q-20 8 -45 8t-47 2
q-18 0 -34 -18t6 -38q10 -10 23 -17t27 -7q22 -6 42 -4t40 0q12 6 22 1t22 3q16 -6 30 -3t28 -5q26 -8 14 -25t-12 -35q-14 -8 -10 -20t-14 -22q-2 -14 -17 -31t-19 -35q-2 -22 -21 -45t-21 -45q-16 -14 -26 -35t-34 -33q-2 -14 -8 -28t12 -28q0 -8 2 -13t4 -9
q-14 -4 -30 -11t-32 -11q-14 -10 -33 -21t-19 -31q28 -52 70 -36t80 24q14 -26 -13 -30t-41 -22q-18 0 -35 -14t-33 -16l-36 -30t-4 -34q22 -10 13 -30t-7 -36q10 -14 29 -32t33 -10q22 -6 46 3t46 15q10 14 25 10t29 -2q10 6 17 11t17 9q18 16 4 37t-28 33q-20 -2 -38 -5
t-40 -13q-8 2 -22 -3t-18 5q30 30 65 39t69 31q28 14 21 36t5 40q-10 18 2 39t-2 37q-12 24 -32 29t-40 7z" />
    <glyph glyph-name="uniAC0A" unicode="&#xac0a;" horiz-adv-x="866" 
d="M168 286q-8 -2 -16 -7t-18 -1q-14 -2 -34 -7t-12 -31q10 -18 20 -31t30 -25q20 -4 37 3t33 -1q20 14 40 14h40q-2 -20 -22 -38t-36 -24q-20 10 -44 4l-48 -12q-20 -2 -44 -11t-38 -39q-8 -34 -12 -70t4 -66q4 -28 34 -49t56 -13q28 -8 53 -5t51 11q22 6 52 8t38 36
q-4 16 -4 28t-22 20q-22 16 -48 5t-52 -7q-18 4 -40 -2t-38 12q0 14 10 36t32 16q38 28 74 20t74 8q28 16 43 48t23 58q12 14 10 31t0 33q10 26 -10 51t-48 27l-9 -2l-9 -2l-35 -8l-35 -8q2 28 24 47t32 47q10 26 25 46t21 44q22 28 43 64t27 68q8 22 14 46t2 46
q8 22 -20 39t-46 13q-22 -14 -46 -9t-46 7q-16 -6 -34 -2t-34 0q-20 8 -45 8t-47 2q-18 0 -34 -19t6 -37q10 -12 23 -18t27 -6q22 -8 42 -5t40 1q12 6 22 1t22 3q16 -8 30 -4t28 -6q26 -6 14 -24t-12 -34q-14 -8 -10 -20t-14 -22q-2 -14 -17 -31t-19 -37q-2 -20 -21 -43
t-21 -45q-16 -14 -26 -35t-34 -33q-2 -14 -8 -28t12 -28v-3v-3zM488 278q-12 18 -34 26t-38 -16q-8 -30 -5 -58t-5 -56q0 -40 -13 -80t-17 -80q6 -20 29 -48t49 4q40 20 81 36t79 10q12 24 35 40t33 36q-4 30 9 63t13 63q10 28 -13 63t-57 27l-27 -4t-27 -6q8 30 19 79
t17 67q10 22 15 41t9 39q-4 6 5 18t13 6q10 -6 19 -7t17 -11q16 -8 33 -9t35 -11q22 -8 43 10t11 40q-12 56 -55 49t-75 25q-28 10 -18 30t8 34q2 24 8 50t2 52q2 22 -22 44t-46 10l-5 -7l-5 -7q-6 -12 -7 -22t1 -22q-2 -18 -2 -36t-8 -34q2 -20 -5 -39t-11 -41
q-10 -22 -12 -45t-6 -45q-8 -20 -13 -45t-15 -47q-2 -20 -20 -74t-22 -76q-2 -6 -2 -16t2 -20zM592 200q16 -6 11 -26t-11 -36q-22 -24 -46 -26t-46 -16q-22 -2 -12 16t2 32q8 40 42 41t60 15z" />
    <glyph glyph-name="uniAC0B" unicode="&#xac0b;" 
 />
    <glyph glyph-name="uniAC0C" unicode="&#xac0c;" 
 />
    <glyph glyph-name="uniAC0D" unicode="&#xac0d;" 
 />
    <glyph glyph-name="uniAC0E" unicode="&#xac0e;" 
 />
    <glyph glyph-name="uniAC0F" unicode="&#xac0f;" 
 />
    <glyph glyph-name="uniAC10" unicode="&#xac10;" horiz-adv-x="906" 
d="M678 800q-24 -8 -19 -23t3 -31q-2 -28 -13 -54t-17 -50l-21 -58t-27 -56q-20 -24 -24 -43t-26 -47q0 -16 -30 -59t-32 -59q-24 -18 -32 -34t-30 -28q-14 -26 -41 -22t-47 6q-12 8 -23 0t-21 -20q-18 -20 -14 -32t-10 -38q0 -12 -4 -24t-2 -24q-2 -40 -21 -82t33 -72
q20 -6 45 7t51 3q20 8 40 5t36 5q18 2 37 -13t25 -21q22 4 46 5t36 21q28 10 45 57t21 55q22 40 37 82t-25 70q-10 22 -33 18t-45 -2q-4 10 -15 14l-11 4q8 30 38 63t32 61q10 18 23 37t41 9q24 -20 42 -22t56 -16q22 -8 29 -10t21 -12q12 4 23 19t11 29q-8 22 -17 44
t-39 22q-20 16 -40 15t-44 3q-50 2 -40 31t14 47q16 14 19 34t9 40q8 20 12 37t12 37q4 12 -1 28t-13 26q-16 16 -34 19t-26 -1zM152 690q-14 -2 -27 -2t-29 2q-14 10 -34 3t-22 -29q4 -54 45 -53t75 -7q28 8 59 5t59 -1q16 0 57 -1t49 -15q0 -24 -8 -43t-20 -37
q-14 -12 -95 -102t-93 -102q-8 -12 -17 -22t-13 -24q-8 -14 4 -22t26 -28q10 -8 25 8t31 24q34 24 79 63l77 69q32 26 49 68t37 74q6 16 9 36t17 40q10 16 12 31t-10 29l-11 19t-23 11q-26 4 -147 6t-161 0zM376 160q30 -2 58 -7t56 -9q14 2 26 3t26 9q6 -6 22 -8t4 -18
q-8 -18 -19 -39t-37 -37q-20 8 -43 8t-43 -8q-22 -2 -47 -6t-51 8q12 14 8 25t4 31q4 10 6 37t30 11z" />
    <glyph glyph-name="uniAC11" unicode="&#xac11;" horiz-adv-x="796" 
d="M626 796q-20 -2 -23 -27t-5 -47q-14 -20 -13 -47t-13 -49q-6 -28 -14 -58t-20 -58q-2 -30 -21 -56t-17 -54q-8 -26 -24 -55t-44 -61q-2 -28 27 -35t53 -1q28 16 44 48t24 56q12 36 31 24t33 -10q22 -10 51 -16t37 20q24 38 -19 55t-71 31q-24 12 -15 38t11 42
q-10 16 18 67t16 65q14 24 18 44t-10 46q0 16 -20 32t-34 6zM220 720q-44 -8 -90 -18t-86 -34q-4 -4 2 -12t8 -18q4 -8 18 -17t18 -7q12 4 22 0t18 0q22 16 49 21t49 3q10 0 70 2t74 -14q30 -2 15 -27t-13 -31q-8 -18 -21 -42t-29 -44q-26 -56 -98 -132t-110 -86
q-20 4 -39 -14t-5 -36q0 -28 30 -30t50 -6q8 2 15 11t17 5q12 16 32 23t24 27q12 20 18 -11t2 -35l-21 -36t-19 -38q-4 -12 -13 -37t-7 -39q0 -16 -16 -49t4 -43q6 -20 25 -23t37 -1q10 4 20 9t20 5q26 0 51 4t49 6q52 16 99 16t97 -2q20 -12 41 0t47 4q28 -14 34 14t-2 42
q-14 10 -19 22t-25 14q2 30 24 66t16 62q16 16 19 34t11 36q4 10 -6 32t-32 16q-14 2 -31 3t-19 -15q0 -16 -9 -28t-7 -24q-8 -14 -13 -32t-23 -28q-38 10 -77 10t-77 2q-18 -2 -34 3t-30 -3q-34 -2 -37 25t-25 31q-20 2 -13 17t3 21q36 52 73 94t65 90l25 57t17 51
q0 10 1 20t-3 18q2 18 -8 37t-26 33q-16 10 -40 14t-44 0q-34 18 -69 13t-73 -1zM326 122q58 -2 117 -1t117 -3q36 -36 20 -51t-32 -17q-44 -2 -116 -5t-114 -13q-26 16 -13 45t21 45z" />
    <glyph glyph-name="uniAC12" unicode="&#xac12;" horiz-adv-x="846" 
d="M486 236q-8 -16 -13 -37t-7 -39q0 -14 -6 -29t-10 -29q-14 -10 -14 -36t-24 -2q2 28 -1 57t9 57q16 14 1 34t-5 40q10 28 -5 56t-49 36q-10 2 -24 -11t-18 -25q-2 -20 -3 -41t-17 -35q-22 -8 -49 -14t-53 -14l-29 -13t-25 1q8 30 9 59t-27 43q-6 16 -36 -10t-22 -36
q-2 -22 -1 -45t-3 -45q-12 -40 -11 -81t-11 -81q-2 -24 -1 -51t27 -45q14 -2 23 -3t17 7q40 -2 76 10t72 14l53 19t51 13q28 12 29 -12t21 -32q10 -2 15 -7t15 -3q22 10 38 39t22 49q4 44 25 16t23 -36q14 -32 39 -59t59 -19q22 8 18 27t-6 33q-28 46 -59 85t-39 83
q-20 12 -13 27t9 29q8 26 14 51t2 51q4 8 2 16t-8 16q8 32 16 68t12 50q10 22 15 41l11 41q-6 4 3 16t15 6q10 -4 19 -6t17 -12q16 -6 33 -7t33 -13q24 -8 45 10t9 42q-12 56 -55 48t-75 26q-28 8 -17 28t9 34q2 26 7 52t1 52q2 20 -21 42t-45 10l-5 -6l-5 -6q-6 -12 -7 -23
t1 -23q-2 -18 -2 -35t-10 -33q2 -20 -5 -40t-11 -42q-8 -20 -10 -44t-8 -46q-8 -20 -12 -44t-14 -46q-2 -20 -20 -75t-22 -75q-4 -8 -1 -24t7 -26q4 -6 7 -10t5 -8zM322 142q6 -18 1 -36t-9 -34q6 -24 -15 -29t-35 -13q-20 -8 -37 -8t-33 -6q-14 0 -41 -10t-17 28
q10 14 2 29t20 23q40 14 82 31t82 25zM98 752q-18 0 -34 -19t4 -37q12 -12 25 -19t27 -7q22 -6 41 -4t39 0q12 6 23 1t23 3q16 -6 30 -3t28 -5q26 -8 14 -25t-12 -33q-14 -8 -10 -21t-14 -23q-4 -14 -18 -31t-18 -35q-2 -22 -21 -45t-23 -45q-16 -14 -25 -35t-35 -33
q-2 -14 -8 -28t12 -28q4 -38 36 -27t46 29q0 28 23 47t33 51q10 24 25 45t19 43q22 28 44 64t28 68q8 22 14 47t2 45q6 22 -21 39t-47 13q-20 -14 -44 -9t-48 7q-16 -4 -33 -1t-33 -1q-22 10 -46 9t-46 3z" />
    <glyph glyph-name="uniAC13" unicode="&#xac13;" horiz-adv-x="824" 
d="M550 158q22 12 30 40t20 42q12 20 19 44t15 46q4 24 25 14t35 -8q14 -2 28 -1t28 9q34 36 -7 61t-69 27q-10 34 5 69t9 69q-4 36 5 73t5 75q8 30 -19 61t-61 31q-28 -26 -16 -57t0 -59q2 -38 -2 -78t-10 -80q-8 -68 -31 -137t-57 -137q-2 -18 -15 -37t-11 -37
q-6 -10 -8 -22l-4 -24q-26 -32 -63 -48t-69 -26q-28 -8 -24 -26t8 -34q28 -20 56 -13t58 27q14 4 28 12t28 6q16 -20 34 -58t50 -48q16 -8 34 -4t18 28q-12 52 -36 101t-36 99zM80 618q14 -8 28 -1t28 5q36 -2 70 -2h68h52t50 -14q14 8 20 -7t2 -23q-2 -32 -12 -60l-20 -56
q-8 -18 -78 -137t-86 -139q-22 -26 15 -46t51 -6q18 16 31 37t21 39q18 22 62 96t50 88q8 24 20 50t22 52t13 61t3 61q-8 20 -16 37l-18 37q-28 16 -58 13t-58 -1q-12 6 -89 5t-117 1q-20 4 -39 -4t-39 -2q-16 8 -7 -36t31 -48z" />
    <glyph glyph-name="uniAC14" unicode="&#xac14;" horiz-adv-x="878" 
d="M678 740q-34 -6 -20 -24t4 -34q-6 -14 -8 -25t-10 -23q-2 -16 -47 -113t-49 -107q-8 -14 -11 -29t-13 -27q-12 -26 -23 -53t7 -49q4 -14 19 -20t15 -24q-16 -24 -41 -36l-47 -22q-12 16 -31 28t-5 32q14 14 24 26t2 26q-6 22 -33 41t-49 -1q-2 -22 -9 -41t-21 -41
q-8 -16 -76 -58t-82 -46q-8 6 -17 -5t-13 -15q-22 -20 3 -39t43 -17q12 4 23 2t25 4q26 2 58 32t62 46q16 10 22 -6t-10 -20q-22 -8 -17 -28t25 -26q16 -10 34 -4t34 8q8 -20 27 -40t41 -18q22 8 30 34t-8 46q-32 16 -10 27t34 21q16 24 34 7t32 -27q6 -22 22 -47t32 -43
q14 -18 28 -15t28 7q28 16 9 45t-29 49q-8 10 -61 83t-63 93q12 22 13 41t15 39q16 14 25 45t41 11q22 6 46 -3t44 -11q32 -20 47 11t1 51q-4 18 -21 23t-29 3q-20 6 -40 6t-40 8q4 14 28 78t26 82q10 14 -3 29t-7 29q-8 18 -26 18t-34 6zM138 734q-14 -8 -29 -4t-29 6
q-20 -2 -30 -15t-8 -33q10 -26 39 -36t53 -6q16 0 33 4t35 4q30 -8 107 -17t99 -15q30 -8 23 -31t-13 -39q-4 -22 -17 -36t-19 -36q-20 -30 -48 -58t-50 -56q-26 -14 -51 -39l-49 -49l-27 -27t-29 -23q-30 -14 -19 -34t25 -34q12 -14 23 -12t21 2l127 117t113 107
q10 14 20 21t14 25q22 24 46 78t20 68q8 22 8 44t-4 44q-2 14 -15 32t-33 14q-30 22 -96 25t-82 9q-40 -2 -80 -3t-78 3z" />
    <glyph glyph-name="uniAC15" unicode="&#xac15;" horiz-adv-x="890" 
d="M684 744l-7 -7l-7 -7q4 -18 -20 -99t-32 -101t-13 -39t-15 -41q-4 -20 -5 -39t-19 -41q-6 -28 -25 -23t-33 -1q-22 -10 -57 -20t-85 -44q-14 -10 -38 -56t-34 -62q-28 -40 -19 -74t47 -56q8 -14 32 -28t46 -8q10 -2 76 4t82 24l57 48t31 54q2 14 8 29t6 29q12 22 -3 78
t-19 66q8 16 19 45t37 25l35 -27t21 -37q12 -44 56 -31t30 57q-2 16 -18 32t-32 34q-20 24 -40 32t-36 34q6 16 25 97t15 95q6 12 6 30t-20 14q-8 20 -23 16t-29 -2zM166 696q-16 -4 -33 -4h-35q-8 -6 -16 -4t-18 -2q-4 4 -11 -5t-11 -7q-2 -32 36 -48t64 -16l45 -4t47 4
q14 8 77 2t71 -2q16 -12 35 -8t23 -18q-14 -24 -33 -47t-41 -45q-50 -54 -88 -87l-94 -85q-24 -32 -56 -28t-48 -34q0 -16 11 -31t31 -19q16 -14 28 -6t26 16q34 28 73 49t73 47q10 16 76 85t80 79q4 18 18 32t28 32q22 22 27 42t3 44q-14 12 -31 31t-33 15q-14 0 -25 6
t-23 8q-20 -2 -125 8t-151 0zM520 264q18 12 47 -10t15 -42q-4 -24 -18 -52t-36 -48q-22 -36 -57 -32t-63 -4q-8 -2 -16 6t-16 4q-26 26 0 55t36 57l51 39t57 27z" />
    <glyph glyph-name="uniAC16" unicode="&#xac16;" horiz-adv-x="850" 
d="M638 798l-5 -7l-5 -7q-22 -8 -17 -34t3 -42q4 -12 5 -27t1 -31q-8 -20 -10 -40t-6 -38q-4 -20 -7 -44t-13 -46q2 -14 -5 -27l-15 -29q-14 -30 -31 -50t-41 -30q-42 -2 -65 -5t-65 -7q-38 -10 -80 -2t-82 -34q2 -14 5 -31t23 -21q70 -2 121 6t121 -2q16 -14 47 -1t3 -27
q-24 -28 -129 -129t-115 -119q-2 -8 -8 -14t0 -16q0 -40 28 -34t44 2q18 2 30 12t24 30l35 34t37 42q10 8 17 17t9 7q16 -18 40 -39t40 -43q22 -4 37 -29t45 -15q58 22 30 61t-46 55q-14 4 -17 20t-17 20q-2 18 -22 25t-24 23q10 14 26 21t28 29q14 8 24 23t24 21
q16 20 15 40t-19 34q-10 26 -24 20t-20 -4q4 12 20 30t20 32q4 4 6 14t4 14q12 4 11 13t5 11q16 6 26 -11t26 -21q14 -8 28 -5t26 17q26 10 20 27t-16 31q-8 18 -22 23t-24 13q-16 16 -29 14t-17 14q4 20 15 79t7 81q-2 18 -8 40t-18 38q6 22 -18 26t-36 2zM234 754
q-14 -10 -32 -10t-34 -10q-16 14 -35 -2t-17 -38q4 -16 16 -31t30 -13q28 -12 52 7t48 9q14 4 79 -7t91 -15q18 4 13 -10t-15 -16q-46 -48 -95 -75t-95 -67q-14 -2 -69 -37t-75 -39q-12 -10 -34 -25t-14 -37q0 -18 16 -24t28 -8q70 28 135 65l127 75q28 14 101 75t83 65
q26 14 30 30t22 28q6 16 -2 34t-14 30q-14 4 -31 15t-39 -5q-8 0 -21 4t-25 4q-20 18 -113 25t-111 3z" />
    <glyph glyph-name="uniAC17" unicode="&#xac17;" horiz-adv-x="838" 
d="M458 272q0 2 -1 2h-3q-8 4 -24 -2t-8 14q8 8 7 20t-5 22q0 34 -32 45t-54 9q-14 -2 -21 -19t-1 -29q16 -20 3 -44t-23 -46q-30 -16 -56 -25t-56 -23q-52 -8 -30 -49t54 -33q24 4 46 12t44 20q14 4 29 13t25 -7q-8 -16 -23 -21t-29 -19q-48 -32 -97 -56t-95 -60
q-14 -14 -4 -37t28 -37q14 0 30 -4t24 16q22 22 57 41l63 33q10 6 22 15t20 9q38 -26 75 -48t69 -48q16 -14 31 -14t25 4q24 -2 26 20t2 36q-16 22 -38 34t-44 20q-20 8 -38 26t-34 28q12 14 21 28t17 22q14 20 37 35t21 39q8 4 16 12t16 18q4 22 17 81t21 81q10 20 15 40
t9 40q-4 6 5 18t13 6q10 -6 19 -7t17 -11q16 -8 33 -9t35 -11q22 -8 43 10t9 40q-10 56 -53 49t-77 25q-28 10 -17 30t9 34q2 24 7 50t1 52q4 22 -20 44t-46 10l-5 -7l-5 -7q-6 -12 -7 -22t1 -22q-2 -18 -2 -36t-10 -34q4 -20 -3 -39t-11 -41q-10 -22 -12 -45t-6 -45
q-8 -22 -13 -46t-15 -46q-2 -20 -20 -74t-22 -76v-1t-2 -3zM90 724q-18 0 -34 -19t6 -37q10 -12 23 -18t27 -6q22 -8 42 -5t40 1q10 6 21 1t23 3q16 -8 30 -4t28 -6q26 -6 14 -24t-12 -34q-14 -8 -10 -20t-14 -22q-2 -14 -17 -31t-19 -37q-2 -20 -21 -44t-21 -46
q-16 -12 -26 -33t-34 -33q-2 -14 -9 -28t13 -28q4 -38 35 -27t45 29q0 28 23 47t33 49q10 26 25 46t19 44q22 28 44 64t28 68q8 22 14 46t2 46q8 22 -20 39t-46 13q-22 -14 -46 -9t-46 7q-18 -6 -35 -2t-33 -2q-22 10 -46 10t-46 2z" />
    <glyph glyph-name="uniAC18" unicode="&#xac18;" 
 />
    <glyph glyph-name="uniAC19" unicode="&#xac19;" horiz-adv-x="868" 
d="M680 818q-8 -4 -14 -5t-14 -7q-4 -20 -7 -45t-19 -47q6 -10 -6 -21t-8 -23q-14 -24 -17 -52t-29 -46q-40 -8 -31 -37t3 -53q-4 -12 -11 -24t-11 -28q-18 -10 -23 -33t-29 -37q6 -10 2 -21t0 -23q-16 -20 -36 -17t-40 -7q-30 12 -49 -14t-33 -52q0 -16 15 -25t5 -27
q0 -16 -4 -33t-4 -35q-6 -22 -19 -38t-15 -38q-20 -14 -11 -28t-1 -30q-2 -16 7 -26t23 -20q14 -14 28 -1t28 7q22 20 46 17t46 5q30 4 62 -2t62 -4q14 -2 22 7t8 19q14 14 4 30t-26 18q-46 6 -91 2t-91 -4q-42 4 -17 30t43 12q28 -14 57 -8t59 2q24 4 56 -2t48 24
q0 10 -1 18t-5 16q-40 32 -81 26t-81 -2q-14 -2 -28 3t-28 5q-30 -2 -25 19t-1 35q6 22 29 19t39 3q46 4 88 7t86 7q14 -12 29 -9t25 21q-6 20 -18 48t-36 24q-20 12 -48 -6t-28 18q10 30 23 62t27 62q20 18 40 13t40 -7q28 10 57 -5t57 5q20 14 13 29t-15 29q-32 36 -67 37
t-69 -1q-14 2 -3 12t5 16q10 16 16 38t16 40q-2 34 16 69t0 67q10 22 -10 21t-30 1zM184 762q-16 -8 -34 -4t-38 -8q-32 10 -52 -31t14 -63q12 4 23 11t25 5q62 10 124 1t124 -1q22 8 21 -7t-3 -25q-14 -26 -23 -51t-23 -51q-4 -22 -21 -46t-17 -46q-8 -36 -28 -74t-46 -72
q-12 -12 -28 -25t-28 -29q-2 -14 -3 -30t7 -26q22 -12 46 -8t44 22q22 28 33 57t33 57q18 28 26 57t26 57q10 14 14 29t6 25q24 40 42 81t22 81q18 16 14 33t-2 33q-12 18 -21 26t-25 20h-126t-126 2z" />
    <glyph glyph-name="uniAC1A" unicode="&#xac1a;" horiz-adv-x="838" 
d="M458 266q-8 -2 -18 -4t-20 -6q-40 0 -80 -10t-80 -16q-18 -6 -35 -9t-31 -9q-26 -6 -19 -30t21 -34l31 -17t35 -1l12 4t8 -2q6 -30 19 -58t15 -56q-14 0 -28 -4t-28 -4q-14 6 -24 0t-22 2q-14 -8 -28 0t-28 12q-30 4 -24 -17t8 -35q6 -24 26 -35t38 -9q44 -2 86 -2t84 2
q16 -2 31 1t29 5q46 -4 91 -7t89 -1q16 4 30 -1t28 3q14 -4 28 7t10 25q-2 24 -25 39t-39 17l-29 -4t-29 0q-12 4 -29 4t-9 20q-6 36 -5 75t27 71q16 4 33 10t37 10q22 22 50 9t46 19q18 28 -22 54t-64 14l-9 -2l-9 -2q-20 -8 -39 -9t-39 -3l17 70t13 50q10 20 15 40t9 40
q-4 4 5 17t13 5q10 -4 19 -6t17 -12q16 -6 33 -7t35 -13q22 -8 43 10t9 42q-10 56 -53 49t-77 25q-28 10 -17 29t9 33q2 26 7 52t1 52q4 20 -20 43t-46 11l-5 -7l-5 -7q-6 -12 -7 -23t1 -21q-2 -20 -2 -37t-10 -33q4 -20 -3 -39t-11 -41q-10 -22 -12 -45t-6 -45
q-8 -22 -13 -46t-15 -46q-2 -20 -20 -75t-22 -75v-2zM442 166q32 -2 16 -25t-2 -39q-2 -22 6 -60t-38 -24q-6 2 -16 0t-14 10q-4 28 -9 57t-13 57q14 20 34 17t36 7zM90 720q-18 0 -34 -19t6 -37q10 -12 23 -18t27 -6q22 -8 42 -6t40 0q10 8 21 3t23 3q16 -8 30 -4t28 -6
q26 -6 14 -24t-12 -34q-14 -8 -10 -20t-14 -22q-2 -14 -17 -32t-19 -36q-2 -22 -21 -45t-21 -45q-16 -14 -26 -35t-34 -31q-2 -14 -9 -28t13 -28q4 -38 35 -28t45 30q0 28 23 47t33 49q10 26 25 46t19 44q22 28 44 64t28 68q8 22 14 46t2 46q8 22 -20 38t-46 12
q-22 -12 -46 -8t-46 6q-18 -4 -35 0t-33 -2q-22 10 -46 10t-46 2z" />
    <glyph glyph-name="uniAC1B" unicode="&#xac1b;" horiz-adv-x="838" 
d="M556 294l17 75t15 57q10 22 15 41t9 41q-4 4 5 16t13 6q10 -6 19 -7t17 -11q16 -8 33 -8t35 -12q22 -8 43 10t9 40q-10 56 -53 49t-77 25q-28 10 -17 30t9 34q2 26 7 51t1 51q4 22 -20 44t-46 10l-5 -7l-5 -7q-6 -10 -7 -21t1 -23q-2 -18 -2 -35t-10 -35q4 -20 -3 -39
t-11 -41q-10 -22 -12 -45t-6 -45q-8 -20 -13 -45t-15 -47q-2 -20 -20 -73t-22 -75q-14 0 -27 -2t-27 -10q-28 -2 -40 -29t20 -43q46 -8 90 4t92 20q4 12 1 28t-13 28zM590 214q-42 -6 -85 -15t-85 -13q-36 -2 -70 -5t-68 -1q-20 -2 -44 -5t-46 -17q-22 -16 -7 -30t31 -26
q14 -8 30 -6t24 -10q-16 -16 -48 -39t-24 -47q-2 -38 36 -69t72 -33q34 2 73 17t71 33l78 61t28 77q-20 16 -8 33t30 17q26 2 34 34t-22 44zM404 90q16 8 43 -9t-15 -39l-67 -43t-69 -13q-14 16 7 33t33 25q20 12 34 23t34 23zM90 744q-18 0 -34 -18t6 -38q10 -12 23 -18
t27 -6q22 -8 42 -5t40 1q10 6 21 1t23 3q16 -8 30 -4t28 -6q26 -6 14 -23t-12 -35q-14 -8 -10 -20t-14 -22q-2 -14 -17 -31t-19 -37q-2 -20 -21 -43t-21 -45q-16 -14 -26 -35t-34 -33q-2 -14 -9 -28t13 -28q4 -38 35 -27t45 29q0 28 23 47t33 49q10 26 25 46t19 44
q22 28 44 64t28 68q8 22 14 47t2 45q8 22 -20 39t-46 13q-22 -14 -46 -9t-46 7q-18 -6 -35 -2t-33 0q-22 8 -46 8t-46 2z" />
    <glyph glyph-name="uniAC1C" unicode="&#xac1c;" horiz-adv-x="1060" 
d="M898 698l-8 -3l-8 -3q-34 -4 -31 -27t7 -41q-2 -8 3 -17t1 -17q10 -26 4 -51t-10 -53q4 -18 -12 -23t-28 -5q-8 -2 -17 -4t-17 0q-16 -2 -35 -7t-35 -3q-20 -2 -12 16t12 26q10 14 8 30t6 28q8 10 6 25t-10 29q-10 6 -4 12t-6 8q-8 26 -23 25t-29 5q-14 -22 -10 -41
t0 -39q-8 -18 -8 -35t-14 -35q-2 -12 -8 -23t-6 -21q-8 -8 -7 -20t-9 -22q-12 -16 -10 -34t-8 -34q2 -18 -2 -35t-10 -33q-6 -26 -20 -52t-20 -50q-14 -16 -1 -28t15 -28q10 -10 22 -14t20 -4l23 31t5 33q28 28 33 56t13 58q-2 34 31 59t63 27q14 -2 28 4t28 0q30 2 12 -9
t-4 -23q-12 -14 -11 -28t-5 -28q-12 -20 -15 -40t-13 -40q-6 -38 -41 -79t-3 -81q18 8 36 6t34 10l24 28t14 28q4 20 9 37t11 33q0 20 13 40t15 40q10 22 11 41t15 39q-2 14 2 22t14 22q8 4 16 -5t16 -5q62 -8 49 40t-57 56q-14 8 -10 16t-2 16q8 16 10 30l4 28q-8 14 -7 28
t-7 28q4 22 -4 49t-36 31zM262 616q-26 -2 -49 -4t-47 -12q-16 -10 -34 -8t-36 -8q-38 -8 -47 -41t3 -57q12 -2 22 2t22 -2q16 10 30 12t28 12q34 4 69 13t69 9q10 8 83 -1t97 -13q24 -2 9 -14t-15 -20q-26 -26 -115 -107t-101 -97q-20 -6 -42 -27t-42 -27q-12 -2 -15 -7
t-15 -7q-18 -6 -18 -25t2 -35q-2 -12 12 -27t24 -19q10 4 67 42t71 52q22 28 54 46t52 50l77 69l63 59q20 10 22 23t16 25q4 24 9 50t-9 52q-44 40 -94 32t-96 4q-32 10 -64 7t-62 -1z" />
    <glyph glyph-name="uniAC1D" unicode="&#xac1d;" horiz-adv-x="948" 
d="M844 840q-20 -16 -25 -42t-9 -50q-14 -20 -17 -44t-19 -46q-10 -38 -36 -35t-50 -5q-18 4 -42 0t-30 16q2 16 23 70t17 64q-2 22 -28 48t-48 -2q-14 -48 -33 -93t-43 -91q-22 -26 -39 -62t-43 -70q-2 -22 -25 -45t-9 -45q-2 -32 34 -35t50 15q2 20 20 34t22 34
q10 24 24 43t34 37q28 -2 52 -2h52q48 -2 14 -24t-30 -42q-26 -26 -37 -60t-45 -58q-26 0 -181 -6t-171 -22q-18 -16 -6 -36t26 -40q20 -2 153 4t153 8q0 -8 5 -16t-5 -18q-6 -14 -72 -125t-70 -127q-34 -20 -16 -52t44 -18q26 -14 43 15t23 45q14 22 77 136t61 126
q-8 12 10 23t14 25q4 10 6 16t10 12q-6 22 40 94t66 86q10 12 17 18t11 18q12 22 22 7t22 1q22 2 26 22t2 34q-8 14 -18 29t-14 25q18 24 19 48t15 44q18 22 12 46t-14 46q0 12 -15 19t-29 3zM68 792q-28 -14 -28 -40t18 -38q8 -6 27 -19t35 3q46 -2 96 0t96 -8q14 4 35 -12
t-1 -34q-24 -42 -69 -82t-77 -84q-34 -46 -72 -85t-52 -85q-24 -38 13 -44t53 14q10 2 10 9t2 11q28 18 146 156t132 152q-6 10 6 21t6 25q-2 16 11 28t5 26l-38 44t-44 20q-26 -8 -52 -4t-52 4q-38 8 -74 4t-74 8q-14 -6 -29 3t-29 7z" />
    <glyph glyph-name="uniAC1E" unicode="&#xac1e;" 
 />
    <glyph glyph-name="uniAC1F" unicode="&#xac1f;" 
 />
    <glyph glyph-name="uniAC20" unicode="&#xac20;" horiz-adv-x="980" 
d="M56 738q-14 -16 -15 -33t9 -33q4 -44 37 -34t51 6q16 -6 29 0t23 4q30 -2 60 -2h60h45t43 -12q10 4 16 -8t4 -18q-6 -26 -14 -49t-18 -49l-70 -120t-74 -122l-49 -56t-35 -46q-24 -6 -11 -21t15 -25q30 -20 46 -10t34 24q10 2 32 37t34 47q16 16 27 34l19 32q16 20 54 86
t44 78q6 22 17 44t21 46t12 54t2 54q-8 18 -14 34t-16 34q-26 16 -54 12t-50 -2q-12 6 -80 4t-102 0q-20 6 -37 0t-33 -4q-14 8 -30 13t-32 1zM876 770q-22 -20 -30 -43t-22 -43q0 -26 -14 -51t-18 -51q-12 -32 -41 -33t-57 -5q-28 -2 -12 17t14 35q8 16 13 36t11 38
q12 26 -13 49t-51 19q-14 -14 -20 -35t-12 -33l-33 -103t-39 -107q-22 -32 -38 -84t-28 -84q-8 -18 -9 -44t27 -30q16 -2 32 6t32 12q16 16 25 54t17 54q6 24 15 51t21 43q26 10 49 9t47 1q4 -6 -3 -18t-7 -28q-8 -32 -28 -104t-24 -106q-8 -14 3 -34t33 -24q6 -2 14 -3
t16 3q20 20 25 42t13 42q0 14 19 70t19 72q4 12 6 25t8 23q8 20 33 105t29 105q4 18 14 35t10 33q6 10 12 22t-4 24q0 26 -18 32t-36 6zM414 234q-32 -8 -28 -33t2 -41q4 -32 3 -69t13 -71q4 -32 31 -48t53 4q10 -2 21 0t19 4q18 10 34 12t36 10q34 14 66 22t64 14
q26 10 55 15t55 7q18 18 16 44t-30 36q-58 -4 -110 -16t-110 -24q-26 -2 -51 -14t-51 -18q-18 -10 -26 12t-4 34q-8 18 -1 40t-13 42q-8 16 -19 26t-25 12z" />
    <glyph glyph-name="uniAC21" unicode="&#xac21;" 
 />
    <glyph glyph-name="uniAC22" unicode="&#xac22;" 
 />
    <glyph glyph-name="uniAC23" unicode="&#xac23;" 
 />
    <glyph glyph-name="uniAC24" unicode="&#xac24;" horiz-adv-x="812" 
d="M666 320q2 4 2 6v4q14 42 28 125l22 127q10 20 7 40t5 36q0 34 7 65t11 61q24 30 -5 56t-55 16q-20 -38 -33 -93l-23 -95q-8 2 -20 6t-22 6q-2 20 5 52t-3 52q-2 28 -29 35t-35 -13q-18 -20 -21 -43t-9 -45q-8 -40 -15 -80t-13 -80q0 -18 -8 -57t-16 -55q-8 -12 -1 -32
t23 -24q22 -14 34 -2t28 26q8 32 19 92t27 86l23 -4t23 -10q-4 -32 -17 -104t-21 -104q2 -6 1 -12t-5 -12q-56 0 -110 -13t-110 -33q-14 -2 -28 -5t-28 -7q-14 10 -33 -14t-11 -34q10 -6 10 -16t14 -14q8 -22 22 -9t28 3q34 4 69 19t69 21q16 -4 40 7t30 -15q-6 -14 -12 -22
t-22 -20q-10 -26 -29 -20t-35 -4q-34 6 -73 9t-73 -19l-8 -40t-18 -38q0 -20 -15 -34t-19 -34q-14 -20 -13 -39t-13 -39q2 -12 1 -30t21 -22q28 -12 53 5t49 19q26 4 52 12t52 10q34 8 69 0t65 14q24 10 17 24t-5 28q-36 56 -84 40t-92 -18q-16 10 -40 -10t-30 8
q16 16 23 38t33 24q34 -2 67 -2t69 8q52 22 72 70t50 88q10 12 19 28t-1 36q-2 4 -2 8t-4 6zM90 760q-18 0 -34 -19t6 -37q10 -12 23 -18t27 -6q22 -8 42 -6t40 0q12 8 22 3t22 3q16 -8 30 -4t28 -6q26 -8 14 -25t-12 -33q-14 -8 -57 -93t-45 -107q-16 -14 -26 -34t-34 -32
q-2 -14 -8 -28t12 -28q4 -38 35 -28t45 30q0 28 23 47t33 49q10 26 25 46t21 44q22 28 42 64t28 68q8 22 14 46t2 46q8 22 -20 39t-46 13q-22 -14 -46 -10t-46 6q-16 -4 -34 0t-34 -2q-20 10 -45 10t-47 2z" />
    <glyph glyph-name="uniAC25" unicode="&#xac25;" 
 />
    <glyph glyph-name="uniAC26" unicode="&#xac26;" 
 />
    <glyph glyph-name="uniAC27" unicode="&#xac27;" 
 />
    <glyph glyph-name="uniAC28" unicode="&#xac28;" 
 />
    <glyph glyph-name="uniAC29" unicode="&#xac29;" 
 />
    <glyph glyph-name="uniAC2A" unicode="&#xac2a;" 
 />
    <glyph glyph-name="uniAC2B" unicode="&#xac2b;" 
 />
    <glyph glyph-name="uniAC2C" unicode="&#xac2c;" horiz-adv-x="812" 
d="M648 240q10 10 14 19t6 19q14 42 27 126t21 128q10 18 7 39t5 37q0 32 8 63t12 63q24 30 -5 55t-55 15q-20 -36 -33 -92l-23 -96q-8 2 -20 6t-22 6q-2 20 5 53t-3 53q-2 28 -29 34t-35 -12q-18 -20 -23 -44t-11 -46q-8 -40 -15 -80t-13 -80q0 -18 -6 -56t-14 -56
q-8 -10 -1 -30t23 -26q22 -14 34 -1t28 27q8 30 19 90t27 86l23 -4t23 -8q-4 -32 -17 -104t-21 -106q2 -14 -4 -27t-8 -29l-16 -4t-18 0q-32 -18 -63 -15t-63 -5q-18 12 -40 -7t-36 3q-14 14 -35 10t-35 -26q4 -16 5 -33t3 -35q-6 -20 -2 -83t-2 -85q12 -40 48 -46t62 -4
q22 4 41 1t39 5l40 9t38 13q16 26 27 4t25 -18q22 -8 44 14t30 46q20 30 19 100t-15 100q-2 10 -6 19t-14 15zM570 176q10 4 21 -47t1 -61q-2 -14 -12 -27t-26 -9q-30 0 -94 -8t-96 -8q2 10 -1 53t-7 81q14 -2 95 2t119 24zM90 708q-18 0 -34 -18t6 -38q10 -12 23 -18t27 -6
q22 -8 42 -5t40 1q12 6 22 1t22 3q16 -8 30 -4t28 -6q26 -8 14 -24t-12 -34q-14 -8 -10 -20t-14 -22q-2 -14 -17 -32t-19 -36q-2 -20 -21 -43t-21 -45q-16 -14 -26 -35t-34 -33q-2 -14 -8 -28t12 -28q4 -38 35 -28t45 30q0 28 23 47t33 49q10 26 25 46t21 44q22 28 42 64
t28 68q8 22 14 47t2 45q8 22 -20 39t-46 13q-22 -14 -46 -9t-46 7q-16 -6 -34 -2t-34 0q-20 8 -45 8t-47 2z" />
    <glyph glyph-name="uniAC2D" unicode="&#xac2d;" horiz-adv-x="812" 
d="M678 338q10 50 20 114l16 100q10 18 7 38t5 38q0 32 9 63t13 61q24 32 -5 57t-55 15q-20 -36 -33 -92l-23 -96q-8 2 -20 6t-22 6q-2 20 5 52t-3 52q-2 28 -29 35t-35 -11q-18 -20 -20 -44t-8 -46q-8 -40 -15 -80t-13 -80q0 -18 -9 -57t-17 -55q-8 -12 -1 -31t23 -25
q22 -14 34 -1t28 27q8 30 19 90t27 86l23 -4t23 -10q-4 -32 -17 -104t-21 -104q4 -20 -8 -42t6 -44q-2 -10 -7 -20t-11 -20q-30 -4 -59 -9t-57 -13q-20 -8 -24 -5t-8 17t-1 55t-13 47q-24 36 -48 12t-20 -36q0 -24 -2 -80t-20 -74q10 -22 4 -41t-10 -41q-4 -28 -18 -57
t12 -57q20 -4 40 -17t38 7q26 8 51 21t51 13q28 24 67 21t57 41q4 26 14 51t12 49q18 44 31 87l27 87q10 10 5 24t-15 24zM522 112q20 -8 6 -28t-28 -28q-14 -12 -28 -7t-28 -9q-10 -2 -35 -10t-7 24q0 26 21 35t39 9q16 4 30 8t30 6zM90 728q-18 0 -34 -19t6 -37
q10 -12 23 -18t27 -6q22 -8 42 -5t40 1q12 6 22 1t22 3q16 -8 30 -4t28 -6q26 -8 14 -25t-12 -33q-14 -8 -10 -20t-14 -22q-2 -14 -17 -33t-19 -35q-2 -20 -21 -44t-21 -46q-16 -14 -26 -34t-34 -32q-2 -14 -8 -28t12 -28q4 -38 35 -28t45 30q0 28 23 47t33 49q10 26 25 46
t21 44q22 28 42 64t28 68q8 22 14 46t2 46q8 22 -20 39t-46 13q-22 -14 -46 -9t-46 7q-16 -6 -34 -2t-34 -2q-20 10 -45 10t-47 2z" />
    <glyph glyph-name="uniAC2E" unicode="&#xac2e;" 
 />
    <glyph glyph-name="uniAC2F" unicode="&#xac2f;" horiz-adv-x="980" 
d="M56 742q-14 -16 -15 -32t9 -32q4 -46 37 -36t51 6q16 -6 29 0t23 4q30 -2 60 -2h60h45t43 -12q10 4 16 -8t4 -16q-6 -26 -14 -49l-18 -51l-70 -120t-74 -122q-20 -24 -49 -55t-35 -45q-24 -8 -11 -23t15 -25q30 -20 46 -10t34 24q10 2 32 37t34 47q16 16 27 34l19 32
q16 22 54 87l44 75q6 22 17 45l21 45q10 24 12 55t2 55q-8 16 -14 32t-16 36q-26 14 -54 11t-50 -1q-12 6 -80 5t-102 1q-20 4 -37 -3t-33 -3q-14 6 -30 12t-32 2zM876 774q-22 -20 -30 -43t-22 -43q0 -26 -14 -51t-18 -53q-12 -30 -41 -30t-57 -4t-12 16t14 34q8 16 13 36
t11 40q12 24 -13 47t-51 19q-14 -16 -20 -35t-12 -33l-33 -103t-39 -105q-22 -32 -38 -85t-28 -87q-8 -16 -9 -42t27 -30q16 -2 32 6t32 12q16 16 25 54t17 54q6 24 15 51t21 45q26 10 48 7t48 -1q4 -6 -3 -17t-7 -27q-8 -32 -28 -104t-24 -106q-8 -16 3 -35t33 -23
q6 -2 14 -2t16 2q20 22 25 43t13 41q0 14 19 70t19 72q4 12 6 25t8 25q8 16 33 103t29 105t14 35t10 35l12 20t-4 22q0 28 -18 34t-36 6zM566 218q-20 -14 -24 -30t-6 -30q-24 -26 -55 -39t-59 -23q-30 -8 -25 -28t7 -32q28 -20 54 -13t52 23q12 4 25 12t21 4q12 -16 28 -48
t46 -44q16 -6 35 -2t19 28q-10 48 -34 93t-34 85q4 16 -15 34t-35 10z" />
    <glyph glyph-name="uniAC30" unicode="&#xac30;" horiz-adv-x="826" 
d="M594 222q-16 -24 -35 -47t-41 -37q-14 4 -35 8t-23 22q8 10 8 18t8 16q18 24 30 55t-30 33l-6 -1l-6 -1q-28 6 -57 -25t-41 -53q-30 -26 -48 -57t-46 -59q-20 -16 -33 -36t7 -40q20 -38 42 -22t40 34q24 10 39 31t43 29q10 -6 18 -9t16 -7q28 4 25 -18t-19 -34
q-30 -18 -32 -54t40 -36q34 10 75 54t59 80q6 4 9 17t15 3q22 -22 41 -28t39 -16q18 -20 54 0t6 46q-18 22 -41 33t-45 25q-32 10 -16 25t22 29q4 10 -1 27t-17 25q4 6 7 12t3 12q14 42 26 126l18 128q10 18 8 39t6 37q0 32 9 63t13 63q24 30 -5 55t-55 15q-20 -36 -33 -92
l-23 -96q-8 2 -21 6t-21 6q-2 20 4 53t-2 53q-2 28 -29 34t-37 -12q-16 -20 -19 -44t-7 -46q-8 -40 -15 -80t-15 -80q0 -18 -8 -56t-16 -56q-8 -10 -1 -30t23 -26q22 -14 33 -1t27 27q10 30 21 90t27 86l23 -4t21 -8q-2 -32 -15 -104t-23 -106q4 -20 -8 -44t10 -44l6 -3
t4 -3zM90 706q-18 0 -34 -18t4 -38q12 -12 25 -18t27 -6q22 -8 41 -5t39 1q12 6 23 1t23 3q16 -8 30 -4t28 -6q26 -8 14 -24t-12 -34q-14 -8 -10 -20t-14 -22q-2 -14 -17 -32t-19 -36q-2 -20 -21 -43t-21 -45q-18 -14 -27 -35t-35 -33q-2 -14 -8 -28t14 -28q4 -38 35 -28
t45 30q0 28 23 47t33 49q10 26 25 46t19 44q22 28 43 64t29 68q8 22 14 47t2 45q6 22 -21 39t-47 13q-20 -14 -44 -9t-48 7q-16 -6 -33 -2t-33 0q-22 8 -46 8t-46 2z" />
    <glyph glyph-name="uniAC31" unicode="&#xac31;" horiz-adv-x="974" 
d="M682 204q-14 10 -31 16t-35 4q-36 -8 -63 -29l-61 -49q-18 -16 -16 -32t-12 -28q0 -24 4 -51t40 -39l60 -20t60 0q28 0 52 13t44 35q12 16 29 35t15 41q-2 10 -7 22t-11 20q14 20 19 39t11 37q0 16 19 72t19 70q4 12 6 25t8 25q8 20 33 104t29 104q4 18 14 35t10 35
q6 10 11 21t-3 21q0 26 -17 32t-33 6q-22 -20 -30 -42t-22 -44q0 -24 -14 -49t-18 -51q-14 -34 -43 -35t-57 -5q-28 -2 -13 18t13 36q8 16 13 37t11 39q10 22 -14 45t-46 19q-14 -14 -20 -33t-12 -35l-33 -102t-39 -106q-22 -32 -37 -84t-29 -86q-8 -16 -9 -41t25 -29
q16 -2 32 6t32 12q16 16 24 52t16 56q6 24 15 51t23 43q26 10 49 9t47 1q6 -8 -1 -20t-7 -28l-25 -94t-25 -104zM632 136q36 -4 32 -38t-42 -40q-14 -6 -44 -10t-10 34q10 16 30 34t34 20zM54 736q-12 -14 -13 -30t9 -32q4 -44 36 -34t52 6q12 -6 25 0t25 4q30 -2 60 -2h60
h45t43 -12q10 6 17 -7t5 -21q-6 -26 -14 -50t-18 -50l-70 -119t-74 -121q-20 -24 -50 -57t-36 -47q-24 -6 -11 -20t17 -24q28 -16 43 -7t33 23q10 2 32 36t36 46q14 16 25 34l19 32q16 20 54 87t44 79q6 20 17 43t21 47q10 22 12 52t2 54q-8 18 -14 34t-16 34q-26 14 -52 10
t-52 -2q-10 6 -78 4t-102 0q-20 6 -36 0t-36 -4q-14 8 -29 13t-31 1z" />
    <glyph glyph-name="uniAC32" unicode="&#xac32;" 
 />
    <glyph glyph-name="uniAC33" unicode="&#xac33;" 
 />
    <glyph glyph-name="uniAC34" unicode="&#xac34;" 
 />
    <glyph glyph-name="uniAC35" unicode="&#xac35;" 
 />
    <glyph glyph-name="uniAC36" unicode="&#xac36;" 
 />
    <glyph glyph-name="uniAC37" unicode="&#xac37;" 
 />
    <glyph glyph-name="uniAC38" unicode="&#xac38;" horiz-adv-x="982" 
d="M262 608q-22 -2 -47 -5t-49 -11q-16 -12 -33 -10t-33 -8q-40 -8 -50 -41t2 -55q12 -4 23 0t25 0q14 10 28 11t28 9q34 4 69 13t67 9q12 10 22 1t22 -1q10 -2 19 -2h17q26 -6 52 -6t52 -6q22 -2 7 -13t-15 -17l-43 -40l-35 -34q2 -8 -6 -10t-10 -6q-8 -22 -27 -31t-29 -25
q-16 -26 -35 -36t-31 -26q-20 -6 -42 -26t-44 -24q-12 -2 -15 -8t-13 -8q-20 -4 -19 -24t3 -36q-2 -14 11 -28t25 -18q10 4 23 8t17 18q22 -6 19 7t17 19q16 4 31 15t29 27q24 28 55 45t53 49l75 70l63 58q22 10 23 24t15 26q6 26 11 51t-11 51q-44 40 -94 32t-96 4
q-30 10 -62 8t-64 0zM724 656q-20 -12 -19 -32t-3 -36q0 -26 -1 -56t-3 -48q-6 -14 -7 -34t-17 -30q-24 -8 -13 -27t11 -35q-6 -14 -8 -28t-8 -30q-2 -36 -19 -72t-23 -76q-10 -26 16 -52t52 -12q26 10 27 28t3 38q4 22 11 42t11 40q2 18 12 10t16 -6q28 -16 60 -32t64 0
q16 10 20 24t0 28q-20 26 -48 29t-50 9q-8 10 -35 17t-1 23q16 2 33 -1t33 -1q20 8 37 2t33 2q34 14 16 44t-46 28q-20 -4 -40 4t-40 8q-26 -6 -17 17t1 37q0 24 5 50t5 52q12 22 -17 51t-51 25z" />
    <glyph glyph-name="uniAC39" unicode="&#xac39;" horiz-adv-x="878" 
d="M498 248q-38 -2 -76 10t-76 10q-30 -14 -25 -44t35 -40q16 6 33 6t35 -6q16 -6 35 -5t25 -21q-26 -28 -50 -58t-52 -60q-14 -26 -40 -51t-40 -49q0 -14 5 -27t19 -23q18 0 35 2t31 22q24 36 57 65t57 61q10 22 25 31t29 29q12 24 36 45t12 43q0 16 -4 26t-14 14
q4 12 5 24t1 20q8 12 9 69t9 69q-6 34 23 36t49 4q22 4 45 9t43 13q14 4 14 14t2 18q4 10 -14 32t-34 8q-26 4 -52 -2t-52 -10q-20 -6 -19 13t3 29q14 4 31 6t37 10q26 -2 50 10t50 14q36 10 42 41t-28 47q-22 2 -45 -5t-45 -9q-20 -2 -45 -7t-45 11v35t2 35q22 30 -10 59
t-64 27q-24 -22 -13 -44t1 -44q4 -72 -7 -143t-9 -143q-8 -32 -14 -110t-14 -108v-4t2 -4zM92 764q-20 0 -36 -20t6 -38q12 -12 25 -18t27 -6q20 -8 40 -5t40 1q12 6 23 1t23 3q14 -8 28 -4t28 -6q28 -6 15 -22t-13 -36q-14 -8 -10 -20t-16 -22q-2 -14 -15 -31t-17 -35
q-2 -22 -21 -45t-23 -45q-16 -14 -26 -35t-36 -33q-2 -14 -7 -28t11 -28q4 -38 37 -27t47 29q0 28 22 47t32 51q10 24 26 44t20 44q22 28 42 64t28 68q6 24 13 47t3 45q6 22 -20 40t-46 14q-20 -14 -45 -9t-47 7q-16 -8 -33 -3t-33 -1q-24 10 -47 10t-45 2z" />
    <glyph glyph-name="uniAC3A" unicode="&#xac3a;" 
 />
    <glyph glyph-name="uniAC3B" unicode="&#xac3b;" 
 />
    <glyph glyph-name="uniAC3C" unicode="&#xac3c;" horiz-adv-x="850" 
d="M56 728q-14 -16 -15 -33t11 -33q4 -44 35 -35t49 5q16 -6 30 0t24 4q28 -2 59 -2h61h45t45 -12q10 4 15 -6t1 -14q-2 -24 -11 -50t-19 -52q-4 -14 -68 -120t-78 -122q-16 -22 -45 -54t-37 -46q-26 -8 -12 -24t18 -26q28 -20 43 -9l33 25q12 2 34 36t34 46q14 16 26 35
t20 33q16 20 54 85t44 77q6 22 17 45l21 45q10 24 13 55t3 53l-15 34t-17 36q-28 14 -55 12t-49 0q-12 4 -80 3t-102 1q-20 4 -37 -3t-33 -1q-14 4 -29 10t-33 2zM612 786q-32 -4 -29 -27t1 -37q14 -40 4 -83t-6 -87q-8 -26 -7 -50t-7 -48q-2 -20 -5 -63t-7 -63
q-2 -16 2 -35t6 -35q12 -32 34 -32t32 18q8 10 12 26t2 32q8 16 7 52t1 50q-2 4 3 9t9 1q22 -18 47 -34t53 -16q28 16 18 44t-30 42q-20 16 -42 36t-36 42q8 8 24 9t32 3q18 18 44 27t18 39q-2 20 -13 31t-27 15q-24 14 -52 -13t-32 11q0 12 -1 26t-5 26q4 24 -10 52t-40 32
zM370 220q-34 -8 -30 -32t0 -40q6 -34 4 -69t12 -71q6 -32 33 -48t51 2q12 -2 22 0t18 4q18 12 35 13t37 9q32 16 64 25t64 13q28 10 57 15t55 7q18 18 16 43t-28 37q-60 -4 -112 -17t-110 -25q-26 -2 -51 -14t-51 -16q-18 -10 -26 12t-6 32q-8 20 0 41t-14 41q-4 16 -15 26
t-25 12z" />
    <glyph glyph-name="uniAC3D" unicode="&#xac3d;" 
 />
    <glyph glyph-name="uniAC3E" unicode="&#xac3e;" 
 />
    <glyph glyph-name="uniAC3F" unicode="&#xac3f;" 
 />
    <glyph glyph-name="uniAC40" unicode="&#xac40;" horiz-adv-x="878" 
d="M598 324q6 26 8 70t8 54q-6 34 23 36t49 4l45 8t43 12q14 6 14 15t2 19q4 10 -14 32t-34 8q-26 4 -52 -3t-52 -11q-20 -4 -19 15t3 29q14 4 31 6t37 10q26 -2 50 10t50 14q36 10 42 31t-28 39q-22 2 -45 -5t-45 -9q-20 -2 -45 -7t-45 11v33t2 37q22 30 -10 58t-64 26
q-24 -20 -13 -42t1 -44q4 -72 -7 -135t-9 -135q-8 -26 -13 -89t-13 -103q-36 -6 -72 -16t-74 -24q-14 -2 -28 -6t-30 -8q-16 14 -33 -11t-11 -33q10 -8 10 -18t12 -12q10 -24 25 -11t29 5q34 4 68 18t70 22q16 -4 39 6t29 -16q-6 -12 -12 -20t-20 -22q-10 -26 -29 -20
t-35 -6q-36 6 -74 10t-74 -22l-8 -32t-18 -36q0 -18 -13 -33t-19 -33q-14 -20 -13 -39t-13 -41q2 -10 1 -28t21 -22q26 -12 51 4t51 18q26 4 52 13t52 11q34 8 68 -2t66 16q24 8 17 23t-5 29q-38 56 -85 40t-93 -18q-16 8 -39 -11t-29 9q16 16 22 38t30 24q36 -2 70 -3t68 7
q54 22 74 68t48 86q10 12 19 28t-1 34q-4 28 -23 34t-41 6zM92 784q-20 0 -36 -20t6 -38q12 -12 25 -19t27 -7q20 -6 40 -4t40 0q12 8 23 2t23 2q14 -6 28 -2t28 -6q28 -6 15 -14t-13 -26q-14 -8 -10 -20t-16 -22q-2 -14 -15 -32t-17 -34q-2 -24 -21 -47t-23 -45
q-16 -14 -26 -35t-36 -31q-2 -14 -7 -28t11 -28q4 -38 37 -28t47 30q0 28 22 47t32 51q10 24 26 44t20 44q22 28 42 64t28 68q6 22 13 37t3 37q6 22 -20 40t-46 14q-20 -16 -45 -11t-47 7q-16 -6 -33 -1t-33 -3q-24 10 -47 11t-45 3z" />
    <glyph glyph-name="uniAC41" unicode="&#xac41;" 
 />
    <glyph glyph-name="uniAC42" unicode="&#xac42;" 
 />
    <glyph glyph-name="uniAC43" unicode="&#xac43;" 
 />
    <glyph glyph-name="uniAC44" unicode="&#xac44;" 
 />
    <glyph glyph-name="uniAC45" unicode="&#xac45;" 
 />
    <glyph glyph-name="uniAC46" unicode="&#xac46;" 
 />
    <glyph glyph-name="uniAC47" unicode="&#xac47;" 
 />
    <glyph glyph-name="uniAC48" unicode="&#xac48;" 
 />
    <glyph glyph-name="uniAC49" unicode="&#xac49;" 
 />
    <glyph glyph-name="uniAC4A" unicode="&#xac4a;" 
 />
    <glyph glyph-name="uniAC4B" unicode="&#xac4b;" horiz-adv-x="932" 
d="M694 176q4 4 5 6t3 4q10 10 14 29t2 33q8 18 7 59t1 59q-2 8 6 15t16 -1q24 -20 52 -38t56 -18q28 18 18 47t-32 43q-22 16 -48 40t-42 54q10 10 29 12t37 6q20 20 47 29t21 41q-2 20 -14 31t-30 17q-24 12 -58 -15t-40 17q2 14 0 29t-6 29q4 26 -11 56t-41 36
q-32 -6 -29 -29t1 -39q16 -48 5 -97t-7 -97q-8 -28 -7 -56t-9 -56l-6 -72t-8 -70q-2 -14 1 -30t5 -34q-12 -12 -16 -28t-8 -34q-26 -30 -62 -45t-70 -25q-28 -8 -23 -28l9 -36q28 -18 55 -10t59 28q14 4 28 12t28 6q16 -24 34 -60t50 -48q16 -6 34 -2t18 28q-12 52 -36 102
t-38 100zM56 730q-14 -14 -15 -33t13 -37q4 -44 37 -35t57 5q16 -8 30 -1t28 5q34 -2 69 -2h67h52t52 -14q14 8 20 -7t2 -23q-2 -30 -12 -59t-22 -57q-6 -16 -78 -136t-88 -138q-20 -28 -53 -65t-43 -53q-28 -8 -13 -21t23 -27q26 -20 42 -9t38 29q10 2 36 40t40 52
q16 18 29 39t21 37q18 22 61 96l51 88q6 28 18 52l24 50t15 61t3 61q-8 20 -17 38l-19 38q-28 16 -57 12t-59 -2q-12 6 -89 5t-115 1q-20 4 -40 -3t-42 -3q-16 8 -33 14t-33 2z" />
    <glyph glyph-name="uniAC4C" unicode="&#xac4c;" 
 />
    <glyph glyph-name="uniAC4D" unicode="&#xac4d;" horiz-adv-x="878" 
d="M566 154q22 12 25 36t5 44q8 12 9 69t9 69q-6 34 23 36t49 4l45 8t43 12q14 6 14 15t2 19q4 10 -14 32t-34 8q-26 4 -52 -2t-52 -10q-20 -6 -19 13t3 29q14 4 31 6t37 10q26 -2 50 10t50 14q36 10 42 41t-28 47q-22 2 -45 -5t-45 -9q-20 -2 -45 -7t-45 11v34t2 36
q22 30 -10 59t-64 27q-24 -22 -13 -44t1 -44q4 -72 -7 -143t-9 -145q-8 -30 -14 -108t-14 -108q0 -4 1 -9t1 -9q-12 8 -25 12t-27 2q-40 -10 -71 -34l-69 -56q-20 -16 -19 -35t-15 -33q-2 -26 4 -54t46 -44l68 -24t68 0q28 0 55 15t53 41q14 18 32 38t16 44l-12 36t-16 34
q-4 4 -9 7t-11 5zM464 116q40 -2 36 -43t-48 -51q-16 -4 -53 -6t-15 38q12 18 36 39t44 23zM92 726q-20 0 -36 -20t6 -38q12 -12 25 -18t27 -6q20 -8 40 -5t40 -1q12 8 23 3t23 3q14 -8 28 -4t28 -6q28 -6 15 -23t-13 -35q-14 -8 -10 -20t-16 -22q-2 -14 -15 -32t-17 -34
q-2 -22 -21 -46t-23 -46q-16 -14 -26 -34t-36 -32q-2 -14 -7 -28t11 -28q4 -38 37 -27t47 29q0 28 22 47t32 51q10 24 26 44t20 44q22 28 42 64t28 68q6 24 13 47t3 45q6 22 -20 40t-46 14q-20 -14 -45 -10t-47 8q-16 -8 -33 -3t-33 -3q-24 10 -47 11t-45 3z" />
    <glyph glyph-name="uniAC4E" unicode="&#xac4e;" 
 />
    <glyph glyph-name="uniAC4F" unicode="&#xac4f;" 
 />
    <glyph glyph-name="uniAC50" unicode="&#xac50;" 
 />
    <glyph glyph-name="uniAC51" unicode="&#xac51;" 
 />
    <glyph glyph-name="uniAC52" unicode="&#xac52;" 
 />
    <glyph glyph-name="uniAC53" unicode="&#xac53;" 
 />
    <glyph glyph-name="uniAC54" unicode="&#xac54;" horiz-adv-x="934" 
d="M262 606q-22 -2 -46 -5t-50 -11q-16 -12 -33 -10t-35 -8q-38 -8 -48 -41t2 -55q14 -4 25 0t21 0q14 10 28 11t28 9q36 4 70 13t68 9q12 10 22 1t24 -1q10 -2 18 -2h16q26 -6 52 -6t52 -6q22 -2 7 -13t-15 -17l-44 -40t-34 -34q2 -8 -6 -10t-10 -6q-10 -22 -28 -31
t-28 -25q-16 -26 -36 -36t-30 -26q-20 -6 -43 -26t-43 -24q-12 -2 -15 -8t-15 -8q-18 -4 -17 -24t3 -36q-2 -14 11 -28t25 -18q10 4 22 8t20 18q20 -6 18 7t16 19q16 4 31 15t29 27q26 28 56 45t52 49l76 70l62 58q22 10 24 24t16 26q6 26 10 50t-10 50q-44 40 -94 33t-98 5
q-30 10 -63 8t-63 0zM820 672q-28 -20 -26 -43t2 -47q-2 -4 -1 -30t1 -38q8 -20 -10 -23t-28 -3q-16 -8 -18 7t-2 23q-4 26 -3 52t-3 50q-18 22 -42 42t-46 -8q6 -44 8 -89t-4 -91q-10 -18 -2 -36t0 -34l-5 -29t-21 -19q4 -6 -7 -9t1 -11q20 -22 7 -46t-23 -46
q-2 -16 -7 -39t23 -27q14 4 22 -10t18 -2l28 47t22 45q0 22 20 16t22 -18q-10 -34 -29 -68t-25 -68q-16 -24 12 -36t42 -16q32 18 47 52t23 64q18 46 25 90t17 92q4 34 10 69t8 67q-4 30 7 63t-5 63q-6 16 -23 29t-35 15zM744 418q10 0 30 -2t6 -24l-5 -29t-17 -15
q-8 0 -15 5t-11 15q0 12 1 26t11 24z" />
    <glyph glyph-name="uniAC55" unicode="&#xac55;" 
 />
    <glyph glyph-name="uniAC56" unicode="&#xac56;" 
 />
    <glyph glyph-name="uniAC57" unicode="&#xac57;" 
 />
    <glyph glyph-name="uniAC58" unicode="&#xac58;" horiz-adv-x="894" 
d="M54 722q-12 -16 -13 -34t11 -34q4 -44 36 -35t52 5q12 -8 26 -1t24 5q30 -2 60 -2h60h46t44 -12q10 4 15 -6t3 -18q-4 -26 -12 -49t-18 -49l-70 -120t-76 -122q-20 -26 -48 -57t-36 -43q-24 -8 -11 -24t17 -26q28 -20 44 -9t34 25q10 2 33 37t33 45q16 16 27 35t17 33
q20 22 57 85t43 75q6 22 17 46t23 46q8 26 10 57t2 51q-6 20 -13 35t-17 33q-28 16 -55 14t-51 0q-12 4 -79 2t-101 0q-20 6 -36 0t-34 -2q-14 6 -29 11t-35 3zM612 768q-38 -14 -32 -39t0 -45q-2 -14 -2 -27t-8 -25q4 -24 -7 -53t-9 -57q-2 -38 -7 -75t-5 -75
q-6 -24 25 -52t51 6q6 28 6 54t28 36q14 0 25 7t15 1q-4 -20 -7 -44t-31 -32q-8 -14 -2 -31t24 -19q14 2 31 0t33 10q28 0 31 28t3 44q4 16 7 31t7 29q4 22 10 43t8 45q12 30 14 58l4 54v20v22q-2 16 -2 30t-14 30q-20 28 -38 12t-18 -36q2 -10 -1 -24t-11 -24
q10 -20 -7 -24t-31 -8q-14 0 -26 -7t-16 -3q4 14 0 26t4 26q-6 20 -8 51t-44 37zM712 554q4 4 11 1t5 -11q4 -32 -29 -35t-55 -11q-8 10 -7 29t23 19q10 4 24 3t28 5zM412 240q-32 -8 -28 -33t2 -41q4 -32 2 -68t14 -72q4 -32 30 -48t50 2q12 -2 23 0t21 2q16 14 33 15
t37 11q34 14 65 23t63 13q28 10 56 16t56 8q18 16 16 42t-30 36q-56 -6 -111 -17t-109 -25q-28 -2 -52 -13t-52 -15q-18 -10 -26 11t-6 33q-8 18 0 39t-14 41q-4 16 -16 27t-24 13z" />
    <glyph glyph-name="uniAC59" unicode="&#xac59;" 
 />
    <glyph glyph-name="uniAC5A" unicode="&#xac5a;" 
 />
    <glyph glyph-name="uniAC5B" unicode="&#xac5b;" 
 />
    <glyph glyph-name="uniAC5C" unicode="&#xac5c;" horiz-adv-x="816" 
d="M726 304q16 38 19 86t11 72q-2 22 0 45l4 47q-8 14 -1 28t1 28q8 14 5 29t3 29q4 38 6 74t-2 74q0 24 -20 42t-42 16q-8 -10 -14 -20t-2 -20q6 -20 4 -40t0 -40q-2 -14 -2 -36t-22 -16q-20 8 -41 7t-37 11q-6 20 -8 39t-12 41q2 22 -22 43t-46 5q-14 -10 -13 -22t9 -22
q12 -32 7 -63t-3 -61q6 -24 3 -47t-3 -45q-4 -32 -6 -64t-10 -62q-6 -26 -13 -71t27 -63q48 -12 57 46t17 84q2 22 22 14t34 -2q26 -2 30 -9t6 -21q-2 -14 -9 -55t-7 -55h-6h-8q-56 0 -111 -13t-111 -33q-14 -2 -29 -6l-29 -8q-14 14 -32 -11t-10 -35q8 -6 8 -16t14 -12
q10 -24 24 -11t28 3q34 6 69 20t69 20q16 -4 39 7t31 -15q-8 -14 -14 -21t-20 -21q-10 -26 -29 -20t-35 -4q-36 6 -74 10t-72 -22l-9 -37t-19 -39q0 -20 -13 -33t-17 -35q-14 -20 -14 -39t-14 -39q2 -12 1 -30t23 -22q24 -12 49 4t51 18q28 6 53 14t49 12q36 6 70 -2t66 14
q24 10 16 24t-6 28q-34 56 -81 40t-93 -18q-16 10 -39 -10t-31 8q16 16 22 38t32 26q34 -2 69 -3t67 7q54 22 75 70t49 88q10 12 19 28t-1 36q-2 4 -3 8t-3 6zM604 630q22 -8 41 -4t39 -12q4 -16 5 -33t-9 -35q-20 0 -40 8t-40 8q-14 6 -7 19t-3 21q-2 8 1 17t13 11zM92 764
q-20 0 -36 -19t6 -37q12 -12 25 -18t27 -6q20 -8 40 -5t40 1q12 6 23 1t23 3q12 -8 28 -4t30 -6q24 -6 13 -24t-11 -34q-14 -8 -10 -20t-16 -22q-4 -14 -17 -32t-17 -36q-2 -20 -22 -43t-22 -45q-16 -16 -25 -36t-37 -32q-2 -14 -7 -28t11 -28q4 -38 36 -28t48 30
q0 28 22 47t34 49q10 26 25 46t19 44q22 28 42 64t28 68q8 22 15 46t3 46q6 22 -22 39t-46 13q-22 -14 -45 -9t-47 7q-16 -6 -33 -2t-33 0q-22 8 -46 8t-46 2z" />
    <glyph glyph-name="uniAC5D" unicode="&#xac5d;" 
 />
    <glyph glyph-name="uniAC5E" unicode="&#xac5e;" 
 />
    <glyph glyph-name="uniAC5F" unicode="&#xac5f;" 
 />
    <glyph glyph-name="uniAC60" unicode="&#xac60;" 
 />
    <glyph glyph-name="uniAC61" unicode="&#xac61;" 
 />
    <glyph glyph-name="uniAC62" unicode="&#xac62;" 
 />
    <glyph glyph-name="uniAC63" unicode="&#xac63;" 
 />
    <glyph glyph-name="uniAC64" unicode="&#xac64;" 
 />
    <glyph glyph-name="uniAC65" unicode="&#xac65;" 
 />
    <glyph glyph-name="uniAC66" unicode="&#xac66;" 
 />
    <glyph glyph-name="uniAC67" unicode="&#xac67;" 
 />
    <glyph glyph-name="uniAC68" unicode="&#xac68;" 
 />
    <glyph glyph-name="uniAC69" unicode="&#xac69;" 
 />
    <glyph glyph-name="uniAC6A" unicode="&#xac6a;" 
 />
    <glyph glyph-name="uniAC6B" unicode="&#xac6b;" 
 />
    <glyph glyph-name="uniAC6C" unicode="&#xac6c;" 
 />
    <glyph glyph-name="uniAC6D" unicode="&#xac6d;" 
 />
    <glyph glyph-name="uniAC6E" unicode="&#xac6e;" 
 />
    <glyph glyph-name="uniAC6F" unicode="&#xac6f;" 
 />
    <glyph glyph-name="uniAC70" unicode="&#xac70;" horiz-adv-x="752" 
d="M632 696q-6 2 -17 -5t-9 -15q-14 -36 -37 -55t-27 -53q-2 -20 -14 -39l-26 -41q-2 -38 -33 -31t-53 3q-14 16 4 28t18 28q18 10 18 32t-2 40q-12 32 -48 51t-64 9q-34 4 -68 0t-70 -18q-16 -16 -45 -16t-23 -28q2 -18 17 -36t37 -8q20 16 40 14t40 6q22 -4 45 1t43 -17
q-20 -16 -38 -43t-36 -49q-12 -12 -24 -28t-24 -28q-14 -26 -42 -57t-56 -59q-26 -32 -62 -66t-34 -68q0 -16 12 -22t16 -22q22 -6 34 6t26 30l92 101t86 109q18 10 32 31t40 11q18 -8 39 -3t35 -15q-6 -14 -11 -22t-13 -22q-20 -24 -32 -59t-46 -55q-12 -16 -16 -25
l-12 -27q-34 -20 -22 -47t6 -53q26 -44 57 -3t43 63q0 20 14 25t14 25q32 34 48 69t38 67q10 16 18 34t10 36q10 18 25 42t19 46q16 22 24 49t28 49q6 24 18 45t26 41q22 28 -10 38t-48 6z" />
    <glyph glyph-name="uniAC71" unicode="&#xac71;" horiz-adv-x="762" 
d="M376 542q2 0 3 -1t3 -1q30 -8 97 11t97 5q-4 -28 -25 -131t-31 -131q-2 -2 -5 -6t-3 -8q-36 4 -72 14t-70 6q-32 -14 -27 -43t37 -39q16 4 33 4t33 -4q16 -8 36 -6t24 -20q-28 -30 -50 -59t-50 -59q-14 -26 -42 -50t-40 -50q0 -14 5 -27t19 -23q18 0 35 1t31 21
q24 40 58 68t58 60q10 22 23 31t27 31q12 22 38 43t14 43q0 28 -12 37t-28 11q16 16 25 34t11 34q18 40 34 155t30 155q-2 30 14 62t10 64q-2 14 -19 27t-27 11q-4 -2 -11 -3t-11 -5q-32 -30 -31 -65t-21 -69q-16 -18 -33 -15t-33 -7q-14 -8 -60 -13t-68 -17q4 16 6 31t0 29
q8 22 -19 38t-49 12q-20 -14 -43 -9t-45 7q-20 -4 -37 -1t-33 -1q-22 10 -45 9t-47 3q-18 0 -34 -19t4 -37q12 -12 25 -19t29 -7q22 -6 41 -4t39 0q10 8 21 2t25 2q14 -6 28 -3t28 -5q26 -8 14 -25t-12 -33q-14 -8 -10 -21t-14 -23q-2 -12 -16 -30t-18 -36q-2 -22 -22 -45
t-22 -45q-18 -14 -27 -35t-35 -33q-2 -12 -7 -27t13 -29q4 -38 35 -27t45 31q0 28 23 47t33 49q10 26 25 46t19 44q16 18 32 41t24 47z" />
    <glyph glyph-name="uniAC72" unicode="&#xac72;" 
 />
    <glyph glyph-name="uniAC73" unicode="&#xac73;" 
 />
    <glyph glyph-name="uniAC74" unicode="&#xac74;" horiz-adv-x="914" 
d="M750 752q-14 -2 -28 -9t-14 -21t-13 -28t-11 -26q-14 -8 -14 -23t-14 -29q-10 -32 -32 -37t-46 -13q-20 -2 -44 -10t-40 14l42 56t34 62q4 10 -7 15t-17 7q-28 -2 -57 1t-57 -1q-18 -4 -35 -2t-35 -4q-22 -8 -45 -7t-45 -9q-16 0 -34 -5t-36 -5q-4 -6 -13 -4t-17 0
q-18 -8 -35 -7t-35 -3q-16 14 -33 -4t-15 -34q16 -64 65 -55t85 17q32 -8 60 3t56 7q10 -2 21 1t25 1q12 6 23 5t21 -1q-8 -20 -29 -44t-47 -36q-32 -32 -64 -53t-62 -49q-32 -20 -55 -42t-57 -40q-20 -4 -38 -23t-8 -39q22 -66 63 -27t73 53q40 34 81 54t79 54q20 12 44 38
t46 26q16 -12 33 -2t37 6q20 10 39 10h39q34 6 19 -15t-11 -35q-14 -20 -8 -37t-10 -33q4 -28 -15 -57t-13 -57q0 -16 14 -25t22 -19q10 4 28 3t22 21q10 34 11 69t21 67q-2 16 11 33t5 37q16 16 21 33t13 31q12 14 15 29t9 29q10 10 22 25t10 29q4 14 11 29t13 25
q-2 12 3 24t9 24q10 32 -16 30t-40 2zM334 292q-34 -10 -29 -34t1 -46q2 -20 -5 -39t-11 -41q10 -28 -8 -56t2 -58q10 -10 22 -24t26 0q30 18 58 15t56 7q36 18 70 20t68 12q44 -2 86 6t86 6q30 -4 74 7t38 59q0 4 -4 14t-8 14q-14 22 -26 10t-28 -8q-20 -6 -44 -4t-46 -4
q-8 -2 -17 -2h-17q-12 -4 -23 -5t-23 -5q-40 0 -80 -8t-80 -12q-22 -2 -46 -7t-40 15q2 16 -1 33t-1 35q10 10 11 25t-5 29q-8 12 -22 28t-34 18z" />
    <glyph glyph-name="uniAC75" unicode="&#xac75;" 
 />
    <glyph glyph-name="uniAC76" unicode="&#xac76;" 
 />
    <glyph glyph-name="uniAC77" unicode="&#xac77;" horiz-adv-x="782" 
d="M378 524l2 -2h2q30 -8 97 11t99 5q-6 -28 -26 -131t-30 -131q-4 -2 -7 -8t-3 -12q-2 0 -4 -1t-6 -1q-36 0 -70 -14t-68 -16q-22 -2 -49 -23t-3 -49q18 -8 16 -28t-6 -36q4 -20 -7 -39t-7 -39q0 -44 43 -56t69 -8q34 18 69 20t69 20q22 14 46 18t44 6q14 4 28 11t28 9
q12 4 24 13t8 25q0 16 -21 39t-39 13q-24 16 -44 -7t-46 -17q-26 -4 -51 -16t-51 -16q-18 -2 -35 -15t-31 5q4 22 5 41t7 39q18 16 43 23t45 3q18 2 35 3t33 5q14 6 29 5t29 -3q16 10 34 10t34 4q30 24 -3 61t-61 27q-10 -2 -21 -3t-23 -3q10 14 16 28t8 26q20 40 36 155
t30 155q-2 30 14 62t8 64q-2 14 -19 27t-25 11l-12 -4l-12 -4q-32 -30 -30 -65t-20 -69q-18 -18 -35 -15t-33 -7q-14 -8 -60 -14t-68 -18q4 16 7 31t1 29q6 22 -21 39t-47 13q-22 -14 -45 -9t-45 7q-18 -4 -35 -1t-35 -1q-20 10 -44 9t-46 3q-20 0 -36 -19t6 -37
q12 -12 25 -19t29 -7q20 -6 39 -4t39 0q12 8 23 2t25 2q14 -6 28 -3t28 -5q24 -8 13 -25t-11 -33q-14 -8 -10 -21t-16 -23q-2 -14 -15 -31t-17 -35q-2 -22 -23 -45t-23 -45q-16 -14 -25 -35t-35 -33q-2 -14 -7 -28t11 -28q4 -38 35 -27t47 31q0 28 23 47t33 49q10 24 25 45
t19 43q16 18 31 42t25 48z" />
    <glyph glyph-name="uniAC78" unicode="&#xac78;" horiz-adv-x="934" 
d="M784 818l-7 -4l-7 -4q-12 -8 -11 -17t-3 -17q-14 -14 -11 -33t-7 -33q-4 -14 -7 -34t-19 -26q-14 6 -29 4t-27 0q-8 2 -31 2t-5 20q40 26 9 60t-59 38q-102 -4 -205 1t-205 -7q-30 -14 -75 -13t-45 -51q10 -8 12 -25t22 -21q20 0 35 8t33 6q4 6 11 7t11 1q72 6 142 7
t142 1q12 0 37 -2t11 -28q-32 -30 -61 -62t-53 -64q-42 -50 -94 -98l-104 -94q-12 -8 -18 -23t-4 -29q4 -14 15 -17t19 -11q4 -8 14 -7t18 5q56 34 94 83t94 87l37 47t45 47q18 38 46 38t50 8q20 -2 37 1t33 1q10 -2 30 -4t10 -24q2 -34 -10 -68t-10 -68q-4 -8 -5 -17
t-7 -19q-20 0 -44 -3t-46 1q-26 -4 -59 -13t-65 -7q-12 6 -15 0t-9 -16q0 -14 9 -40t27 -18q18 -10 35 -6t33 4q10 4 23 1t21 7q34 -8 68 -6t68 0q28 -14 14 -33t-24 -35q-8 -28 -33 -24t-47 0h-35h-35q-36 6 -73 7t-75 1q-16 -10 -33 -19t-23 -25q18 -30 23 -58t3 -56
q-8 -10 -8 -25t10 -31q2 -28 27 -42t49 -10q22 10 41 9t39 -7q42 4 85 3t85 -1q14 -6 30 2t30 8q22 8 74 35t-2 67q-10 8 -21 6t-23 -12l-79 -16t-79 -4q-26 -4 -52 3t-52 -1q-14 10 -28 9t-30 3q-2 14 -12 29t8 25q16 6 30 8t28 -2q50 2 102 0t102 8l35 32t31 32
q22 10 21 26t15 22q12 22 14 47t-6 45q-10 38 -45 41t-29 35q10 18 4 35t4 33q4 22 10 46t20 44q-4 14 -3 28t1 28q8 16 9 34t11 32q-12 22 2 46t10 44q32 22 -1 54t-53 18z" />
    <glyph glyph-name="uniAC79" unicode="&#xac79;" 
 />
    <glyph glyph-name="uniAC7A" unicode="&#xac7a;" horiz-adv-x="774" 
d="M376 568q2 0 3 -1t3 -1q30 -8 97 11t97 5q-4 -28 -25 -131t-31 -131q-4 -2 -7 -8t-3 -14q-12 18 -36 27t-40 -15q-6 -28 -4 -57t-4 -57q0 -38 -13 -79t-17 -81q8 -18 29 -47t47 3q40 22 81 36t81 10q12 24 34 40t34 36q-6 32 7 64t13 62q12 28 -11 63t-57 27
q-10 0 -21 -2t-23 -6q8 12 12 24t6 20q18 40 34 154t30 154q-2 30 14 62t8 64q-2 14 -18 27t-26 11q-4 -2 -11 -3t-11 -3q-32 -32 -31 -67t-21 -69q-16 -18 -33 -15t-35 -7q-14 -6 -59 -12t-67 -18q4 16 6 31t0 29q6 22 -20 39t-48 13q-20 -14 -43 -10t-45 6q-20 -4 -37 0
t-33 -2q-22 10 -45 10t-47 2q-18 0 -34 -19t4 -37q12 -12 25 -18t29 -6q22 -8 40 -6t38 0q12 8 23 3t25 3q14 -8 28 -4t28 -6q26 -6 14 -24t-12 -34q-14 -8 -10 -20t-14 -22q-2 -14 -16 -32t-18 -36q-2 -20 -22 -44t-22 -46q-18 -14 -27 -34t-35 -32q-2 -12 -7 -25t9 -27
q-14 -2 -24 -9t-4 -25q10 -18 21 -31t31 -25q16 -4 33 3t33 -1q22 14 42 14h40q-2 -20 -21 -38t-35 -22q-24 8 -47 3t-45 -11q-20 -2 -46 -11t-40 -43q-6 -32 -11 -68t5 -66q4 -28 35 -48t57 -12q24 -6 50 -4t52 8q22 6 51 8t37 36q-2 16 -2 27t-22 21q-22 16 -48 5t-54 -7
q-18 4 -39 -2t-37 14q0 14 10 35t30 15q40 28 75 20t73 8q30 16 45 48t25 58q12 12 9 30t-1 34q10 26 -11 51t-49 27l-9 -2l-9 -2q-28 -8 -56 -13t-58 -9q10 22 28 38t26 40q10 26 25 46t19 44q16 18 31 42t25 46zM610 222q16 -8 12 -26t-12 -34q-22 -26 -45 -27t-45 -17
q-22 -2 -12 17t2 31q8 40 41 41t59 15z" />
    <glyph glyph-name="uniAC7B" unicode="&#xac7b;" 
 />
    <glyph glyph-name="uniAC7C" unicode="&#xac7c;" 
 />
    <glyph glyph-name="uniAC7D" unicode="&#xac7d;" 
 />
    <glyph glyph-name="uniAC7E" unicode="&#xac7e;" 
 />
    <glyph glyph-name="uniAC7F" unicode="&#xac7f;" 
 />
    <glyph glyph-name="uniAC80" unicode="&#xac80;" horiz-adv-x="932" 
d="M806 760q-14 -2 -11 -11t-1 -17q-8 -14 -16 -26t-18 -30q-8 -26 -25 -55t-25 -57q-8 -14 -21 -10t-23 0q-16 14 -40 -3t-28 13q6 8 4 14t0 12q-2 52 -53 60t-89 8q-14 2 -28 6t-28 6q-14 -8 -29 -2t-29 6q-36 4 -72 6t-76 2q-20 -10 -44 -11t-48 -11q-20 0 -43 -20t1 -42
q2 -30 25 -33t43 1q40 20 79 23t79 7q22 -8 46 -8t46 -4q22 4 46 -5t42 -25q-2 -8 -10 -16l-12 -12q-6 -28 -33 -56t-49 -58q-36 -40 -91 -89l-101 -89q-26 -8 -33 -31t9 -39q4 -18 19 -24t25 -6q12 10 25 16t25 20q34 34 71 64t77 66q28 18 41 40t35 38l37 41t43 35
q26 -2 52 6t52 6q24 10 18 -12t-12 -28q-2 -14 -8 -28t-10 -28q-10 -26 -19 -52t-25 -52q-22 -16 -45 -11t-45 -7q-16 0 -17 -13t1 -23l11 -22t15 -20q42 -6 86 5t86 13q16 -6 39 1t27 -21q-32 -20 -33 -51t-25 -55q-38 20 -79 15t-81 1q-16 -4 -34 1t-32 7q-22 4 -11 17
t15 21q16 20 14 39t-8 41q-14 20 -46 32t-36 -32q4 -24 -11 -47t-27 -45q-14 -20 -13 -39t9 -41q10 -28 32 -28t42 14q14 4 19 -10t19 -12q22 -8 46 -9t46 -1q38 -2 79 -2h79q16 -12 34 9l30 35q10 18 14 40t26 38q16 14 18 31t10 33q-14 24 2 48t-14 42q-20 36 -47 26
t-53 -6q-34 -18 -31 16t23 42q-6 14 4 28t12 28q16 22 16 42t10 40q22 34 33 76t39 78q4 18 19 32t19 28q10 30 -24 49t-52 21z" />
    <glyph glyph-name="uniAC81" unicode="&#xac81;" horiz-adv-x="762" 
d="M376 556q2 -2 3 -2h3q30 -8 97 11t97 5q-4 -28 -25 -131t-31 -131q-14 -10 -6 -34t28 -16q6 0 11 1t9 3l-9 -23t-13 -23q-28 -6 -57 -11t-57 -13q-20 -8 -25 -5t-9 17q-2 14 1 55t-13 49q-24 34 -48 10t-20 -36q0 -20 -2 -78t-20 -76q8 -22 2 -41t-10 -39q-2 -28 -16 -57
t12 -59q18 -4 39 -16t37 6q28 8 53 21t51 13q28 24 67 21t55 41q6 26 16 51t12 49q18 46 31 88l27 86q16 14 0 38t-38 22q18 40 34 155t30 153q-2 32 14 63t10 63q-2 14 -19 27t-27 11q-4 -2 -11 -3t-11 -3q-32 -30 -31 -65t-21 -69q-16 -20 -33 -17t-33 -7q-14 -6 -60 -11
t-68 -17q4 16 6 30t0 28q8 22 -19 39t-49 13q-20 -14 -43 -9t-45 7q-20 -6 -37 -2t-33 0q-22 8 -45 8t-47 2q-18 0 -34 -19t4 -37q12 -12 25 -18t29 -6q22 -8 41 -5t39 1q10 6 21 1t25 3q14 -8 28 -4t28 -6q26 -6 14 -24t-12 -34q-14 -8 -10 -20t-14 -22q-2 -14 -16 -31
t-18 -37q-2 -20 -22 -43t-22 -45q-18 -14 -27 -35t-35 -33q-2 -14 -7 -28t13 -28q4 -38 35 -27t45 29q0 28 23 47t33 49q10 26 25 46t19 44q16 18 32 42t24 48zM500 114q18 -8 5 -28t-27 -28q-14 -12 -28 -7t-28 -9q-10 -2 -36 -10t-6 24q0 26 20 35t40 9q16 4 30 8t30 6z
" />
    <glyph glyph-name="uniAC82" unicode="&#xac82;" 
 />
    <glyph glyph-name="uniAC83" unicode="&#xac83;" horiz-adv-x="852" 
d="M756 712q-8 0 -17 -5t-19 -15q-12 -30 -23 -62t-33 -64q-10 -20 -26 -30t-34 -8q-18 4 -39 -9t-35 7q4 20 -7 34l-23 28q-20 10 -43 8t-45 6q-38 0 -79 6t-81 2q-32 -6 -64 -5t-62 3q-14 4 -29 0t-29 2q-26 8 -25 -15t-3 -35q4 -10 6 -23t16 -19h34h36l67 4l69 4
q16 2 33 -1t33 -1q22 -10 42 -4t40 -14q-20 -20 -27 -39t-29 -31q-38 -44 -73 -77l-75 -69q-18 -26 -51 -53t-55 -55q-8 -10 -5 -23t13 -23q14 -32 34 -25t40 17q30 42 78 90l82 84q28 30 56 55l54 47q28 8 53 13t51 9q10 10 27 5t7 -23l-22 -44t-26 -44q-14 -8 -21 -28
t-31 -30q0 14 -11 31t-27 19q-26 10 -35 -16t-9 -42q-26 -38 -66 -53l-76 -29q-24 -8 -20 -24t8 -30q4 -16 18 -15t16 -13q22 6 41 15t41 23q14 4 28 13t28 7l33 -60t45 -56q12 4 22 -3t22 3q28 4 21 27t-9 39q-8 6 -15 19t-5 25q-2 6 -3 16t13 12q8 10 11 19t5 13
q34 20 45 59t33 63l18 32t12 32q18 8 14 22t12 18q16 46 36 91t44 91q-8 14 8 29t10 29q8 20 -10 37t-38 7z" />
    <glyph glyph-name="uniAC84" unicode="&#xac84;" horiz-adv-x="762" 
d="M376 532q2 -2 3 -2h3q30 -8 97 10t97 4q-4 -28 -25 -131t-31 -131q-8 -4 -9 -16t3 -22l-40 -54t-50 -46q-14 4 -34 8t-22 24q10 8 9 16t7 16q18 24 29 55t-29 33l-6 -1l-6 -1q-30 8 -58 -23t-40 -55q-30 -26 -49 -56t-47 -56q-16 -18 -29 -39t7 -39q16 -38 39 -23t41 33
q26 10 40 31t40 29q10 -6 18 -8t16 -6q28 2 27 -19t-19 -35q-32 -16 -34 -53t42 -37q34 10 74 55t60 79q6 6 9 19t15 1q22 -20 41 -27t39 -17q18 -18 53 1t7 45q-16 22 -41 33t-47 25q-30 10 -15 25t21 29q4 10 2 20t-10 20q22 14 37 38t17 44q18 40 34 155t30 153
q-2 32 14 63t10 63q-2 14 -19 27t-27 11q-4 -2 -11 -3t-11 -3q-32 -30 -31 -65t-21 -69q-16 -20 -33 -17t-33 -7q-16 -6 -61 -12t-67 -18q4 16 6 31t0 29q8 22 -19 39t-49 13q-20 -14 -43 -9t-45 7q-20 -6 -37 -2t-33 -2q-22 10 -45 10t-47 2q-18 0 -34 -19t4 -37
q12 -12 25 -18t29 -6q22 -8 41 -5t39 1q10 6 21 1t25 3q14 -8 28 -4t28 -6q26 -6 14 -24t-12 -34q-14 -8 -10 -20t-14 -22q-2 -14 -16 -31t-18 -37q-2 -20 -22 -44t-22 -46q-18 -12 -27 -33t-35 -33q-2 -14 -7 -28t13 -28q4 -38 35 -27t45 29q0 28 23 47t33 49q10 26 25 46
t19 44q16 18 32 42t24 48z" />
    <glyph glyph-name="uniAC85" unicode="&#xac85;" horiz-adv-x="762" 
d="M376 500q2 -2 3 -2h3q30 -8 97 11t97 5q-4 -28 -25 -131t-31 -131l-3 -3t-1 -3q-8 4 -18 6t-20 0q-38 -8 -69 -32t-71 -58q-20 -16 -17 -34t-13 -32q-2 -28 3 -56t43 -44q36 -10 70 -22t70 0q28 0 55 14t49 40l34 40t16 44q-4 16 -11 34t-17 34q-10 10 -22 18l-24 16
q22 16 37 39t17 43q18 40 34 155t30 155q-2 30 14 61t10 63q-2 14 -19 27t-27 11q-4 -2 -11 -3t-11 -3q-32 -30 -31 -65t-21 -69q-16 -20 -33 -16t-33 -6q-14 -8 -60 -13t-68 -17q4 16 6 30t0 28q8 22 -19 39t-49 13q-20 -14 -43 -9t-45 7q-20 -6 -37 -2t-33 0q-22 8 -45 8
t-47 2q-18 0 -34 -18t4 -38q12 -12 25 -18t29 -6q22 -8 41 -5t39 1q10 6 21 1t25 3q14 -8 28 -4t28 -6q26 -6 14 -23t-12 -35q-14 -8 -10 -20t-14 -22q-2 -14 -16 -31t-18 -37q-2 -20 -22 -43t-22 -45q-18 -14 -27 -35t-35 -33q-2 -14 -7 -28t13 -28q4 -38 35 -27t45 29
q0 28 23 47t33 49q10 26 25 46t19 44q16 18 32 42t24 48zM498 154q40 -2 36 -43t-48 -51q-18 -4 -54 -6t-12 40q12 16 35 37t43 23z" />
    <glyph glyph-name="uniAC86" unicode="&#xac86;" horiz-adv-x="762" 
d="M376 526q2 0 3 -1t3 -1q30 -8 97 11t97 5q-4 -28 -25 -131t-31 -131q-2 -2 -5 -6t-5 -10q-16 -2 -35 -5t-35 -3q-22 2 -45 -10t-47 -10q-26 -20 -57 -17t-45 -33q16 -22 47 -31t57 -1q22 -2 41 4t39 14q10 -2 23 4t17 -6q-34 -44 -76 -58t-88 -52q-10 -4 -26 -16t-16 -24
q4 -14 19 -27t25 -17q44 0 87 35t81 43q18 -28 42 -57t50 -51q10 -12 29 2t13 28q0 16 -6 28t-22 20q-10 18 -18 35t-20 31q8 24 33 46l49 44q16 16 19 34t-1 34q-2 16 -12 22t-24 6q10 14 14 26t6 22q18 40 34 155t30 155q-2 30 14 62t10 64q-2 14 -19 27t-27 11
q-4 -2 -11 -3t-11 -5q-32 -30 -31 -65t-21 -69q-16 -18 -33 -15t-33 -7q-14 -8 -60 -13t-68 -17q4 16 6 31t0 29q8 22 -19 38t-49 12q-20 -14 -43 -9t-45 7q-20 -4 -37 -1t-33 -1q-22 10 -45 9t-47 3q-18 0 -34 -19t4 -37q12 -12 25 -19t29 -7q22 -6 41 -4t39 0q10 8 21 2
t25 2q14 -6 28 -2t28 -6q26 -8 14 -25t-12 -33q-14 -8 -10 -20t-14 -22q-2 -14 -16 -32t-18 -36q-2 -22 -22 -45t-22 -45q-18 -14 -27 -35t-35 -31q-2 -14 -7 -29t13 -27q4 -38 35 -28t45 30q0 28 23 47t33 49q10 26 25 46t19 44q16 18 32 42t24 46z" />
    <glyph glyph-name="uniAC87" unicode="&#xac87;" 
 />
    <glyph glyph-name="uniAC88" unicode="&#xac88;" 
 />
    <glyph glyph-name="uniAC89" unicode="&#xac89;" horiz-adv-x="762" 
d="M376 542q2 -2 3 -2h3q30 -8 97 11t97 5q-4 -26 -21 -110t-29 -132q-24 0 -48 -2t-48 -10q-20 -8 -44 -5t-46 -23q-6 -14 -17 -29t-3 -29q22 -14 18 -35t-6 -39q-4 -14 -6 -29t-10 -29q-14 -14 -16 -32t-18 -34q8 -26 5 -52t29 -38q12 -8 23 2t25 8q46 16 96 19t96 -3
q10 -6 18 -2t16 0q8 2 16 7t10 13q14 16 3 37t-31 19q-42 2 -85 2t-85 -4q-24 -12 -20 8l6 30q46 10 96 7t96 -1q16 10 43 7t17 27q-14 12 -10 25t-14 15q-46 6 -91 4t-93 0q-38 -14 -25 13t9 41q-8 30 15 22t35 0l81 8l81 8q14 -20 41 -5t9 35q-6 28 -25 43t-45 11q2 4 3 8
t1 6q18 40 34 155t30 155q-2 30 14 62t10 64q-2 14 -19 27t-27 11q-4 -2 -11 -4t-11 -4q-32 -30 -31 -65t-21 -69q-16 -18 -33 -15t-33 -7q-14 -8 -60 -13t-68 -17q4 16 6 30t0 28q8 22 -19 39t-49 13q-20 -14 -43 -9t-45 7q-20 -4 -37 -1t-33 -1q-22 10 -45 9t-47 3
q-18 0 -34 -19t4 -37q12 -12 25 -19t29 -7q22 -6 41 -4t39 0q10 6 21 1t25 3q14 -6 28 -3t28 -5q26 -8 14 -25t-12 -33q-14 -8 -10 -21t-14 -23q-2 -14 -16 -31t-18 -35q-2 -22 -22 -45t-22 -45q-18 -14 -27 -35t-35 -33q-2 -14 -7 -28t13 -28q4 -38 35 -27t45 29
q0 30 23 48t33 50q10 24 25 45t19 43q16 18 32 42t24 48z" />
    <glyph glyph-name="uniAC8A" unicode="&#xac8a;" horiz-adv-x="844" 
d="M376 526q2 0 3 -1t3 -1q30 -8 97 11t97 5q-4 -26 -23 -121t-31 -131q-14 -2 -28 -7t-30 -9q-38 0 -78 -10t-80 -18q-18 -2 -35 -5t-31 -9q-28 -8 -21 -32t23 -34q14 -10 32 -19t34 1q4 2 11 4t9 -2q4 -28 19 -57t17 -57q-14 0 -29 -4t-29 -4q-12 6 -23 0t-23 2
q-14 -8 -29 0t-29 10q-28 6 -23 -15t7 -35q8 -24 28 -35t40 -9q42 -2 85 -2t85 2q14 -2 28 1t28 5q46 -4 91 -7t93 -1q14 4 28 -1t28 3q14 -4 28 7t12 27q-2 22 -26 37t-42 17l-28 -4t-28 0q-10 4 -28 4t-12 20q-4 38 -2 75t28 71q16 4 33 10t33 10q24 20 52 8t46 18
q18 28 -23 55t-63 15l-9 -2l-9 -2q-14 -6 -30 -8l-32 -4q4 8 6 14t2 12q18 40 34 154t30 154q-2 30 14 62t10 64q-2 14 -19 27t-27 11q-4 -2 -11 -3t-11 -3q-32 -32 -31 -67t-21 -69q-16 -18 -33 -15t-33 -7q-14 -6 -60 -12t-68 -18q4 16 6 31t0 29q8 22 -19 38t-47 12
q-22 -12 -45 -8t-45 6q-20 -4 -37 0t-33 -2q-22 10 -45 10t-47 2q-18 0 -34 -19t6 -37q10 -12 23 -18t29 -6q22 -8 41 -6t39 0q10 8 21 3t25 3q14 -8 28 -4t28 -6q26 -6 14 -24t-12 -34q-14 -8 -10 -20t-14 -22q-2 -14 -15 -32t-19 -36q-2 -22 -22 -45t-22 -45
q-16 -14 -26 -35t-34 -31q-2 -14 -7 -28t11 -28q4 -38 35 -28t45 30q0 28 23 47t33 49q10 26 25 46t19 44q16 18 31 42t25 46zM488 182q34 -2 17 -25t-3 -39q-2 -22 7 -60t-41 -24q-6 2 -16 0t-12 10q-6 28 -11 57t-9 57q12 20 31 17t37 7z" />
    <glyph glyph-name="uniAC8B" unicode="&#xac8b;" horiz-adv-x="762" 
d="M376 544q2 0 3 -1t3 -1q30 -8 97 11t97 5q-4 -24 -20 -105t-28 -129l-24 -4t-24 -8q-26 -2 -38 -28t18 -42q46 -8 91 5t93 21q4 12 -1 30t-19 30q2 4 3 8t1 6q18 40 34 154t30 154q-2 30 14 62t10 64q-2 14 -19 27t-27 11q-4 -2 -11 -3t-11 -3q-32 -32 -31 -67t-21 -69
q-16 -18 -33 -15t-33 -7q-14 -6 -60 -12t-68 -18q4 16 6 31t0 29q8 22 -19 38t-49 12q-20 -14 -43 -9t-45 7q-20 -4 -37 0t-33 -2q-22 10 -45 10t-47 2q-18 0 -34 -19t4 -37q12 -12 25 -19t29 -7q22 -6 41 -4t39 0q10 8 21 2t25 2q14 -6 28 -2t28 -6q26 -6 14 -24t-12 -34
q-14 -8 -10 -20t-14 -22q-2 -14 -16 -32t-18 -36q-2 -22 -22 -45t-22 -45q-18 -14 -27 -35t-35 -31q-2 -14 -7 -28t13 -28q4 -38 35 -28t45 30q0 28 23 47t33 49q10 26 25 46t19 44q16 18 32 42t24 46zM666 242q-44 -6 -86 -16t-84 -12q-36 -4 -70 -7t-68 -1q-22 -2 -45 -5
t-45 -17q-22 -16 -7 -29t31 -25q14 -6 29 -5t23 -11q-14 -18 -46 -41t-24 -45q-2 -40 35 -71t73 -33q34 2 72 18t72 32q32 28 78 62t28 78q-20 18 -8 33t30 15q26 2 34 34t-22 46zM478 120q18 6 45 -12t-15 -40l-68 -42t-68 -12q-16 14 6 31t34 25q20 12 33 24t33 26z" />
    <glyph glyph-name="uniAC8C" unicode="&#xac8c;" horiz-adv-x="954" 
d="M834 704q-8 -4 -10 -13t-6 -19q-2 -56 -29 -108t-51 -108l-23 -51t-27 -53q-38 -68 -71 -136l-67 -138q-18 -30 16 -37t52 -5q12 -2 21 7t17 21q44 82 81 165t83 165q12 22 15 41t17 39q4 16 13 34l17 34q0 16 8 34t14 34q10 14 4 29t-10 29q-20 14 -31 21t-33 15z
M128 594q-20 -2 -54 -17t-18 -47q10 -38 36 -36t48 6q56 4 113 4t113 -2q20 -10 41 -4t35 -16q-26 -30 -62 -57t-68 -67q-46 -34 -101 -91l-103 -103q-16 -28 10 -49t46 -23l49 53t55 49q28 28 54 50t52 54q16 14 32 22t28 26q22 8 38 28t40 16q4 0 16 3t6 -15
q-22 -30 -38 -61l-34 -63q-14 -20 -23 -39t-1 -39q14 -32 47 -27t47 35q10 26 27 52t27 52q18 50 58 101t52 101q10 14 -6 29t-32 11q-26 4 -40 -21t-32 -25q-10 0 -29 -1t-11 19q4 24 -21 59t-57 21q-12 -6 -27 1t-29 -1q-20 6 -44 11t-46 -3q-34 2 -69 0t-69 4
q-14 -12 -28 -5t-28 5z" />
    <glyph glyph-name="uniAC8D" unicode="&#xac8d;" 
 />
    <glyph glyph-name="uniAC8E" unicode="&#xac8e;" 
 />
    <glyph glyph-name="uniAC8F" unicode="&#xac8f;" 
 />
    <glyph glyph-name="uniAC90" unicode="&#xac90;" horiz-adv-x="904" 
d="M690 84q34 38 40 79t24 81q34 78 52 154l38 154q-2 24 5 50t9 52q-2 12 0 23t-6 23q12 12 -7 53t-35 33q-4 -2 -13 -3t-9 -5q-2 -30 -8 -63t-14 -63q-8 -46 -15 -92t-25 -90q-14 -38 -23 -74t-25 -76q0 -30 -27 -96t-29 -82q4 -14 5 -35t7 -37q-14 -2 -31 -5t-33 -7
q-28 -2 -57 -15t-57 -19q-24 -14 -35 13t-9 41q-10 24 -1 47t-13 45q-6 16 -19 27t-25 13q-32 -6 -27 -32t1 -44q4 -40 3 -80t15 -78q4 -36 34 -52t56 2q10 -2 21 0l23 4q22 14 41 15t39 9q38 18 75 28t73 18q30 10 63 16t63 8q18 16 16 43t-30 39q-32 -2 -64 -8t-66 -14z
M390 502q-4 -16 -11 -34t-15 -34t-86 -130t-94 -134q-20 -28 18 -39t52 3q16 18 93 117t85 113q4 22 13 41t17 39q32 -8 52 -9t50 -5q-2 -26 -18 -43t-18 -41q-18 -22 -35 -73t-1 -67q-2 -8 10 -22t22 -12q16 -16 28 5t16 29l55 139l53 137q16 38 22 76t6 72q-2 34 -4 80
t-52 62q-14 4 -24 -8t-14 -26q10 -26 8 -52t0 -52q-8 -26 -11 -52t-17 -50q-2 -8 -35 -6l-69 4q4 16 4 31v27q-8 22 -16 39l-18 37q-28 16 -57 13t-59 -1q-12 4 -126 3t-152 1q-22 6 -17 -38t19 -46q34 -4 105 -4h105q26 0 52 1t52 -13q14 6 20 -8t2 -24q0 -6 -1 -11t-3 -11
q-6 -4 -7 -10t1 -14z" />
    <glyph glyph-name="uniAC91" unicode="&#xac91;" 
 />
    <glyph glyph-name="uniAC92" unicode="&#xac92;" 
 />
    <glyph glyph-name="uniAC93" unicode="&#xac93;" 
 />
    <glyph glyph-name="uniAC94" unicode="&#xac94;" horiz-adv-x="774" 
d="M368 558q34 -8 66 -2t64 6q8 -16 4 -58t-2 -62q-14 -26 11 -58t57 8q10 16 13 41l5 41l9 95t7 101q-6 32 0 75t-48 55q-12 -10 -27 -28t-13 -34l-4 -28t0 -28q-2 -8 2 -16t-4 -16q-20 -4 -51 -6t-59 -10q6 22 10 40t0 36q8 22 -19 39t-45 13q-24 -14 -47 -10t-45 6
q-16 -4 -33 0t-37 -2q-20 10 -43 10t-45 4q-20 0 -37 -20t5 -38q14 -12 27 -18t27 -6q20 -8 39 -6t39 0q14 8 25 3t21 3q14 -8 29 -4t27 -6q28 -6 16 -23t-12 -35q-14 -8 -10 -20t-16 -22q-2 -14 -15 -32t-19 -36q-2 -20 -21 -44t-23 -46q-16 -14 -25 -34t-35 -32
q-2 -14 -7 -28t11 -28q4 -38 36 -28t48 30q0 28 22 47t30 51q10 24 25 44t21 44l25 35t21 37zM692 302q4 10 5 18t3 16q16 70 22 228t8 238q4 28 -38 47t-46 -7q-6 -22 -4 -89t-2 -89q2 -56 -11 -169t-23 -177q-52 -2 -104 -15t-106 -31q-14 -2 -28 -5t-28 -7
q-16 10 -34 -14t-12 -34q10 -6 10 -16t14 -12q10 -24 24 -11t28 3q34 6 69 20t69 20q16 -4 39 7t29 -15q-6 -14 -12 -21t-20 -21q-10 -26 -29 -20t-35 -4q-36 6 -73 9t-71 -19q-6 -20 -11 -40t-19 -38q0 -20 -13 -34t-19 -34q-14 -20 -13 -29t-13 -29q2 -12 1 -30t21 -22
q26 -12 52 5t52 19q24 4 50 2t52 2q34 6 68 -2t66 14q24 10 17 24t-5 28q-38 56 -85 40t-93 -18q-16 10 -39 -10t-29 8q16 16 22 38t32 24q34 -2 68 -2t68 8q54 22 74 70t48 88q10 12 20 28t-2 36q-2 10 -5 16t-9 8z" />
    <glyph glyph-name="uniAC95" unicode="&#xac95;" 
 />
    <glyph glyph-name="uniAC96" unicode="&#xac96;" 
 />
    <glyph glyph-name="uniAC97" unicode="&#xac97;" 
 />
    <glyph glyph-name="uniAC98" unicode="&#xac98;" 
 />
    <glyph glyph-name="uniAC99" unicode="&#xac99;" 
 />
    <glyph glyph-name="uniAC9A" unicode="&#xac9a;" 
 />
    <glyph glyph-name="uniAC9B" unicode="&#xac9b;" 
 />
    <glyph glyph-name="uniAC9C" unicode="&#xac9c;" horiz-adv-x="788" 
d="M368 484q34 -6 66 -1t64 5q8 -16 4 -58t-2 -60q-14 -26 11 -59t57 7q10 18 13 43l5 41l9 95t7 99q-6 34 0 76t-48 54q-12 -10 -27 -27t-13 -33l-4 -28t0 -28q-2 -8 2 -16t-4 -18q-18 -2 -50 -4t-60 -10q6 22 10 40t0 34q8 22 -19 39t-45 13q-24 -14 -47 -9t-45 7
q-16 -4 -33 -1t-37 -1q-20 10 -43 9t-45 5q-20 0 -37 -20t5 -38q14 -12 27 -19t27 -7q20 -6 39 -4t39 0q14 6 25 1t21 3q14 -6 29 -3t27 -5q28 -8 16 -24t-12 -34q-14 -8 -10 -21t-16 -23q-2 -14 -15 -31t-19 -35q-2 -22 -21 -45t-23 -45q-16 -14 -25 -35t-35 -33
q-2 -14 -7 -28t11 -28q4 -38 36 -27t48 29q0 28 22 48t30 52q10 22 25 43t21 43l25 35t21 37zM690 218q4 12 6 24t4 20q16 70 22 204t8 214q4 28 11 52t-1 50q-2 24 -24 37t-40 9q-24 0 -16 -17t-6 -27q-4 -24 -4 -46t-4 -50q-6 -20 -4 -47t-2 -49q2 -60 -12 -179t-24 -177
q-6 -2 -13 -2t-15 2q-30 -18 -61 -16t-63 -4q-20 12 -40 -7t-34 3q-14 14 -37 10t-37 -24q4 -18 5 -36t3 -34q-6 -20 -1 -83t-3 -85q12 -40 49 -47t63 -5q22 4 41 2t39 6q20 4 40 9t36 15q18 24 29 2t25 -18q22 -8 44 15t28 43q22 32 21 102t-17 102q-2 10 -6 18t-10 14z
M610 152q10 6 21 -44t1 -62q-2 -14 -11 -28t-27 -8q-32 0 -96 -8t-94 -8q2 10 0 54t-6 80q14 -2 94 1t118 23z" />
    <glyph glyph-name="uniAC9D" unicode="&#xac9d;" horiz-adv-x="788" 
d="M370 512q32 -8 64 -2t64 6q8 -18 4 -59t-2 -61q-14 -26 11 -58t57 8q10 16 13 41l5 41l9 95t7 99q-6 34 0 77t-48 53q-12 -8 -27 -26t-13 -34l-4 -28t0 -28q-2 -8 2 -16t-4 -18q-20 -2 -51 -4t-59 -10q6 20 10 39t0 37q8 22 -19 38t-45 12q-24 -14 -47 -9t-45 7
q-16 -4 -33 -1t-37 -1q-20 10 -43 9t-45 5q-20 0 -37 -20t5 -38q14 -12 27 -19t27 -7q20 -6 39 -4t39 0q14 8 25 2t21 2q14 -6 29 -2t27 -6q28 -8 16 -24t-12 -34q-14 -8 -10 -20t-16 -22q-2 -14 -15 -32t-19 -36q-2 -22 -21 -45t-23 -45q-16 -14 -25 -35t-35 -31
q-2 -14 -7 -29t11 -27q4 -38 36 -28t48 30q0 28 22 47t30 51q10 24 25 44t21 44q14 16 26 34t22 38zM702 300q14 72 20 201t8 205q4 28 11 53t-1 49q-2 24 -24 37t-40 9q-24 0 -16 -16t-6 -26q-4 -26 -4 -48t-4 -50q-6 -20 -4 -47t-2 -49q2 -60 -12 -181t-24 -179
q-2 -4 -2 -9t2 -9l-12 -28t-16 -26q-28 -4 -55 -10t-57 -12q-20 -10 -25 -7t-9 17t-1 55t-13 49q-22 34 -46 10t-20 -34q0 -22 -2 -79t-20 -77q10 -20 3 -40t-11 -40q-4 -28 -18 -57t12 -57q22 -4 42 -17t38 5q24 10 50 22t52 12q28 28 68 23t56 39q4 26 14 52t12 52
q16 42 29 84l27 86q10 6 9 18t-9 20zM536 88q20 -10 6 -31t-26 -27q-14 -12 -28 -7t-28 -9q-12 -2 -36 -10t-8 24q0 24 21 34t41 10q16 4 30 7t28 9z" />
    <glyph glyph-name="uniAC9E" unicode="&#xac9e;" 
 />
    <glyph glyph-name="uniAC9F" unicode="&#xac9f;" horiz-adv-x="878" 
d="M456 584q4 16 4 33v31q-8 20 -16 38t-18 38q-28 16 -57 13t-59 -1q-12 4 -111 3t-139 1q-20 4 -15 -39t17 -47q34 -2 91 -2h91q26 0 52 1t52 -13q14 6 20 -9t2 -23q-2 -30 -12 -58t-24 -56q-6 -16 -77 -137t-87 -139q-20 -28 18 -48t52 -6q16 16 29 38t21 38q18 22 61 96
l51 88q4 20 11 38t15 36q36 -8 57 -10t53 -6q-2 -26 -18 -43t-18 -41q-18 -22 -35 -73t-1 -67q-2 -8 10 -22t22 -12q16 -16 28 5t16 29l55 139l53 137q16 38 22 76t6 72q-2 34 -4 80t-52 64q-14 2 -24 -10t-14 -26q10 -26 8 -52t0 -52q-8 -26 -11 -52t-17 -50q-2 -8 -37 -5
t-71 5zM524 206q-18 -14 -22 -31l-8 -33q-26 -30 -63 -47t-71 -27q-28 -8 -23 -26t9 -34q28 -20 56 -12t58 28q14 4 28 12t28 6q16 -22 34 -59t50 -49q16 -8 34 -4t18 28q-12 52 -37 103t-37 103q4 16 -18 33t-36 9zM784 838q-4 -2 -13 -3t-9 -5q-2 -30 -8 -63t-14 -63
q-8 -46 -15 -92t-25 -90q-14 -38 -23 -74t-25 -76q0 -30 -23 -61t-27 -63q-2 -16 -12 -27t-12 -27q8 -22 17 -53t39 -35q58 44 66 93t28 97q34 78 52 154l38 154q-2 24 5 50t9 52q-2 12 0 23t-6 23q12 14 -7 54t-35 32z" />
    <glyph glyph-name="uniACA0" unicode="&#xaca0;" horiz-adv-x="998" 
d="M912 776q-8 -6 -19 -7t-11 -17q-22 -18 -30 -43t-28 -43q-8 -24 -30 -48t-32 -48q-22 -36 -38 -74t-38 -72q-8 -14 -15 -29t-13 -35q-8 -18 -14 -33t-14 -33q-14 -16 -25 -37t3 -39q8 -26 27 -28t33 6q22 10 32 33t18 45q18 14 13 29t13 29q20 52 60 133t90 161
q12 18 28 32t22 32q14 12 6 24t-6 24q-20 6 -15 19t-17 19zM714 752q-26 -20 -42 -52t-28 -60q-26 -30 -37 -62t-35 -62q-14 2 -28 -2t-24 10q14 10 20 24t8 28q22 28 6 53t-40 37q-14 4 -29 7t-29 5l-79 -13t-81 -9q-24 6 -50 -2t-52 -8q-26 8 -51 -1t-53 7q-14 10 -27 6
t-17 -20q-4 -12 -4 -22t2 -22q12 -10 17 -31t23 -5q30 -4 58 4t56 8q56 10 109 12t109 10q12 2 23 -16t-15 -24q-14 -32 -48 -63t-56 -59q-44 -26 -92 -78t-84 -84q-16 -28 -60 -60t6 -54q28 -2 53 21t51 31q52 54 108 93t102 95q16 14 27 34t31 8q20 -2 37 1t31 -9
q-2 -14 -10 -28t-12 -28q-14 -26 -31 -52t-5 -52q14 -14 33 -14t29 14q52 92 97 184l89 182l20 33t14 35q26 22 1 38t-41 12zM364 304q-54 -58 -119 -109t-123 -89q4 -48 44 -40t70 26q22 16 45 31t45 25q30 -12 31 -31t29 -37q-6 -26 -52 -35t-20 -53q10 -10 25 -12l29 -4
q16 -6 34 16t34 26q18 12 32 -10t34 -6q22 2 22 22t-10 34l20 25t18 -13q4 -14 14 -18t22 -20q26 -8 43 -36t43 -28q22 -14 30 13t10 41q-12 16 -32 34l-36 32q-26 4 -40 26t-32 42q10 14 3 30l-13 30q-8 -8 -18 8t-14 -2q-30 -18 -36 -41t-38 -39q-12 -24 -21 -8t-15 22
q-10 10 -23 26t5 36q4 10 18 22t8 20q-8 18 -28 36t-38 8z" />
    <glyph glyph-name="uniACA1" unicode="&#xaca1;" horiz-adv-x="878" 
d="M456 586q4 16 4 33v31q-8 20 -16 38t-18 38q-28 16 -57 13t-59 -1q-12 4 -111 3t-139 1q-20 4 -15 -40t17 -46q34 -2 91 -2h91h52t52 -12q14 6 20 -9t2 -23q-2 -30 -12 -58t-24 -56q-6 -16 -77 -137t-87 -139q-20 -28 18 -48t52 -6q16 16 29 38t21 38q18 22 61 96l51 88
q4 20 11 38t15 36q36 -8 57 -10t53 -6q-2 -26 -18 -43t-18 -41q-18 -22 -35 -73t-1 -67q-2 -8 10 -22t22 -12q16 -16 28 5t16 29l55 139l53 137q16 38 22 76t6 72q-2 34 -4 80t-52 62q-14 4 -24 -8t-14 -26q10 -26 8 -52t0 -52q-8 -26 -11 -52t-17 -50q-2 -8 -37 -5t-71 5z
M464 180q-40 -8 -71 -32t-67 -56q-22 -16 -20 -35t-14 -31q-2 -26 3 -56t45 -46q34 -10 68 -22t70 0q28 0 55 15t51 41q14 18 32 39t16 43q-4 18 -10 36t-16 34l-68 49t-74 21zM482 86q40 -2 36 -44t-48 -50q-16 -6 -53 -7t-13 37q12 18 36 40t42 24zM784 840q-4 -2 -13 -3
t-9 -5q-2 -30 -8 -63t-14 -63q-8 -46 -15 -92t-25 -90q-14 -38 -23 -74t-25 -76q0 -30 -23 -61t-27 -63q-2 -16 -12 -27t-12 -27q8 -22 17 -53t39 -35q58 44 66 93t28 97q34 78 52 154l38 154q-2 24 5 50t9 52q-2 12 0 23t-6 23q12 12 -7 53t-35 33z" />
    <glyph glyph-name="uniACA2" unicode="&#xaca2;" 
 />
    <glyph glyph-name="uniACA3" unicode="&#xaca3;" 
 />
    <glyph glyph-name="uniACA4" unicode="&#xaca4;" 
 />
    <glyph glyph-name="uniACA5" unicode="&#xaca5;" 
 />
    <glyph glyph-name="uniACA6" unicode="&#xaca6;" 
 />
    <glyph glyph-name="uniACA7" unicode="&#xaca7;" 
 />
    <glyph glyph-name="uniACA8" unicode="&#xaca8;" horiz-adv-x="776" 
d="M676 650l-7 -6l-7 -6q-8 -28 -20 -57t-34 -57q-6 -4 -4 -17t-14 -5q-20 6 -38 5t-40 1q-12 2 -30 1t-16 15q8 16 3 35t-11 33l-43 23t-43 13q-14 -6 -23 -3t-23 -7q-8 14 -16 6t-18 -4q-18 -4 -38 -6t-40 -14q-32 -14 -67 -18t-69 -20q-38 -10 -35 -39t25 -51
q12 -16 25 -7t27 17q10 6 25 9t29 13q14 -8 28 2t28 12q32 6 64 16t62 0q22 -12 10 -23t-14 -23q-20 -14 -26 -31t-26 -27q-2 -16 -22 -35t-32 -35q-40 -42 -69 -79t-79 -75l-22 -30t8 -28q8 -26 32 -28t38 8q18 28 38 37t38 41q4 16 16 26t24 26q22 26 52 26t58 -2
q24 -2 51 6t45 -10l-30 -52t-44 -42q-8 -10 -9 -25t3 -29q12 -12 28 -34t36 -2q24 18 34 46t34 50q10 6 12 16t6 18q0 4 9 14t11 16q24 28 39 58t35 64q16 16 20 37t12 39q22 30 29 58t25 56q10 14 2 30t-2 30q-6 10 -22 17t-28 7zM428 422q30 -2 62 0t62 -8q10 -14 -4 -19
t-18 -19q-14 -6 -28 -4t-30 0q-20 2 -44 -5t-40 13q12 10 19 21t21 21z" />
    <glyph glyph-name="uniACA9" unicode="&#xaca9;" horiz-adv-x="886" 
d="M792 848q-8 0 -25 -16t-15 -24q-20 -16 -31 -36t-27 -36q-18 -36 -49 -25t-59 1q-28 -4 -11 8t13 20q-8 10 -9 18t-11 14q-8 28 -31 34t-47 6q-50 6 -101 -3t-103 -1q-44 -2 -86 0t-84 -6q-20 10 -39 -7t-23 -33q-14 -20 9 -31t35 -19q52 16 103 13t103 -3q40 2 81 -1
t79 -1q20 -2 12 -16t-14 -20q-6 -10 -19 -30t-23 -30q-2 -10 -10 -16t-12 -16q-14 -24 -29 -45t-29 -43q-20 -20 -30 -36t-28 -32l-27 -24t-31 -26q-24 -10 -20 -22t0 -28q22 -48 61 -24t67 50q16 10 30 22t28 28q8 18 24 34t30 32q30 4 62 4t62 -4q22 -8 11 -31t-13 -39
q-6 -36 -29 -30t-41 -4q-32 0 -56 -16t-52 -20l-54 -16t-44 -42q10 -14 21 -24t25 -14q16 -2 34 0t36 6q30 16 61 27t63 21q34 10 36 -21t-18 -49q-16 -42 -47 -85t-43 -85q-20 -22 -49 -63t-15 -75q4 -22 21 -24t29 -6q30 28 44 60t40 62q30 48 53 97t57 93q4 20 11 31
t15 29q0 20 9 37t-1 33q-2 18 -24 29t-6 31q40 90 72 178t98 176q34 22 29 62t-49 42zM556 634q20 2 39 -1t41 -3q14 -8 0 -23t-18 -29q-10 -26 -28 -19t-34 1q-14 2 -28 0t-28 6q-8 8 0 17t10 13q8 16 20 26t26 12z" />
    <glyph glyph-name="uniACAA" unicode="&#xacaa;" horiz-adv-x="710" 
d="M368 544q26 -14 69 -6t61 -2q28 -4 17 -23t-9 -35q-26 -20 -86 -8t-80 -32q-14 -14 -11 -29t7 -25q24 -12 75 -4t77 2q4 -18 -14 -73t-22 -91q-14 -2 -27 -6t-27 -12q-20 -26 -31 -1t-31 27q-30 -2 -58 -6t-56 -4q-8 -8 -18 -5t-18 -5q-22 -6 -45 -10t-45 -22
q-24 -36 14 -52t64 -2q14 10 30 11t26 -3l-27 -39t-31 -37q-14 -26 -38 -48t-4 -50q20 -44 55 -24t49 52l42 57l48 63q16 26 33 2t35 -14q20 14 39 23t41 13q4 -2 17 10t5 -4q-2 -2 -7 -8t-9 -12q-10 -18 -23 -38t-23 -46q-6 -32 -28 -61t-14 -63q4 -20 27 -24t41 -2
q28 34 42 76t34 80q22 40 39 75l37 73q22 28 -3 51t-49 23l29 124t21 102q22 46 27 94t13 88q10 8 10 51t2 63q10 28 -19 51t-53 31q-18 -8 -21 -26t3 -32q-2 -20 -2 -44t-10 -46q-8 -22 -12 -45t-14 -45q-16 -4 -59 -1t-59 3q-2 2 -6 3t-8 -1q4 18 9 37t1 37q6 22 -21 39
t-45 13q-24 -14 -47 -10t-45 6q-16 -4 -33 0t-35 -2q-22 10 -45 10t-45 2q-20 0 -37 -19t5 -37q14 -14 27 -21t27 -7q20 -6 39 -4t39 0q14 8 25 2t23 2q14 -6 28 -2t28 -6q28 -8 15 -24t-13 -32q-14 -8 -10 -21t-16 -23q-2 -14 -15 -32t-17 -34q-2 -20 -22 -45t-24 -47
q-16 -14 -25 -33t-35 -31q-2 -14 -7 -29t11 -29q4 -38 37 -28t47 30q0 30 22 49t32 49q10 24 25 45t19 45q14 16 26 33t20 35z" />
    <glyph glyph-name="uniACAB" unicode="&#xacab;" 
 />
    <glyph glyph-name="uniACAC" unicode="&#xacac;" horiz-adv-x="996" 
d="M900 756q-14 -24 -37 -44t-31 -44q-16 -24 -35 -46t-35 -50q-12 -36 -34 -28t-40 0q-12 0 -23 4t-23 2q-24 -2 0 17t28 27q8 14 -12 34t-34 22q-22 16 -48 29t-52 15q-12 10 -24 4t-22 2l-28 4t-28 -2q-74 16 -145 12t-141 -2q-8 -8 -17 -1t-19 1q-30 18 -45 -13t-1 -51
q14 -10 10 -23t16 -15q14 -8 33 -3l35 9q42 -2 85 0l85 4q22 0 46 -4t46 -2l45 -4t47 -10q26 6 26 -16t-26 -38q-38 -30 -75 -56t-69 -62q-32 -24 -70 -62t-68 -74q-26 -40 -66 -55t-58 -57q-14 -12 0 -23t12 -23q12 -16 27 -14t29 0l44 42l50 48q30 28 55 57t57 45
q10 4 16 10t12 8q40 0 81 1t79 -3q16 -6 35 -2t25 -10q-26 -32 -46 -70t-50 -76q10 -28 36 -33t50 3q28 44 62 90t56 90q20 52 60 103t58 101q6 16 20 35l26 35q24 30 41 59t23 61q2 18 -19 29t-35 13zM560 470q30 -14 63 -10t63 0q18 -12 -8 -38t-40 -14h-68t-68 2
q10 12 29 29t29 31zM350 240l-8 -8l-8 -8q4 -28 -4 -57t-18 -57q-10 -26 -19 -52t11 -50q8 -36 34 -23t48 1q28 14 56 15t58 9l90 16t90 10q42 10 86 9t86 3q16 2 26 20t4 28q0 28 -25 39t-47 11q-16 6 -33 -5t-35 -7q-28 -8 -56 -7t-56 -7q-26 -10 -52 -11t-52 1
q-10 -12 -26 -10t-30 -6q-16 6 -33 -1t-33 1q-4 14 2 28l12 28q-4 10 -1 19t-7 15q-14 14 -24 37t-36 19z" />
    <glyph glyph-name="uniACAD" unicode="&#xacad;" 
 />
    <glyph glyph-name="uniACAE" unicode="&#xacae;" 
 />
    <glyph glyph-name="uniACAF" unicode="&#xacaf;" horiz-adv-x="712" 
d="M368 526q24 -14 67 -6t63 -2q28 -4 16 -23t-8 -35q-26 -20 -86 -8t-80 -32q-14 -14 -11 -29l5 -25q26 -12 77 -4t77 2q4 -18 -13 -68t-21 -88h-11t-11 -2q-34 0 -68 -13t-70 -15q-20 -2 -47 -23t-1 -49q16 -10 14 -29t-6 -35q4 -20 -7 -39t-7 -41q0 -44 42 -56t70 -6
q34 16 68 20t70 20q22 14 45 17t45 5q16 4 30 11t28 9q10 4 22 13t8 25q0 20 -21 41t-39 11q-26 16 -46 -6t-44 -16q-26 -2 -51 -16t-51 -18q-16 -2 -34 -15t-32 7q6 20 7 40t5 40q18 16 42 22t46 2q18 2 35 3t33 7q14 4 28 4t28 -2q20 8 37 8t33 6q28 24 -4 60t-60 26
q-6 -2 -13 -2t-15 -2q16 62 32 132t24 112q22 46 27 94t13 88q10 8 10 51t2 63q8 28 -20 51t-52 31q-18 -8 -21 -26t3 -32q-2 -20 -2 -44t-12 -46q-8 -22 -11 -46t-13 -46q-16 -2 -59 1t-59 3q-2 2 -6 3t-8 -1l8 37t0 37q8 22 -19 38t-45 12q-24 -14 -47 -9t-45 7
q-16 -4 -33 0t-37 -2q-20 10 -44 10t-46 2q-20 0 -36 -19t6 -37q14 -14 27 -21t27 -7q20 -6 39 -4t39 0q14 8 25 2t21 2q14 -6 28 -3t28 -5q28 -8 16 -24t-12 -32q-14 -8 -10 -21t-16 -25q-2 -12 -15 -30t-19 -34q-2 -22 -21 -46t-23 -46q-16 -14 -25 -34t-35 -30
q-2 -14 -7 -30t11 -30q4 -36 36 -26t46 30q0 30 23 49t31 49q10 24 25 45t21 45l25 33t21 35z" />
    <glyph glyph-name="uniACB0" unicode="&#xacb0;" horiz-adv-x="948" 
d="M778 866q-6 -10 -16 -11t-12 -11q-6 -18 -14 -98t-30 -90q-36 2 -73 -1t-73 -1q-12 -2 -27 3t3 25q18 22 8 46t-12 46q-14 10 -29 18t-29 2t-187 -16t-201 4q-46 2 -34 -29t18 -51q10 -8 8 -18t12 -2q10 4 19 6t17 0q34 10 68 6t70 -2q36 6 73 4t75 6q34 2 22 -24
t-22 -40q-8 -14 -13 -21t-13 -21q-14 -10 -14 -19t-10 -21q-8 -10 -21 -28t-23 -34q-20 -22 -40 -55t-50 -57q-12 -8 -15 -18t-13 -14q-8 -20 -22 -33l-28 -27q6 -14 -15 -28t-23 -28q-8 -12 0 -29t24 -23q20 -26 42 -4t38 36q4 22 22 29t26 31q28 24 47 57t43 53
q-6 12 8 18t20 18q14 34 27 9t29 -17q28 8 57 6t57 0q20 -10 54 -1t18 -31q-6 -12 -4 -23t-4 -23q-8 -14 -12 -34t-22 -30q-16 -2 -34 -2h-34q-24 4 -47 -7t-45 -15q-14 2 -36 -3t-18 -29q-8 -14 6 -35t28 -25q10 -2 18 -3t16 7q20 10 40 13t40 5q16 -4 34 4t34 -4
q28 10 57 7t57 5q16 -2 35 0t29 -10q-22 -24 -38 -53t-56 -25q-20 -2 -92 9t-88 1q-8 6 -16 -1t-18 -5q-22 -6 -45 3t-43 -17q-16 -8 -13 -22l5 -24q4 -8 15 -20t9 -22q2 -20 -4 -39t8 -41q6 -12 13 -30t19 -16q22 10 45 -4t47 -6q20 -8 39 -6t39 0q60 2 120 1t120 15
q12 12 10 32t-14 28q-14 0 -22 14t-22 4q-38 20 -74 7t-72 -5q-14 -8 -70 -9t-70 3q-34 -2 -40 27t14 47q28 2 87 2t73 -2q22 4 40 3t38 -1q18 -2 35 5t35 19q32 42 55 66t49 62q28 22 9 51t-47 41q-22 2 -46 0t-46 4q-14 -2 -40 -4t-18 24q18 14 10 25t2 23q6 16 12 28
t2 26q-4 22 8 39t14 39q16 28 30 56l28 58q-2 16 5 33t3 35q6 14 16 73t6 77q10 20 -14 30t-36 24zM476 562q10 -2 19 -2h17q40 -2 80 3t80 -5q16 -10 1 -32t-27 -18q-48 -2 -97 2t-97 -2q-14 6 1 19t17 23l3 6z" />
    <glyph glyph-name="uniACB1" unicode="&#xacb1;" 
 />
    <glyph glyph-name="uniACB2" unicode="&#xacb2;" 
 />
    <glyph glyph-name="uniACB3" unicode="&#xacb3;" 
 />
    <glyph glyph-name="uniACB4" unicode="&#xacb4;" 
 />
    <glyph glyph-name="uniACB5" unicode="&#xacb5;" 
 />
    <glyph glyph-name="uniACB6" unicode="&#xacb6;" 
 />
    <glyph glyph-name="uniACB7" unicode="&#xacb7;" 
 />
    <glyph glyph-name="uniACB8" unicode="&#xacb8;" horiz-adv-x="718" 
d="M368 524q26 -14 69 -6t61 -2q28 -4 16 -23t-8 -35q-26 -20 -86 -8t-80 -32q-14 -14 -11 -29t7 -25q24 -12 75 -4t77 2q4 -18 -13 -67t-21 -87h-24t-24 -4q-18 12 -39 -6t-35 2q-16 14 -38 11t-36 -25q6 -18 7 -35t3 -33q-8 -22 -3 -84t-1 -84q12 -40 49 -47t63 -5
q20 4 39 2t41 4q18 8 39 12t37 12q16 24 28 2t26 -14q22 -12 43 11t29 45q20 30 19 101t-15 103q-2 28 -25 42t-45 14q-10 2 -19 -1t-19 -7l22 130t20 108q22 46 27 94t13 88q10 8 16 51t8 63q10 28 -19 51t-53 31q-18 -8 -21 -26t3 -32q-2 -20 -2 -44t-12 -46
q-8 -22 -11 -46t-13 -46q-16 -2 -59 1t-59 3q-2 2 -6 3t-8 -1q4 18 9 37t1 37q6 22 -21 38t-45 12q-24 -14 -47 -9t-45 7q-16 -4 -33 0t-37 -2q-20 10 -43 10t-45 2q-20 0 -37 -19t5 -37q14 -14 27 -21t27 -7q20 -6 39 -4t39 0q14 8 25 2t23 2q12 -6 27 -3t29 -5
q26 -8 14 -24t-12 -32q-14 -8 -10 -21t-16 -25q-2 -12 -15 -30t-17 -34q-2 -22 -22 -46t-24 -46q-16 -14 -25 -34t-35 -30q-2 -14 -7 -30t11 -30q4 -36 36 -26t48 30q0 30 22 49t30 49q10 24 25 45t21 45q14 16 26 33t20 35zM564 142q10 4 22 -46t2 -62q-2 -14 -13 -27
t-27 -9q-30 0 -94 -8t-94 -8q2 10 0 54t-6 82q12 -4 92 0t118 24z" />
    <glyph glyph-name="uniACB9" unicode="&#xacb9;" horiz-adv-x="722" 
d="M368 540q24 -14 67 -6t63 0q28 -6 16 -24t-8 -34q-26 -20 -86 -9t-80 -33q-14 -14 -11 -29l5 -25q26 -10 77 -2t77 0q6 -20 -20 -92t-12 -94q-2 -8 0 -15t4 -11q-8 -2 -16 -3t-18 -3q-20 -10 -24 -7t-8 17q-4 16 -1 56t-13 48q-22 36 -47 11t-21 -37q0 -20 -2 -78
t-20 -76q10 -20 4 -40t-10 -40q-4 -28 -18 -56t12 -58q20 -6 41 -18t39 6q24 10 50 22t52 12q28 28 66 23t58 39q4 26 14 52t12 52q16 42 29 85t27 85q16 16 -4 45t-42 15q-34 -28 -46 -64t-32 -66l36 152t30 140q22 46 27 94t13 86q10 10 10 53t2 63q8 28 -20 51t-52 31
q-18 -8 -21 -26t3 -32q-2 -22 -2 -45t-12 -45q-8 -24 -11 -47t-13 -45q-16 -2 -59 0t-59 2q-2 2 -7 3t-9 -1q6 20 10 38t0 36q8 22 -19 39t-45 13q-24 -14 -47 -9t-45 7q-16 -4 -33 -1t-37 -1q-20 10 -44 9t-46 3q-20 0 -36 -19t6 -37q14 -14 27 -21t27 -7q20 -6 39 -4t39 0
q14 6 25 1t21 3q14 -6 28 -3t28 -5q28 -8 16 -24t-12 -32q-14 -8 -10 -21t-16 -25q-2 -14 -15 -31t-19 -33q-2 -22 -21 -46t-23 -46q-16 -14 -25 -34t-35 -32q-2 -14 -7 -29t11 -29q4 -36 36 -26t46 28q0 30 23 49t31 51q10 22 25 44t21 44l25 33t21 35zM500 84q20 -8 6 -30
t-26 -30q-14 -10 -29 -5t-29 -9q-10 -2 -34 -11t-8 23q0 28 21 38t39 10q16 4 31 7t29 7z" />
    <glyph glyph-name="uniACBA" unicode="&#xacba;" 
 />
    <glyph glyph-name="uniACBB" unicode="&#xacbb;" horiz-adv-x="800" 
d="M508 430q4 -2 5 -2h3q16 4 51 6t55 6q-8 -38 -21 -107t-23 -107q0 -4 -1 -10t-3 -14q-8 10 -18 14t-18 0q-18 -14 -22 -32l-8 -36q-30 -30 -65 -46t-69 -26q-30 -8 -24 -27t10 -35q28 -18 56 -11t56 29q16 4 30 12t28 6q16 -24 34 -60t50 -48q16 -6 34 -2t18 26
q-8 40 -26 78t-34 76h1h1q28 0 44 32t18 56q10 34 20 101t14 99q0 24 9 47t11 45q-2 16 7 34t7 36q-2 22 8 79t10 77q4 22 -4 47t-42 25q-10 -10 -19 -15t-15 -15q-2 -14 -8 -65t-8 -65q-14 4 -34 6t-36 -2q-8 2 -17 2t-17 -2q-8 18 -14 34t-14 32q-28 16 -59 13t-59 -1
q-10 4 -88 3t-118 1q-20 4 -38 -3t-40 -1l-34 13t-36 3q-14 -16 -15 -35t13 -35q4 -44 39 -35t57 3q14 -6 28 1t28 3q36 -2 70 -2h68q28 0 52 1t50 -13q14 6 20 -9t2 -23q-2 -28 -11 -57t-21 -57q-8 -16 -78 -137t-86 -139q-22 -26 -56 -63t-42 -53q-26 -8 -12 -22t20 -26
q28 -20 45 -9t39 27q10 2 34 40t40 52q16 18 29 39t21 37q20 22 63 96t49 88q2 6 3 12t3 10zM544 510q2 0 2 1v1q4 10 6 23t2 27q28 0 52 -1t38 1q-2 -12 -4 -26t-8 -16q-14 -4 -39 -6z" />
    <glyph glyph-name="uniACBC" unicode="&#xacbc;" horiz-adv-x="726" 
d="M370 532q20 -20 68 -12t68 -2q28 -4 16 -23t-10 -35q-26 -20 -86 -8t-80 -32q-14 -14 -10 -29t6 -25q26 -12 76 -4t76 2q6 -22 -20 -93t-12 -93q-2 -8 1 -16t5 -14q-12 -14 -24 -26t-26 -20q-14 4 -34 8t-22 22q8 10 8 18t8 16q18 24 29 55t-29 33l-6 -1l-6 -1
q-30 6 -58 -24t-40 -52q-30 -26 -49 -58t-47 -56q-18 -20 -31 -40t7 -40q18 -36 42 -21t40 33q26 10 40 32t40 30q10 -6 19 -9t17 -9q28 4 26 -18t-20 -36q-32 -16 -34 -52t42 -36q34 10 75 54t59 80q6 4 9 18t15 4q22 -24 41 -30t41 -16q16 -20 51 0t7 48q-16 20 -40 31
t-48 25q-30 10 -15 25t21 29q6 12 0 28t-16 26l30 133t24 113q22 46 28 94t14 88q8 8 8 51t2 63q10 28 -19 51t-53 31q-18 -8 -21 -26t3 -32q-2 -20 -1 -43t-11 -45q-8 -24 -12 -47t-14 -45q-16 -4 -59 -1t-59 3q-6 4 -11 4t-11 -4q6 20 10 39t0 39q8 22 -19 39t-45 13
q-24 -14 -47 -9t-45 7q-16 -6 -33 -2t-37 -2q-20 10 -44 10t-46 2q-20 0 -36 -19t6 -37q12 -14 26 -20t28 -6q20 -8 39 -6t39 0q14 8 25 3t21 3q14 -8 28 -4t28 -6q26 -6 15 -23t-11 -33q-14 -8 -10 -20t-16 -24q-2 -14 -15 -32t-19 -34q-2 -20 -22 -45t-22 -47
q-16 -14 -25 -33t-35 -31q-2 -14 -7 -29t11 -29q4 -38 35 -27t47 29q0 30 23 49t31 49q10 24 25 45t21 45l25 34t23 38z" />
    <glyph glyph-name="uniACBD" unicode="&#xacbd;" horiz-adv-x="840" 
d="M736 786q-12 -6 -15 -21t-13 -27q4 -20 -10 -37t-16 -33q-12 -8 -20 -23t-14 -29q-10 -26 -27 -28t-33 -2q-10 6 -3 14t3 16q6 12 4 23t0 23q4 22 -12 30t-30 28q-50 2 -98 3t-98 -5q-58 16 -118 1t-118 -17h-31t-29 -10q-18 -18 4 -32t26 -32q24 -12 47 -9t45 11
q64 16 126 12t124 0q10 -6 30 -7t12 -23q-50 -56 -110 -109t-108 -105q-44 -48 -88 -78t-86 -76q8 -14 22 -33t30 -19q34 30 70 54t70 54l46 51t46 39q18 -30 45 -32t51 2q14 -2 29 -5t29 -1q20 -8 12 -21l-14 -23q-8 -28 -32 -28t-40 -2q-20 -6 -44 -17t-48 -27
q-4 -14 -19 -30t-19 -32q-2 -8 -6 -17t-4 -17q-8 -34 10 -69t28 -65q2 -10 7 -17t13 -11q14 -14 30 -22t32 -4q36 2 75 27t69 57q28 30 30 66t-12 68q2 16 -10 28t-10 28q14 14 15 28t11 28q16 62 48 121t52 119q10 16 23 34t21 32q-2 16 22 33t16 33q4 22 11 41t5 41
q10 18 -14 38t-40 12zM494 510q22 -12 46 -7t46 1q4 -2 0 -8l-8 -12q-8 -14 -16 -36t-30 -12q-16 0 -35 -1t-35 3h-30t6 20l29 26zM474 186q44 -12 46 -48t-32 -62q-18 -30 -41 -37t-45 -9q-20 4 -18 17t-8 23q-16 20 -4 41t20 37q22 26 42 29t40 9z" />
    <glyph glyph-name="uniACBE" unicode="&#xacbe;" 
 />
    <glyph glyph-name="uniACBF" unicode="&#xacbf;" 
 />
    <glyph glyph-name="uniACC0" unicode="&#xacc0;" 
 />
    <glyph glyph-name="uniACC1" unicode="&#xacc1;" horiz-adv-x="716" 
d="M370 566q22 -20 69 -11t67 -1q28 -6 16 -24t-10 -34q-26 -20 -86 -8t-80 -32q-14 -14 -10 -29t6 -25q26 -12 76 -4t76 2q4 -16 -12 -64t-22 -86q-6 0 -12 1t-12 -1q-26 -2 -51 -5t-51 -9q-22 -8 -46 -6t-42 -24q-8 -14 -19 -29t-1 -29q20 -14 16 -35t-6 -41
q-4 -14 -6 -28t-10 -28q-16 -14 -17 -31t-19 -33q8 -26 5 -52t31 -38q12 -8 23 1t23 7q46 16 96 20t96 -4q10 -4 19 -1t17 -1q10 2 16 8t8 12q14 14 3 36t-29 20q-44 2 -86 2t-86 -4q-24 -14 -20 7l6 31q48 10 97 7t97 -1q16 10 42 7t16 27q-14 10 -10 23t-14 15
q-44 10 -90 8t-92 0q-38 -16 -25 11t11 41q-10 28 13 22t35 2l57 4t55 4h12t12 2q6 0 12 1t12 1q14 -18 42 -3t12 33q-4 18 -15 32t-25 20l30 134t24 114q22 46 28 94t14 88q8 8 8 51t2 63q10 28 -19 51t-53 31q-18 -8 -21 -26t3 -32q-2 -20 -1 -44t-11 -46q-8 -22 -12 -46
t-14 -46q-16 -2 -59 1t-59 3q-6 4 -11 4t-11 -4q6 18 10 38t0 40q8 22 -19 38t-45 12q-24 -12 -47 -8t-45 6q-16 -4 -33 0t-37 -2q-20 10 -44 10t-46 2q-20 0 -36 -19t6 -37q12 -14 26 -21t28 -7q20 -6 39 -4t39 0q14 8 25 2t21 2q14 -6 28 -2t28 -6q26 -8 15 -24t-11 -32
q-14 -8 -10 -21t-16 -23q-2 -14 -15 -32t-19 -34q-2 -22 -22 -46t-22 -46q-16 -14 -25 -34t-35 -30q-2 -14 -7 -30t11 -28q4 -38 35 -28t47 30q0 30 23 49t31 49q10 24 25 45t21 45q14 16 26 34t22 36z" />
    <glyph glyph-name="uniACC2" unicode="&#xacc2;" 
 />
    <glyph glyph-name="uniACC3" unicode="&#xacc3;" 
 />
    <glyph glyph-name="uniACC4" unicode="&#xacc4;" horiz-adv-x="1006" 
d="M914 752q-14 -2 -20 -12t-16 -22q6 -16 -7 -35t-13 -35q-46 -82 -80 -168t-92 -168l-85 -134t-79 -140q-6 -14 5 -32t31 -18q58 18 75 62t45 86q34 46 63 100t53 106q20 24 32 50t26 52q4 18 17 32t17 34q16 18 24 43t22 45q8 22 21 49t9 53q4 20 -16 31t-32 21zM534 720
q-22 -8 -45 -7t-45 -7q-92 -12 -183 -26t-183 -40q-32 4 -35 -23t-1 -45q22 -18 49 -15t53 17q22 0 45 10t47 6q22 8 45 9t45 11q30 6 58 5t56 13q16 -4 40 5t28 -25q-8 -48 -58 -88t-74 -82q-16 -22 -37 -47t-43 -47q-36 -52 -82 -103t-88 -103q-8 -14 2 -29t18 -23
q22 -20 46 -2t44 38q34 48 77 98t73 94q34 -2 68 -1t66 -27q-14 -18 -24 -35l-20 -33q-20 -26 -15 -72t49 -32q66 102 120 199l110 197q30 42 40 89t-34 85q-26 18 -31 -7t-15 -35q-2 -20 -10 -43t-24 -47q-20 -12 -41 -12t-35 14q16 12 23 30t19 32q-8 14 -2 28t-4 28
q-12 28 -41 41t-51 7zM526 466q22 -2 41 1t39 -7q0 -12 -9 -24t-17 -24q-14 -16 -23 -31t-31 -5q-14 10 -42 5t-12 29q12 14 26 28z" />
    <glyph glyph-name="uniACC5" unicode="&#xacc5;" 
 />
    <glyph glyph-name="uniACC6" unicode="&#xacc6;" 
 />
    <glyph glyph-name="uniACC7" unicode="&#xacc7;" 
 />
    <glyph glyph-name="uniACC8" unicode="&#xacc8;" horiz-adv-x="956" 
d="M446 350q4 -6 10 -11t14 -9q24 -2 50 0t52 -6q8 -20 2 -44t8 -46q22 -12 52 -15t32 35q8 22 10 46t6 46q0 22 10 46t2 44q6 22 8 46l4 46q10 22 10 41t4 39q4 14 3 29t-1 29q0 20 4 39t0 39q-8 16 -21 22l-29 14q-34 6 -34 -23t-4 -45q-8 -30 -9 -62t-11 -62
q6 -22 -9 -12t-23 4q-8 -2 -17 -4t-19 -4q6 24 9 51t3 47l-18 37l-18 37q-28 16 -57 13t-61 -1q-10 4 -87 3t-117 1q-20 4 -39 -3t-41 -1l-33 13t-33 1q-16 -14 -17 -32t13 -34q4 -48 38 -38t56 6q14 -6 30 0t30 4q34 -2 67 -2h69h51t51 -14q14 8 21 -8t3 -24
q-4 -24 -11 -48t-17 -48q-2 -2 -2 -3v-3t-1 -5t-3 -7q-8 -18 -79 -137t-87 -139l-55 -63t-43 -53q-26 -8 -12 -22t22 -26q28 -18 44 -8t38 26q10 2 36 41t40 53q16 16 28 37t20 37q10 10 26 36zM478 406q10 16 15 26l7 14q2 8 4 14l4 12q26 4 50 15t44 -5q-4 -18 -1 -39
t-21 -35q-26 -2 -51 -2h-51zM808 836l-6 -7l-6 -7q0 -16 -4 -33t-4 -37t-9 -43t-9 -45q-6 -14 -3 -30t-5 -30q6 -20 1 -44t-7 -46q-6 -32 -5 -63t-9 -63q0 -28 -4 -56t-4 -56q-2 -26 -1 -52t9 -52q10 -14 23 -17t27 -7q34 -2 35 26t9 46q-4 40 -1 80t3 78q6 52 8 104t10 102
q-2 18 1 35t5 35q0 22 7 40t7 38q-6 18 4 36t2 34q-10 28 -32 30zM418 196q-32 -8 -28 -33t0 -47q6 -38 4 -78t14 -80q6 -34 35 -50t55 2q12 -2 23 1t23 5q22 12 41 13t39 11q38 16 74 26t74 16q30 10 62 17t64 11q18 16 16 42t-30 36q-64 -6 -126 -19l-126 -27
q-28 -2 -57 -15t-57 -17q-22 -16 -33 11t-9 41q-12 22 -3 46t-13 46q-4 16 -16 28t-26 14z" />
    <glyph glyph-name="uniACC9" unicode="&#xacc9;" 
 />
    <glyph glyph-name="uniACCA" unicode="&#xacca;" 
 />
    <glyph glyph-name="uniACCB" unicode="&#xaccb;" 
 />
    <glyph glyph-name="uniACCC" unicode="&#xaccc;" horiz-adv-x="846" 
d="M292 460q22 -24 50 -31t54 -9q16 2 35 2t25 -14q-4 -20 -5 -39t-3 -39q-2 -8 -3 -14t1 -12q-20 -4 -44 -11t-46 -15q-14 -2 -29 -6l-29 -8q-14 12 -32 -11t-10 -33q8 -8 8 -17t14 -13q8 -24 23 -10t29 4q34 4 68 19t70 21q16 -4 39 7t31 -15q-8 -14 -14 -22t-20 -24
q-10 -24 -30 -18t-36 -4q-34 4 -72 8t-72 -18q-6 -18 -10 -38t-18 -40q0 -20 -13 -34t-17 -32q-14 -20 -14 -39t-16 -41q4 -12 3 -29t21 -21q26 -12 51 4t51 18q28 4 52 12t50 10q36 8 70 -1t64 17q26 10 18 24t-6 28q-36 54 -82 39t-92 -17q-18 10 -41 -10t-31 8
q16 16 23 38t33 24q34 -2 69 -2t67 8q54 22 75 69t49 89q8 10 16 23t4 25q22 104 48 206t48 206q0 46 20 91t-20 89q-8 16 -23 14t-31 2q-18 -20 -19 -39t-5 -41l-40 -188l-42 -188q-2 -24 -8 -47t-12 -49h-4h-4h-21t-21 -4q12 36 17 72t13 72q0 16 5 34t5 34q8 46 12 91
t14 93q-6 34 5 81t-53 53l-7 -6l-7 -6q-20 -6 -21 -30t-1 -42q-4 -18 -3 -39t-13 -37q-16 -2 -35 1t-35 -9q-8 -2 -16 -5l-18 -7q6 18 9 35t1 33q6 22 -20 39t-46 13q-22 -14 -46 -10t-46 6q-16 -4 -34 0t-34 -2q-22 10 -45 10t-45 2q-20 0 -36 -19t4 -37q12 -12 26 -18
t28 -6q20 -8 39 -6t39 0q14 8 25 3t23 3q14 -8 28 -4t28 -6q26 -6 14 -24t-12 -34q-4 -2 -6 -5t-2 -7q-2 -4 -4 -10t-2 -12q0 -2 -3 -3t-7 -5q-4 -14 -17 -32t-17 -36q-2 -20 -23 -44t-23 -46q-16 -14 -25 -34t-35 -32q-2 -14 -7 -28t11 -28q4 -38 36 -28t48 30q0 28 22 47
t32 49q4 10 8 18zM320 514v1v1q12 14 24 31t20 33q22 4 40 11t38 9q46 28 46 -13t-8 -61q4 -28 -18 -24t-36 0q-26 10 -52 9t-54 3z" />
    <glyph glyph-name="uniACCD" unicode="&#xaccd;" 
 />
    <glyph glyph-name="uniACCE" unicode="&#xacce;" 
 />
    <glyph glyph-name="uniACCF" unicode="&#xaccf;" 
 />
    <glyph glyph-name="uniACD0" unicode="&#xacd0;" 
 />
    <glyph glyph-name="uniACD1" unicode="&#xacd1;" 
 />
    <glyph glyph-name="uniACD2" unicode="&#xacd2;" 
 />
    <glyph glyph-name="uniACD3" unicode="&#xacd3;" 
 />
    <glyph glyph-name="uniACD4" unicode="&#xacd4;" 
 />
    <glyph glyph-name="uniACD5" unicode="&#xacd5;" horiz-adv-x="846" 
d="M292 440q22 -24 50 -31t54 -11q16 4 35 4t25 -14q-4 -20 -5 -39t-3 -39q-12 -36 23 -45t53 -1q20 44 27 91t15 91q0 16 5 33t5 35q8 46 12 91t14 91q-6 34 5 82t-53 54l-7 -6l-7 -6q-20 -6 -21 -31t-1 -41q-4 -18 -3 -39t-13 -37q-16 -2 -35 0t-35 -8q-8 -2 -16 -5
l-18 -7q6 18 9 35t1 33q6 22 -20 38t-46 12q-22 -14 -46 -9t-46 7q-16 -4 -34 -1t-34 -1q-22 10 -45 9t-45 3q-20 0 -36 -19t4 -37q12 -12 26 -19t28 -7q20 -6 39 -4t39 0q14 8 25 2t23 2q14 -6 28 -2t28 -6q26 -8 14 -25t-12 -33q-4 -2 -6 -5t-2 -7q-2 -6 -4 -11t-2 -11
q0 -2 -3 -3t-7 -5q-4 -14 -17 -32t-17 -36q-2 -22 -23 -45t-23 -45q-16 -14 -25 -35t-35 -31q-2 -14 -7 -29t11 -27q4 -38 36 -28t48 30q0 28 22 47t32 49q4 10 8 18zM320 494v1v1q12 14 24 31t20 33q22 4 40 11t38 9q46 28 46 -13t-8 -61q4 -28 -18 -24t-36 0q-26 8 -52 8
t-54 4zM676 278q22 96 46 191t44 191q0 46 20 92t-20 90q-8 16 -23 14t-31 2q-18 -20 -19 -39t-5 -41l-40 -188l-42 -188q-2 -34 -13 -68t-15 -70q-2 -2 -2 -7v-9q-8 -16 -15 -33t-17 -33q-28 -6 -56 -11t-58 -11q-20 -12 -25 -8t-9 18q-2 14 1 54t-15 48q-20 36 -46 11
t-20 -37q0 -20 -2 -78t-20 -76q8 -20 2 -39t-10 -41q-2 -28 -16 -56t12 -58q18 -6 40 -18t38 6q26 10 51 23t51 13q28 26 67 21t55 39q8 26 18 52t12 52q14 34 25 69l21 69q4 4 5 8t3 8t2 10t2 10q4 4 5 9t-1 9zM504 80q18 -8 5 -28t-25 -30q-14 -12 -29 -7t-29 -9
q-10 -2 -35 -10t-9 24q0 28 21 38t41 10q16 4 31 7t29 5z" />
    <glyph glyph-name="uniACD6" unicode="&#xacd6;" 
 />
    <glyph glyph-name="uniACD7" unicode="&#xacd7;" horiz-adv-x="930" 
d="M444 342q4 -6 10 -12t14 -10q26 -2 52 1t52 -5q6 -20 0 -44t8 -48q22 -12 52 -15t34 35q6 24 8 48t8 44q0 22 10 47t0 45q8 22 10 45l4 47q8 20 8 39t6 39q4 14 3 29t-1 29q0 22 3 41t1 39q-10 16 -23 22t-29 12q-32 8 -33 -21t-5 -45q-8 -30 -9 -63t-11 -63
q8 -20 -7 -11t-25 5q-8 -2 -17 -4t-19 -6q8 24 10 52t2 48l-18 37l-18 37q-28 16 -57 12t-59 -2q-12 6 -88 4t-116 0q-20 6 -40 -1t-40 -3q-18 8 -35 14t-33 2q-14 -14 -15 -33t13 -35q4 -46 37 -36t57 6q14 -8 29 -1t29 5q34 -2 68 -2h68h52t52 -14q14 8 20 -8t2 -26
q-2 -28 -12 -56t-22 -58q-8 -16 -79 -135t-87 -141q-20 -26 -54 -63t-44 -53q-26 -8 -11 -21t23 -25q28 -20 44 -10t36 28q10 2 36 41t40 53q16 16 29 36t21 38q10 10 25 36zM476 396q10 16 16 27t8 15q2 6 3 12t3 12q26 4 50 16t44 -4q-2 -20 1 -40t-23 -34q-26 -4 -51 -4
h-51zM806 826l-5 -6l-5 -6q0 -16 -5 -34t-5 -36q0 -22 -9 -45t-9 -45q-4 -14 -2 -29t-4 -29q4 -20 0 -44l-8 -48q-6 -30 -5 -61t-7 -65q0 -28 -5 -55t-5 -57q-2 -26 -1 -51t11 -51q10 -14 22 -17t26 -7q34 -2 36 25t10 45q-6 40 -2 81t4 79q4 52 6 103t12 103q-2 16 0 33
t4 37q0 20 8 39t8 39q-8 16 3 34t1 36q-10 28 -31 29t-43 3zM566 188q-20 -14 -24 -31l-8 -35q-26 -30 -62 -46t-70 -26q-30 -8 -25 -27t9 -37q28 -18 57 -10t57 28q14 4 28 13t28 5q16 -22 34 -59t50 -47q16 -8 35 -4t19 28q-14 52 -39 103t-37 103q6 16 -16 33t-36 9z" />
    <glyph glyph-name="uniACD8" unicode="&#xacd8;" 
 />
    <glyph glyph-name="uniACD9" unicode="&#xacd9;" 
 />
    <glyph glyph-name="uniACDA" unicode="&#xacda;" 
 />
    <glyph glyph-name="uniACDB" unicode="&#xacdb;" 
 />
    <glyph glyph-name="uniACDC" unicode="&#xacdc;" 
 />
    <glyph glyph-name="uniACDD" unicode="&#xacdd;" 
 />
    <glyph glyph-name="uniACDE" unicode="&#xacde;" 
 />
    <glyph glyph-name="uniACDF" unicode="&#xacdf;" 
 />
    <glyph glyph-name="uniACE0" unicode="&#xace0;" horiz-adv-x="1010" 
d="M300 678q-10 -2 -26 -7t-4 -23q-4 -14 6 -35t22 -29q22 -8 41 -3t39 1q64 4 131 -1t131 -3q20 -8 40 -8t38 -16q0 -20 -17 -40t-23 -42q-4 -8 -9 -20t-13 -22q-14 -20 -22 -37t-18 -41q-14 -14 -16 -31t-16 -35q-26 -16 -25 -40t15 -46q2 -12 12 -15t4 -11l-39 -8t-41 -2
q-20 -2 -43 -6t-45 6q-18 -12 -35 -2t-35 4q-30 10 -61 4t-65 4q-30 -10 -61 -8t-63 0q-12 -4 -23 -2t-23 -8q-16 -12 -9 -27t9 -31q14 -28 40 -24t46 0q20 4 39 3t39 -1q24 -6 47 1t45 1q72 2 143 -5t141 3q18 2 36 0t34 4q26 -8 51 -7t51 3q26 -2 51 2t51 -12
q22 -10 41 -7t39 9q20 10 12 30t-12 34q-2 16 -13 18t-21 16q-20 4 -40 3t-40 1q-4 6 -11 2t-11 -2q-22 2 -46 -1t-46 -1q-16 8 -34 2t-34 2q-6 -6 -16 -2t-8 14q16 16 22 33t16 37q8 22 21 45t19 43q8 24 22 41t26 39q4 16 9 27t19 27q2 22 10 46t22 44q-8 20 -8 42t-22 36
q-14 20 -32 13t-34 7l-35 4t-33 0q-74 2 -149 0t-149 4q-14 -4 -29 0t-25 6zM398 458q-6 -10 -16 -24t4 -28q-8 -14 -1 -28t5 -30q4 -20 6 -40t-10 -36q2 -20 -19 -35t-9 -33q10 -14 23 -21t27 -13q22 6 30 20t20 32q0 18 7 35t5 35q0 12 1 22t-3 22q6 14 1 29t-7 29
q4 26 -20 42t-44 22z" />
    <glyph glyph-name="uniACE1" unicode="&#xace1;" horiz-adv-x="938" 
d="M228 754q-14 -2 -34 -7t-22 -21q4 -20 13 -43t35 -17q28 10 52 8t50 2q56 14 109 14t109 2q22 -6 53 1t35 -33q-8 -18 -17 -32t-13 -32q-10 -26 -31 -70t-61 -28q-12 -2 -24 -2h-22q-24 -8 -24 14t-12 34q-4 18 -11 32t-15 34q-6 28 -36 30t-32 -32q-4 -18 6 -35t6 -33
q-2 -12 2 -23t0 -23q4 -12 -6 -15t-18 -1q-30 0 -99 -13t-83 -11q-20 -8 -39 -5t-41 -7q-14 -16 -16 -36t14 -40l14 -7t18 -7q38 16 75 17t75 11q56 -4 113 8t113 12q46 8 91 11t93 5q16 -2 33 2t33 4q34 -6 65 -4t61 -4q58 -12 40 35t-54 63q-28 2 -56 -1t-58 -1
q-12 2 -28 -1t-20 11q6 22 17 48l23 52q4 18 17 39t19 37q4 14 -3 29t-11 29q-18 26 -42 24t-46 0q-20 10 -195 1t-215 -25zM660 380q-38 -2 -74 -6l-74 -8q-32 4 -63 -8t-61 -14q-16 -14 -35 -8t-35 -10q-28 2 -20 -20t16 -32q8 -2 24 -18t30 2q20 -6 39 5t39 9q34 0 69 9
t67 9q36 2 27 -22t-1 -40q-8 -14 -8 -22t-10 -22l-12 -29t-16 -25q-14 -12 -24 -28t-2 -36q-6 -14 -6 -28t6 -28q-2 -8 5 -16t5 -16q16 -32 39 -15t31 37q14 22 14 46t20 44q16 22 18 47t10 51q6 18 7 35t5 35q2 18 3 38t5 40q-8 12 -13 29t-25 15z" />
    <glyph glyph-name="uniACE2" unicode="&#xace2;" 
 />
    <glyph glyph-name="uniACE3" unicode="&#xace3;" 
 />
    <glyph glyph-name="uniACE4" unicode="&#xace4;" horiz-adv-x="938" 
d="M630 730q-20 -14 -37 -9t-37 -5q-28 4 -57 -3t-57 -5q-38 -2 -78 -12t-80 -14q-16 -2 -35 -9t-35 -9q-8 -2 -15 -4t-9 -14q-6 -8 -2 -16t4 -18q-8 -30 19 -38t57 12q28 4 56 9t58 11q42 4 84 11t86 13q26 -2 52 4t50 -10q-4 -26 -25 -90t-19 -80q-2 -12 -6 -23t-6 -25
q-20 -20 0 -44t44 -18q14 4 27 17t11 27q0 16 32 95t28 97q-2 22 2 46t0 46q-14 10 -5 19t-7 13q-14 32 -45 28t-55 -2zM406 560q-2 -18 -4 -34t0 -32q10 -8 5 -16t9 -18q4 -16 5 -59t-7 -55q4 -26 -17 -29t-37 -9q-16 -2 -34 -1t-34 -3h-97t-97 -14q-24 16 -41 -9t1 -45
q-10 -16 8 -31t30 -9q22 0 99 5t107 15q26 4 51 6t51 -4q16 -8 17 -23t1 -29q6 -20 2 -40t-2 -40v-29t12 -25q10 -26 29 -26t35 2q10 20 112 27t122 13q28 2 57 -4t55 22q-8 22 -15 45t-35 31q-48 8 -97 -2t-97 -14q-22 2 -51 -12t-37 22q2 22 0 46t4 42q58 4 119 4t121 8
q34 -2 68 3t68 13q-2 16 2 34t-20 34q-8 24 -86 15t-112 -17q-40 2 -74 -4t-74 0q-20 2 -18 15t0 23q10 14 -3 71t-17 77q2 22 -31 45t-53 15z" />
    <glyph glyph-name="uniACE5" unicode="&#xace5;" 
 />
    <glyph glyph-name="uniACE6" unicode="&#xace6;" 
 />
    <glyph glyph-name="uniACE7" unicode="&#xace7;" horiz-adv-x="808" 
d="M658 748q-8 -4 -43 -23t-49 -5q-16 0 -151 4t-169 6q-18 -8 -39 2t-37 6q-14 12 -33 -9t-7 -33q-10 -20 2 -28t18 -26q8 -12 24 -18t26 2q74 12 148 10l148 -4q24 0 66 8t56 -22q-16 -6 -51 -80t-59 -108q-14 6 -34 5t-34 -7q-62 -2 -21 28t13 50q-4 26 -28 46t-52 20
q-8 4 -10 -2t-6 -14q-22 -16 -23 -37t3 -39q-2 -14 -6 -29t-16 -27q-38 -6 -83 -8t-81 2q-22 4 -41 14t-39 -6q2 -16 -4 -33t10 -33q-2 -12 6 -21t20 -7q72 2 152 4t152 0q54 4 107 6t107 2q16 0 35 -4t35 -8q18 -14 42 -8l46 12q10 20 7 40t-23 36q-6 8 -15 15t-15 9
q-14 16 -31 12t-33 -4q-20 -20 -25 -2t5 26q28 28 39 67t39 61q-2 10 13 46t1 56q-20 16 -30 33t-32 17zM402 292q-38 -2 -75 -3t-73 -3q-14 -2 -30 -4t-30 -4q-10 0 -11 -13t1 -23q-4 -16 9 -31t31 -17q32 -4 21 -29t-25 -39q-10 -6 -15 -13t-5 -17q-8 -12 -3 -27t1 -31
q2 -20 20 -36t40 -12q42 14 84 14t86 6q34 6 69 13t67 3q16 6 34 -5t34 -9q30 -12 41 14t-3 46q-2 12 -12 18t-20 14q-72 24 -143 3t-143 -13q-26 -8 -27 15t5 35q4 10 5 18t1 18q8 34 34 26t46 0q18 2 35 5t33 1q44 4 86 -5l86 -19q26 18 18 41t-18 45q-14 10 -29 17t-29 3
q-10 -14 -92 -6t-104 4z" />
    <glyph glyph-name="uniACE8" unicode="&#xace8;" horiz-adv-x="938" 
d="M228 754q-14 -2 -34 -7t-22 -21q4 -18 13 -42t35 -16q28 10 52 7t50 1q56 14 109 14t109 2q22 -4 53 2t35 -34q-8 -18 -17 -32t-13 -32q-10 -26 -31 -69t-61 -27q-12 -2 -24 -2h-22q-24 -10 -24 12t-12 34q-4 20 -11 34t-15 34q-6 28 -36 29t-32 -31q-4 -20 6 -37t6 -33
q-2 -12 2 -23t0 -21q4 -12 -6 -15t-18 -1q-30 0 -99 -14t-83 -12q-20 -8 -39 -4t-41 -6q-14 -16 -16 -37t14 -39q4 -2 14 -8t18 -8q38 16 75 18t75 10q56 -4 113 9t113 13q46 6 91 9t93 5q16 -2 33 3t33 5q34 -8 65 -5t61 -5q58 -12 40 35t-54 65q-28 2 -56 -2t-58 -2
q-12 4 -28 0t-20 10q6 22 17 48l23 52q4 20 17 40t19 36q4 14 -3 30t-11 28q-18 26 -42 25t-46 1q-20 8 -195 0t-215 -26zM564 338q-56 -10 -112 -8t-114 -2q-20 0 -51 -1t-59 -17q-16 -14 -12 -47t46 -29q28 4 64 6t68 6q44 0 75 1t67 -1q20 12 22 -7t-2 -29
q-26 -18 -53 -19t-51 -3q-16 -4 -42 -5t-50 -3l-57 -8l-57 -8q-22 0 -25 -15t-5 -21q-4 -26 25 -37t21 -29l11 -53t23 -55l21 -27t33 3q10 10 19 13t17 1q20 10 140 15t150 9q14 2 19 20t-1 30q-4 10 -19 21t-25 15q-10 10 -26 4t-30 -8q-38 -6 -104 -6t-104 -10
q-14 0 -20 17t-10 41q30 0 62 4t56 10q28 2 54 2t48 6q22 -4 39 7t19 27q24 16 21 37t-5 39q2 16 2 28t2 26q-2 14 -7 35t-25 19q-14 10 -29 7t-29 -1z" />
    <glyph glyph-name="uniACE9" unicode="&#xace9;" 
 />
    <glyph glyph-name="uniACEA" unicode="&#xacea;" horiz-adv-x="938" 
d="M228 738q-14 -2 -34 -7t-22 -21q4 -20 13 -43t35 -15q28 10 52 7t50 1q56 14 109 14t109 2q22 -6 53 1t35 -33q-8 -18 -17 -32t-13 -32q-10 -26 -31 -70t-61 -26q-12 -4 -24 -4h-22q-24 -8 -24 14t-12 34q-4 18 -11 33t-15 35q-6 26 -36 28t-32 -32q-4 -18 6 -35t6 -33
q-2 -12 2 -23t0 -23q4 -12 -6 -15t-18 -1q-30 0 -99 -13t-83 -11q-20 -8 -39 -4t-41 -6q-14 -18 -16 -38t14 -40l14 -7t18 -7q38 16 75 17t75 11q56 -4 113 8t113 12q46 8 91 11t93 5q16 -2 33 2t33 4q34 -6 65 -4t61 -4q58 -12 40 35t-54 63q-28 2 -56 -1t-58 -1
q-12 2 -28 -1t-20 11q6 22 17 48l23 52q4 18 17 39t19 37q4 14 -3 29t-11 29q-18 26 -42 25t-46 1q-20 8 -195 -1t-215 -25zM418 318l-9 -3l-9 -3l-74 -15t-72 -11q-8 -2 -18 -7t-18 1q-14 -4 -34 -9t-14 -27q10 -20 21 -32t31 -26q18 -6 35 1t35 1q20 16 39 16h41
q-2 -22 -22 -40t-36 -24q-22 10 -45 4t-47 -10q-20 -2 -45 -12t-39 -40q-6 -34 -11 -69t5 -65q4 -30 34 -51t56 -13q28 -6 53 -4t49 10q22 4 53 7t37 35q-2 16 -2 29t-22 23q-22 16 -49 4t-53 -6q-18 4 -38 -2t-40 10q0 14 11 35t33 17q36 28 72 19t74 7q30 18 44 49t24 57
q12 14 10 32t0 36q10 22 -11 48t-49 28zM716 308q-22 -2 -45 -7t-47 -13q-12 -6 -23 -8t-23 -10q-10 22 -36 34t-42 -16q-8 -28 -5 -56t-5 -58q0 -38 -13 -79t-17 -81q6 -18 29 -46t49 4q40 22 80 36t78 10q12 22 35 38t35 40q-4 30 8 61t12 63q12 28 -11 63t-59 25z
M674 204q16 -8 12 -28t-12 -36q-20 -24 -45 -25t-47 -15q-20 -2 -11 16t3 28q6 40 40 42t60 18z" />
    <glyph glyph-name="uniACEB" unicode="&#xaceb;" 
 />
    <glyph glyph-name="uniACEC" unicode="&#xacec;" horiz-adv-x="906" 
d="M554 748q-58 2 -114 -5t-114 -19q-36 -12 -73 -8t-75 -16q-32 -32 -9 -57t51 -29q22 8 41 10t39 8q46 16 91 12t91 10q16 -6 36 2t26 -16l-16 -33t-18 -31q-22 -14 -24 -42t-30 -36q-20 0 -43 -8t-45 0q-12 22 -16 46t-32 42q-14 16 -27 7t-17 -23q2 -22 2 -46t-14 -46
q8 -14 -5 -12t-17 -6q-26 -20 -52 -21t-52 -11q-22 -18 -51 -18t-47 -18q10 -20 20 -45t38 -25q100 40 202 62t200 36q80 12 163 10t165 0q38 -6 37 24t-3 48q-18 24 -42 23t-46 -5q-38 -6 -78 -10t-80 -2q-42 -14 -28 13t16 41q10 22 21 41t19 39q4 14 10 23t8 17
q16 44 -33 64t-75 10zM578 350q-8 -4 -14 -4t-14 -10q-18 -16 -34 -38l-32 -44q-14 -34 -40 -68t-12 -70q52 -24 83 36t71 80q30 -18 28 -38t20 -40q10 -8 16 -22t22 -18q14 -12 31 -9t31 15q-8 12 6 28t-12 30q-30 28 -42 56t-34 58q-12 22 -30 43t-44 15zM372 318
q-36 -2 -68 -14t-66 -22q-40 -18 -87 -20t-73 -56q-20 -28 11 -37t45 -3q40 16 81 21t75 35q16 4 27 -4t5 -26q-14 -22 -38 -25t-44 -13q-30 -14 -64 -15t-56 -41q6 -20 8 -44t10 -46q10 -38 46 -45t64 -5q46 4 92 15t90 37q44 2 46 51t-42 41q-54 -26 -108 -40t-108 -30
q-16 -8 -20 8t6 20l46 12t46 16q28 16 63 22t55 34v17v17q-8 34 2 80t-44 60z" />
    <glyph glyph-name="uniACED" unicode="&#xaced;" 
 />
    <glyph glyph-name="uniACEE" unicode="&#xacee;" 
 />
    <glyph glyph-name="uniACEF" unicode="&#xacef;" horiz-adv-x="852" 
d="M584 400q6 40 16 96t10 82q4 26 21 49t13 37q10 12 7 28t-11 28q-2 24 -27 40t-47 6q-28 -4 -58 -5t-60 -3q-28 -10 -96 -10t-98 -4q-20 -2 -39 -1t-41 -3q0 -18 -6 -37t16 -29q42 -26 125 -14t125 12l66 12t58 -4q-2 -38 -26 -83t-24 -59q-4 -18 -6 -61t2 -77
q-24 0 -45 -1t-33 -5q-16 -12 -23 6t1 28q-4 22 10 77t18 63q-2 14 -45 5t-55 -45q-2 -30 -19 -52t-15 -54q14 -12 8 -21t-20 -5q-20 -8 -44 -9t-46 -1q-32 2 -63 0t-63 -6q-30 6 -26 -19t0 -41q-4 -14 8 -22t24 -12q22 -2 40 3t38 9q10 -12 136 2t182 14q32 0 63 1t63 5
q22 -2 45 1t45 1q18 4 35 -5t35 -1q22 -18 37 2t17 38q0 16 -24 38t-42 30q-20 8 -40 -1t-40 -13q-10 -4 -32 -6t-50 -4zM424 266q-8 -4 -19 -7t-9 -15l18 -44t10 -48q16 -26 -5 -28t-35 -18q-36 -8 -29 -37t31 -39q10 -16 23 -5t15 -5q4 -12 7 -22t5 -22q-6 -24 22 -44
t46 -24q34 -10 69 2t65 50q16 34 14 69t-42 65q-26 22 3 23t23 21q-6 40 -43 47t-65 -9q-14 -16 -18 -3t-8 21q-12 26 -30 49t-48 23zM522 72q28 -8 42 -38t-2 -52q-34 -26 -53 16t-5 64l9 5zM318 260q-32 -8 -66 -12t-68 -16q-16 -12 -46 -23t-22 -39q2 -6 16 -16t22 -4
q22 -4 42 -3t40 13q10 4 25 7t29 5q32 -6 11 -17t-29 -13q-38 -20 -106 -44t-44 -92q0 -20 19 -43t43 -33q48 0 98 15t94 47q10 12 -2 27t-26 15q-26 -6 -52 -6t-52 -16q-8 -4 -30 -5t-6 19q34 26 71 40t75 32q14 8 31 24t9 32q4 28 -14 72t-62 34z" />
    <glyph glyph-name="uniACF0" unicode="&#xacf0;" horiz-adv-x="938" 
d="M228 712q-14 -2 -34 -7t-22 -21q4 -18 13 -42t35 -16q28 10 52 7t50 1q56 14 109 14t109 2q22 -4 53 2t35 -34q-8 -18 -17 -32t-13 -32q-10 -26 -31 -69t-61 -27q-12 -4 -24 -3t-22 1q-24 -10 -24 12t-12 34q-4 18 -11 33t-15 35q-6 28 -36 29t-32 -31q-4 -20 6 -37
t6 -33q-2 -12 2 -23t0 -23q4 -10 -6 -13t-18 -1q-30 0 -99 -14t-83 -12q-20 -8 -39 -4t-41 -6q-14 -16 -16 -37t14 -39q4 -2 14 -8t18 -8q38 16 75 18t75 10q56 -4 113 8t113 12q46 8 91 11t93 5q16 -2 33 3t33 5q34 -8 65 -5t61 -5q58 -12 40 35t-54 63q-28 4 -56 0t-58 -2
q-12 2 -28 -1t-20 11q6 22 17 48l23 52q4 20 17 40t19 36q4 14 -3 29t-11 29q-18 26 -42 25t-46 1q-20 8 -195 0t-215 -26zM258 276q-12 0 -21 -4t-15 -18q6 -22 4 -45t2 -47q-2 -22 -1 -72t-7 -64q-2 -8 -15 -15t-23 -9q-40 -4 -21 -38t43 -32q14 -6 35 -2t35 -2
q22 10 80 3t74 -5q28 -8 49 -13t47 21q18 20 39 37t31 37l37 46t27 52q10 26 24 52t14 50q0 46 -37 53t-65 7q-14 0 -36 -1t-40 1q-36 -2 -69 -2t-69 -8q-18 10 -35 1t-33 -9q-14 -18 -29 6t-25 20zM464 184q32 -2 63 0t63 -4q4 -14 -3 -25l-15 -23q-14 -30 -44 -68t-62 -56
q-30 10 -61 7t-65 1q-8 -8 -27 5t-3 27q0 28 -1 56t3 56l29 8t29 2q22 10 46 10t48 4z" />
    <glyph glyph-name="uniACF1" unicode="&#xacf1;" horiz-adv-x="938" 
d="M228 698q-14 -2 -34 -8t-22 -22q4 -18 13 -41t35 -17q28 10 52 7t50 3q56 14 109 13t109 3q22 -6 53 1t35 -33q-8 -18 -17 -32t-13 -32q-10 -26 -31 -70t-61 -28q-12 -2 -24 -2h-22q-24 -8 -24 14t-12 34q-4 18 -11 32t-15 34q-6 28 -36 30t-32 -32q-4 -18 6 -35t6 -33
q-2 -12 2 -23t0 -23q4 -12 -6 -15t-18 -1q-30 0 -99 -13t-83 -11q-20 -8 -39 -5t-41 -7q-14 -16 -16 -36t14 -40l14 -7l18 -9q38 16 75 18t75 12q56 -4 113 8t113 12q46 8 91 11t93 5q16 -2 33 2t33 4q34 -6 65 -4t61 -4q58 -12 40 35t-54 63q-28 2 -56 -1t-58 -1
q-12 2 -28 -2t-20 10q6 22 17 49t23 53q4 18 17 39t19 37q4 14 -3 29t-11 29q-18 26 -42 24t-46 0q-20 10 -195 1t-215 -25zM622 316q-14 -8 -24 -17t-14 -23q-18 -20 -19 -44t-13 -46l-86 -21t-86 -17q-20 -6 -41 -9t-35 17q6 12 0 48t-10 40q-8 6 -19 9t-17 7
q-26 4 -33 -6t-9 -26q0 -14 4 -63t0 -63q18 -34 5 -69t23 -65q14 -46 45 -42t57 0q58 -4 115 6t113 12q18 -10 40 -16t38 24q4 56 3 113t-1 113q-14 34 12 64t-12 56q0 10 -13 13t-23 5zM558 100q4 -10 3 -26t1 -30q-14 -22 -38 -18t-46 -4q-32 -12 -63 -10t-63 -8
q-20 0 -25 22t5 32q32 10 63 11t61 11q28 2 52 8z" />
    <glyph glyph-name="uniACF2" unicode="&#xacf2;" 
 />
    <glyph glyph-name="uniACF3" unicode="&#xacf3;" horiz-adv-x="896" 
d="M718 766q-14 -20 -28 -15t-30 -5q-12 4 -22 1t-24 1q-26 -12 -51 -15t-51 -1q-14 -6 -29 -4t-29 -2q-30 4 -61 -13t-63 -5q-8 -2 -17 0t-17 -6q-14 6 -28 2t-30 -2q-18 4 -35 7t-33 1q-22 4 -21 -15t-1 -29q-6 -12 7 -22t19 -14q10 -14 23 -9t21 -7h51t51 2q34 -2 69 3
t67 13q32 10 59 6t55 6q22 -6 47 6t41 -12q-26 -38 -47 -78l-43 -80q-14 -20 -20 -41t-22 -37q-16 4 -40 0t-28 24q10 18 11 35t1 35q10 22 -3 51t-39 37q-20 4 -32 -13t-4 -33q14 -16 5 -34t-11 -34q-8 -14 -11 -35t-19 -27q-38 4 -79 3t-81 -1q-36 4 -73 4t-73 -16
q-10 -20 12 -51t48 -19q28 10 52 1t50 1q62 -2 122 0t118 -6q58 -16 115 -14t113 -8q34 -2 69 -11t69 -7q20 -8 29 14t3 36q-8 32 -37 43t-51 7q-26 -2 -52 1t-52 1q-40 6 -19 29t17 43q14 42 43 84l61 86q6 22 26 30t18 30q0 16 -1 31t-19 23q-14 12 -30 19t-36 5zM346 254
q-20 -14 -43 -34t-45 -34q-36 -18 -70 -32t-68 -20q-28 6 -26 -16t6 -34q6 -34 30 -29t40 5q40 -4 81 25t79 43q10 14 21 13t25 -9q18 -34 56 -57t70 -57l24 -24t28 -16q12 -8 27 -2l29 12q6 20 -10 42t-30 30q-26 34 -62 58t-70 50q-8 22 -26 35t-20 37q-8 6 -22 12t-24 2z
" />
    <glyph glyph-name="uniACF4" unicode="&#xacf4;" 
 />
    <glyph glyph-name="uniACF5" unicode="&#xacf5;" horiz-adv-x="852" 
d="M640 790l-7 -3l-7 -3q-16 -8 -31 -7t-29 5q-46 0 -96 -1t-96 -7q-30 2 -58 2t-56 -4q-24 -2 -47 -12t-45 -2q-30 6 -45 -24t17 -44q12 -14 30 -23t34 3q28 20 53 15t51 1q48 0 96 8t98 4q24 -6 51 1t45 -21q-6 -26 -17 -51t-19 -53q-8 -14 -12 -29t-10 -25
q-2 -20 -21 -40t-21 -40q-22 -12 -25 -28t-5 -32q14 -24 43 -33t51 13q20 42 43 85t31 85q6 44 32 90t46 88q-2 22 -8 43t-34 31q-4 10 -13 8t-19 0zM356 630l-8 -7l-8 -7q-4 -34 -1 -68t-7 -68q0 -36 -22 -70t-8 -68q20 -20 1 -18t-23 0q-20 -10 -40 -11t-40 -1
q-34 2 -68 0t-70 -6q-20 2 -19 -19t1 -35q-4 -20 9 -25t27 -15q18 0 36 5t34 9q10 -8 22 -3t20 1q10 -4 18 3t16 -1q30 4 58 9t56 1q12 -2 30 -1t20 -13q-16 -2 -35 -17t-33 -31q-40 -26 -47 -58t-1 -64q4 -66 66 -88t104 -18q28 -2 63 20t55 52q34 40 33 81t-29 79
q-2 10 -12 16t-14 12q-12 4 -23 9t-21 7q-8 2 -26 4t0 14q34 0 65 1t61 7q24 -2 47 1t45 1q16 4 33 -6t37 -2q22 -16 37 3t17 37q0 18 -24 40t-42 30q-22 8 -41 0l-39 -16q-12 10 -23 2t-23 -6q-18 10 -35 1t-33 -9q-32 -10 -64 -2t-62 -2q-16 -10 -23 8t1 28q-4 22 10 41
t10 39q6 8 5 20t1 24q4 10 1 18t1 16q-2 14 8 28t4 28q-18 32 -38 44t-50 16zM412 158q28 4 57 -10t45 -42q8 -26 -18 -51t-50 -27q-22 -2 -58 2t-34 44q-14 22 9 53t49 31z" />
    <glyph glyph-name="uniACF6" unicode="&#xacf6;" horiz-adv-x="852" 
d="M566 824q-28 -4 -58 -5t-60 -3q-28 -10 -73 -10t-75 -4q-20 -2 -39 -1t-39 -3q0 -16 -6 -36t14 -30q42 -24 102 -13t102 11q34 8 66 13t58 -3q-2 -38 -13 -79t-19 -81q0 -14 -9 -29t-9 -29q-6 -24 -7 -51t13 -45q16 4 33 4t35 8q0 30 14 61t14 63q4 26 21 86t13 74
q10 14 7 29t-11 27q-2 26 -27 41t-47 5zM358 688q-6 -2 -10 -6t-8 -14q-2 -32 1 -67t-9 -69q-2 -32 -19 -63t-15 -63q14 -12 8 -21t-20 -3q-20 -10 -44 -11t-46 -1q-32 2 -63 0l-63 -4q-30 4 -26 -20t0 -40t8 -23t24 -11q22 -4 40 1t38 9q10 -12 22 -1t22 -3q14 10 24 6
t22 -2q56 22 114 13t114 3q32 0 63 1t63 7q22 -2 45 1t45 1q18 4 35 -6t35 -2q22 -18 37 2t17 38q0 18 -24 40t-42 28q-20 10 -40 1t-40 -15q-12 8 -23 1t-23 -5q-16 10 -34 1t-34 -9q-32 -10 -63 -2t-63 -2q-16 -10 -23 8t1 26q-4 22 10 42t10 40q6 8 5 20t1 22q4 10 1 19
t1 17q-2 14 9 28t3 28q-18 30 -38 43t-48 17zM564 252q-4 -2 -11 -5t-11 -1q-46 -4 -96 -15l-96 -21q-26 -4 -58 -10t-48 -34q-4 -20 17 -31t35 -9q30 4 58 11t56 5l-90 -48l-92 -48q-18 -12 -24 -34t16 -38q36 -14 73 13t75 39l33 20t31 -4l28 -27t20 -33q16 -8 13 -20
t11 -22q12 0 18 -18t20 -4q18 -20 33 3t13 35q8 4 3 11t1 11l-41 56t-45 52q-2 4 -9 11t3 9q34 10 69 28t67 28q18 12 21 35t-13 31q-18 24 -38 21t-42 3z" />
    <glyph glyph-name="uniACF7" unicode="&#xacf7;" 
 />
    <glyph glyph-name="uniACF8" unicode="&#xacf8;" 
 />
    <glyph glyph-name="uniACF9" unicode="&#xacf9;" 
 />
    <glyph glyph-name="uniACFA" unicode="&#xacfa;" 
 />
    <glyph glyph-name="uniACFB" unicode="&#xacfb;" 
 />
    <glyph glyph-name="uniACFC" unicode="&#xacfc;" horiz-adv-x="970" 
d="M796 688q-20 -4 -21 -22t13 -24q2 -12 -9 -26t-15 -30q-14 -8 -14 -19t-8 -17q-14 -26 -56 -127t-56 -119q6 -22 -11 -25t-33 -5q-14 4 -26 0t-16 8q12 10 37 100t39 112q18 28 24 55t30 51q10 22 -8 50t-40 28q-10 14 -24 6t-24 -4q-16 -8 -31 -3t-31 7q-30 0 -107 -9
t-107 -7q-32 10 -63 -3t-57 -19q-10 2 -17 -5t-13 -5q-32 -10 -24 -35t34 -27q18 0 34 2t34 0q28 4 56 7t56 7q34 4 99 5t81 -3q14 -8 28 -5t18 -1q-4 -24 -55 -146t-53 -138q-14 -20 -37 -28t-41 0q-14 6 -5 17t7 25q2 10 14 56t14 60q10 32 7 65t-31 57q-6 0 -11 13t-19 1
q-20 -12 -24 -33t2 -39q10 -6 -1 -16t1 -20q2 -16 -15 -72t-27 -74q-22 -12 -10 -20t-6 -16q-16 6 -69 3t-69 -11q-20 4 -38 -4t-34 -6q-28 -8 -21 -27t7 -33q16 -26 40 -21t44 7q6 10 86 9t88 1q12 -8 22 -3t18 1q30 -8 58 -3t54 3q28 -2 56 1t54 -1q30 10 20 -12t-16 -32
q-8 -20 -29 -37t-15 -41q2 -16 13 -34t25 -22q40 -26 53 10t15 58q12 16 28 68t30 70q10 26 13 50t21 50q6 6 9 18t11 6q22 -4 49 -42l35 -50q20 -4 34 -24t36 0q4 16 14 32t-4 30q-8 8 -27 37t-33 37q-20 12 -46 42t-20 52q14 16 22 36t18 40q16 10 16 24t8 22q-2 14 9 25
t9 27q10 32 -22 48t-54 6z" />
    <glyph glyph-name="uniACFD" unicode="&#xacfd;" horiz-adv-x="882" 
d="M434 416q4 4 6 9t4 9q26 42 56 86t50 82q18 12 19 36t25 36q6 10 10 16t12 12q16 10 9 22t3 22q-8 22 -27 49t-47 21q-24 -14 -48 -17t-48 5q-16 -4 -34 -3t-34 -3q-32 -4 -63 -9t-61 -9q-32 4 -60 -16t-56 0q-24 10 -39 -20t11 -48q4 -14 18 -21t28 -3q32 16 63 19t63 5
q12 4 23 3t21 -1q14 10 30 10h30q8 6 16 5t16 1q16 -4 41 2t21 -24q-24 -56 -61 -109t-69 -109q-2 -12 -12 -26t-8 -30h-9h-9q-28 -2 -16 16t0 28q12 10 7 18t-3 16q4 10 2 19t4 17q0 14 4 28t-6 28q-8 28 -39 30t-53 -26q-14 -20 -3 -38t5 -40q-12 -28 -5 -58t-21 -52
q-12 -2 -23 -2h-21q-18 -12 -36 -2t-34 6q-14 8 -27 -10t-11 -30q-8 -20 10 -31t32 -27q22 0 47 1t45 7q14 4 28 5t28 5q30 -6 58 1t56 1q40 8 75 5t73 -1q18 -2 35 0t27 -6q-4 -2 -13 -38t-11 -40v-1v-1q-8 -2 -15 -4t-17 -6q-52 -24 -106 -30t-108 -26q-22 -8 -11 -20
t17 -22q22 -20 41 -24t39 4q32 -2 63 10l61 24q8 -2 20 5t10 -3q2 -14 -5 -29t-9 -29l-28 -52t-30 -50q-8 -30 30 -64t60 16q8 18 24 46t22 52q10 22 17 45t17 47q4 10 10 21t8 21q10 16 1 33t-25 27q4 16 14 45t6 35q4 14 13 61t23 61q10 14 11 28t9 28q0 40 25 16t35 -32
q16 -20 43 -16t35 36q4 14 3 31t-21 21q-14 10 -26 14t-22 20q-34 14 -32 35t8 41q10 14 14 28t10 28l7 18t3 16q0 24 -29 45t-47 17q-16 -6 -22 -17t2 -25l-4 -36t-12 -34q-4 -16 -13 -33t-9 -35q-18 -38 -27 -74t-23 -74q-10 -18 -10 -35t-14 -31q-34 -4 -69 -4h-71z" />
    <glyph glyph-name="uniACFE" unicode="&#xacfe;" 
 />
    <glyph glyph-name="uniACFF" unicode="&#xacff;" 
 />
    <glyph glyph-name="uniAD00" unicode="&#xad00;" horiz-adv-x="1028" 
d="M772 786q-2 -6 -10 -12t-8 -12q4 -4 -5 -11t-1 -11q6 -14 6 -25t8 -23q14 -20 -18 -145t-38 -147q-6 -28 -17 -58t-23 -58q-14 -28 -42 -24t-52 -2q-14 -8 -18 5t4 21q0 22 66 131t64 127q12 26 10 52t0 52q0 22 -25 35t-45 17q-18 -10 -36 -12t-34 -10l-62 -4t-62 0
q-38 -8 -75 -6t-73 0q-20 0 -40 7t-42 -3q-20 22 -29 -1t-7 -35q10 -14 9 -30t9 -26q58 -16 116 -1t114 13q28 -8 56 -5t58 1q14 4 28 4t28 -4q32 -8 -27 -108t-63 -114q-10 -26 -28 -46t-22 -44q-20 -22 -13 -3t5 23q2 22 9 46l13 46q-4 12 -1 22t5 22q12 22 -14 71t-60 7
q-16 -8 -20 -28t-18 -34q-2 -14 8 -26t10 -28q-14 -32 -21 -68t-33 -64q-20 -2 -38 -2h-40q-14 0 -65 -4t-73 -12q-12 -4 -29 -6t-21 -12q-10 -14 -3 -24t7 -22q0 -20 19 -29t33 -3q30 18 86 27t64 5q12 4 23 1t21 -7q28 -2 18 -22t-10 -34q2 -26 -8 -47t6 -43q2 -8 17 -29
t29 -25q20 8 124 5t116 -7q58 -4 115 0t113 -16q24 -10 29 9t3 33q4 16 -6 26t-16 24q-16 0 -77 1t-77 23q10 16 11 30t9 28q10 16 16 35t26 15q26 -8 44 25t-16 43q-22 4 -15 20t9 28q-4 18 5 38t13 40q20 8 15 23t17 7q8 2 17 0t17 -4q26 -2 51 -34t45 -46q22 8 35 29
t9 39q-2 22 -66 70t-84 66q10 22 9 41t7 39q-8 22 -5 41t1 39q-4 24 -19 69t-55 35zM542 172q18 0 35 -3t33 1q34 -4 15 -27t-19 -39q-14 -14 -16 -35t-26 -15q-38 2 -75 0l-73 -4q-24 6 -16 27t2 35q0 14 -2 40t30 16q28 4 57 3t55 1z" />
    <glyph glyph-name="uniAD01" unicode="&#xad01;" 
 />
    <glyph glyph-name="uniAD02" unicode="&#xad02;" 
 />
    <glyph glyph-name="uniAD03" unicode="&#xad03;" 
 />
    <glyph glyph-name="uniAD04" unicode="&#xad04;" horiz-adv-x="948" 
d="M530 378q4 4 5 8t3 6l57 86t49 82q18 12 19 36t25 36q6 10 11 16t13 14q16 8 9 20t3 24q-8 20 -28 47t-48 23q-24 -14 -48 -17t-48 3q-18 -2 -35 -1t-33 -3q-30 -6 -62 -11t-64 -7q-28 2 -57 -18t-57 2q-22 10 -37 -20t11 -50q4 -14 17 -20t27 -4q30 16 63 19t63 5
q12 4 22 3t22 -1q16 10 30 10h28q10 6 18 5t16 1q16 -4 42 2t22 -24q-26 -56 -63 -109t-67 -109q-2 -12 -13 -26t-9 -30h-14t-12 -2q-6 2 -11 16t5 20q2 10 11 58t5 54q8 14 -6 27t-28 7q-14 4 -28 -6t-18 -24q-4 -10 -14 -71t-14 -71q-20 -10 -44 -11t-46 -1q-16 -2 -67 -2
h-69q-28 -2 -37 -31t19 -47q40 -12 109 -10t105 0q56 10 164 9t164 5q-2 -8 -13 -30l-23 -48h-4h-6q-44 -2 -88 -19t-90 -19q-28 -12 -56 -11t-58 -27q-24 -26 10 -39t48 -5l96 8t96 18q10 -4 22 4t20 4q2 0 2 -1t2 -1q4 -2 5 -4l3 -6q-24 -16 -50 -26t-50 -12
q-40 -18 -80 -15t-80 -9q-16 6 -47 -18t1 -44q16 -18 15 -43t19 -45l21 -14t23 -10q26 4 51 -1t51 3q40 0 80 5t80 25q12 4 35 16t11 32q-14 10 -10 23t-14 15q-30 -8 -63 -15t-63 -9q-30 2 -62 -5t-60 3q6 22 29 16t43 4q46 20 95 25t97 43q4 26 17 51t3 51q0 4 -1 9t-5 7
q32 64 67 166t39 116q12 10 13 26t21 10q16 -8 30 -7t28 -7q12 8 29 7t19 21q-8 40 -38 48t-56 30q4 22 13 45t11 45q2 32 12 63t14 61q10 28 -13 37t-43 15q-16 -8 -22 -25t-10 -31q-8 -28 -18 -56t-14 -58q-8 -38 -21 -73t-23 -75l-33 -85t-29 -67q-14 -4 -44 -6t-64 -4z
" />
    <glyph glyph-name="uniAD05" unicode="&#xad05;" 
 />
    <glyph glyph-name="uniAD06" unicode="&#xad06;" horiz-adv-x="940" 
d="M522 418q4 4 5 8t3 6l57 86t49 82q18 12 19 36t25 36q6 10 11 16t13 14q16 8 9 20t3 24q-8 20 -28 47t-48 23q-24 -14 -48 -17t-48 3q-18 -2 -35 -1t-33 -3q-30 -6 -62 -11t-64 -7q-28 2 -57 -18t-57 2q-22 10 -37 -20t11 -50q4 -14 17 -20t27 -4q30 16 63 19t63 5
q12 4 22 3t22 -1q16 10 30 10h28q10 6 18 5t16 1q16 -4 42 2t22 -24q-26 -56 -63 -109t-67 -109q-2 -14 -14 -27t-8 -29h-14t-12 -2q-6 2 -11 16t5 20q2 10 11 58t5 54q8 14 -6 27t-28 7q-14 4 -28 -6t-18 -24q-4 -10 -14 -71t-14 -71q-20 -10 -44 -11t-46 -1q-16 -2 -63 4
t-65 6q-28 -2 -37 -31t19 -47q40 -12 105 -16t101 -6q56 10 164 9t164 5q-2 -8 -13 -27t-21 -41q-8 14 -21 21t-29 9l-9 -2l-9 -2q-36 -8 -73 -15t-75 -11q-8 -2 -16 -7t-16 -1q-14 -2 -35 -7t-15 -31q10 -18 21 -31t33 -25q16 -4 33 3t35 -1q20 14 40 14h40q-2 -20 -21 -38
t-37 -24q-22 10 -45 4l-45 -12q-22 -2 -47 -11t-39 -41q-6 -32 -11 -68t5 -66q4 -28 35 -46t57 -10q26 -8 51 -5t49 11q24 6 54 4t36 34q-2 16 -2 27t-22 21q-22 16 -49 5t-53 -7q-18 4 -38 -2t-38 12q0 14 10 36t30 16q38 28 75 20t73 8q28 16 44 48t26 58q6 6 8 13t0 13h9
t7 2q0 -6 -1 -13t-3 -15q0 -40 -12 -81t-16 -81q6 -18 28 -46t48 4q40 20 80 35t78 11q14 24 36 40t34 36q-4 30 8 63t12 63q12 28 -11 63t-57 27q-24 -2 -47 -8l-47 -12q-10 -8 -21 -10t-25 -10q-2 4 -5 8t-7 8q30 64 60 144t34 94q12 10 13 26t21 10q16 -8 30 -7t28 -7
q12 8 29 7t19 21q-8 40 -38 48t-56 30q4 22 13 45t11 45q2 32 12 56t14 54q10 28 -37 26t-51 -16q-8 -28 -18 -56t-14 -58q-8 -38 -21 -73t-23 -75l-33 -85t-29 -67q-14 -4 -44 -6t-64 -4zM774 182q16 -8 12 -27t-12 -35q-22 -24 -45 -26t-45 -16q-22 -2 -12 16t2 32
q8 40 41 41t59 15z" />
    <glyph glyph-name="uniAD07" unicode="&#xad07;" 
 />
    <glyph glyph-name="uniAD08" unicode="&#xad08;" 
 />
    <glyph glyph-name="uniAD09" unicode="&#xad09;" 
 />
    <glyph glyph-name="uniAD0A" unicode="&#xad0a;" 
 />
    <glyph glyph-name="uniAD0B" unicode="&#xad0b;" 
 />
    <glyph glyph-name="uniAD0C" unicode="&#xad0c;" horiz-adv-x="926" 
d="M718 736q-82 -10 -163 -8t-163 -2q-34 0 -68 -8t-68 0q-14 -14 -29 -2t-29 -12q-18 -8 -13 -17t-3 -19q-8 -16 11 -47t45 -23q20 2 31 21t31 15q14 6 28 7t28 1q36 2 70 7t70 1q50 -4 102 4t102 -6q18 -14 4 -28t-16 -28q-14 -4 -14 -13v-19q-14 -14 -18 -32t-20 -32
q-12 -22 -20 -38t-22 -38q-18 -26 -44 -55t-60 -21q-22 4 -12 17t4 23q-8 28 13 52t9 50q-4 16 5 28t-1 26q8 22 -13 36t-35 18q-46 -2 -39 -37t3 -59q2 -22 -9 -45t-13 -47q-2 -16 -8 -34t-12 -32h-98h-98q-28 -2 -56 -2t-58 2q-16 12 -24 -5t-6 -27q14 -8 19 -34t27 -14
q12 -6 23 -4t23 -2q38 8 74 6t74 0h41h41q50 12 101 10t101 8q66 10 132 9t132 -7q38 -14 47 27t-25 49q-8 8 -20 11t-20 7q-14 -4 -28 -5t-28 -1q-16 -8 -31 -5t-29 1q-38 -2 -12 26t22 48q16 16 22 33t20 31q2 22 16 33t14 33q14 14 14 31t8 33q12 20 5 40t-7 40
q-20 16 -39 21t-41 3zM644 238q-8 -4 -17 -2t-19 -4q-48 2 -97 -6t-97 -4q-12 -8 -22 -4t-22 -12q-14 16 -29 22t-29 6q-38 -4 -32 -31t20 -49q-2 -20 1 -38t17 -40q8 -20 22 -47t38 -25q22 28 46 21t44 -3q36 4 70 1t68 -7q16 4 28 -11t28 5q20 4 26 25t16 35q-10 20 2 39
t22 39q-6 22 -8 41t-12 39q-18 4 -32 9t-32 1zM534 154q22 -8 51 3t43 -23l-14 -34t-32 -10q-46 4 -96 2t-96 6q-12 10 -9 28t23 16q14 -2 28 3t28 1q18 2 36 3t38 5z" />
    <glyph glyph-name="uniAD0D" unicode="&#xad0d;" horiz-adv-x="882" 
d="M464 376q4 4 5 7t3 7l57 86t49 82q18 12 19 36t25 36q6 10 11 16t13 12q16 10 9 22t3 24q-8 20 -28 47t-48 23q-24 -14 -48 -18t-48 4q-18 -2 -35 -1t-33 -3q-30 -6 -62 -11t-64 -7q-28 2 -57 -18t-57 2q-22 8 -37 -22t11 -48q4 -14 17 -20t27 -4q30 16 63 19t63 5
q12 4 22 3t22 -1q16 10 30 10h28q10 6 18 5t16 1q16 -4 42 2t22 -24q-26 -56 -63 -109t-67 -109q-2 -14 -13 -28t-9 -30q-8 2 -14 1t-12 -1q-6 2 -11 16t5 20q2 10 11 58t5 54q8 14 -6 27t-28 7q-14 4 -28 -6t-18 -24q-4 -12 -14 -72t-14 -70q-20 -10 -44 -11t-46 -1
q-16 -2 -34 -2h-36q-28 -2 -37 -31t19 -47q40 -12 76 -10t72 0q56 10 164 8t164 6q-6 -18 -33 -74t-27 -70q-2 -4 -4 -10t-6 -12q-42 -10 -85 -19t-85 -15q-18 -2 -14 16t0 30q16 34 -26 76t-68 -6q-8 -18 0 -35t0 -33q2 -8 -9 -16t-5 -18q22 -22 18 -46t-2 -46l8 -51
t18 -51q34 -22 72 -28t76 -2q24 2 49 9l51 15l47 12t45 14q40 18 17 44t-45 42q10 28 24 57t24 57q6 12 11 25t3 25q32 64 66 164t38 114q12 10 13 26t21 10q16 -8 30 -7t28 -7q12 8 29 7t19 21q-8 40 -38 48t-56 30q4 22 13 45t11 45q2 32 12 63t14 61q10 28 -13 37t-43 15
q-16 -8 -22 -25t-10 -31q-8 -28 -18 -56t-14 -58q-8 -38 -21 -73t-23 -75l-33 -85t-29 -67q-14 -4 -44 -6t-64 -4zM432 32q14 6 19 -8t-11 -24q-18 -16 -42 -23t-48 -13q-16 -4 -44 7t-2 37q32 14 64 13t64 11z" />
    <glyph glyph-name="uniAD0E" unicode="&#xad0e;" 
 />
    <glyph glyph-name="uniAD0F" unicode="&#xad0f;" horiz-adv-x="882" 
d="M434 414q4 4 6 9t4 9q26 42 56 86t50 82q18 12 19 36t25 36q6 10 10 16t12 14q16 8 9 20t3 22q-8 22 -27 49t-47 23q-24 -14 -48 -17t-48 3q-16 -2 -34 -1t-34 -3q-32 -6 -63 -11t-61 -7q-32 2 -60 -18t-56 0q-24 10 -39 -19t11 -49q4 -14 18 -20t28 -4q32 16 63 19t63 5
q12 4 23 3t21 -1q14 10 30 10h30q8 6 16 5t16 1q16 -4 41 2t21 -24q-24 -56 -61 -109t-69 -109q-2 -14 -13 -27t-7 -29h-9h-9q-28 -2 -16 16t0 30q12 8 7 17t-3 17q4 8 2 18t4 18q0 12 4 27t-6 29q-8 28 -39 30t-53 -26q-14 -20 -3 -39t5 -39q-12 -28 -5 -58t-21 -52
q-12 -4 -23 -3t-21 1q-18 -12 -36 -2t-34 6q-14 6 -27 -12t-11 -28q-8 -20 10 -31t32 -27q22 0 47 1t45 5q14 4 28 5t28 5q30 -6 58 1t56 3q40 6 75 4t73 0q18 -2 35 -1t27 -7q-4 -2 -13 -37t-11 -41v-7v-9q-26 -14 -41 -40t-41 -42q-30 -26 -63 -39t-63 -19q-16 8 -32 -12
t-4 -34q24 -46 65 -31t75 25q16 2 33 24t33 4q38 -34 60 -75t62 -63q30 -20 53 18t-13 50q-12 16 -26 24t-18 22q-20 22 -33 42t-19 46q6 10 14 25t14 29q4 6 5 11t-3 9q10 6 18 15t10 15q2 10 13 44t7 38q4 14 13 62t23 62q10 14 11 28t9 28q0 38 25 14t35 -30
q16 -20 43 -16t35 36q4 14 3 30t-21 22q-14 10 -26 13t-22 19q-34 14 -32 35t8 41q10 14 14 29t10 27l7 18t3 16q0 24 -29 46t-47 18q-16 -8 -22 -19t2 -25l-4 -35t-12 -33q-4 -18 -13 -35t-9 -35q-18 -38 -27 -73t-23 -75q-10 -16 -10 -34t-14 -30q-34 -4 -69 -5t-71 -1z
" />
    <glyph glyph-name="uniAD10" unicode="&#xad10;" 
 />
    <glyph glyph-name="uniAD11" unicode="&#xad11;" horiz-adv-x="1020" 
d="M798 758q-26 -2 -22 -22t-2 -34q4 -26 -9 -52t-23 -52q-4 -10 -4 -21t-8 -25q-14 -22 -15 -46t-19 -42q-8 -4 -5 -11t-5 -9q10 -18 -2 -35t-6 -35q-2 -6 -9 -9t-11 -1q-8 -2 -17 -4t-17 0q-16 6 -55 -2t-5 34q2 28 28 54t28 56q24 10 25 29t13 35q16 16 24 28l20 30
q-4 8 0 16t0 16q-10 20 -25 44t-43 22q-22 -8 -45 -13t-45 -3q-18 2 -35 -1t-35 -1q-30 -2 -62 -9t-64 -9q-16 0 -33 -5t-33 -13q-14 -8 -29 -8t-31 8q-14 2 -26 -3t-14 -23q-8 -10 3 -22t13 -22q-2 -14 10 -13t14 -9q36 -2 70 13t68 11q16 4 30 4h28q4 4 11 5t11 1
q16 2 33 3t37 5q16 -4 35 3t25 -15q-8 -34 -32 -63l-46 -57q-10 -28 -30 -41t-24 -43q-14 -10 -9 -23t-7 -17q-20 -8 -21 9t3 29q-10 4 -1 11t3 11q-12 32 5 64t-11 58q-8 16 -24 18t-30 -2q-20 -16 -45 -44t13 -44q8 -22 1 -46t-5 -46q4 -24 -15 -28t-35 -6q-44 -6 -86 -9
t-86 19q-20 6 -34 -11t0 -39q10 -22 33 -38t47 -14q16 4 33 -3t33 1q30 0 58 4l56 8q10 10 18 5t16 -5q28 6 53 7t51 1q44 6 86 5t86 1q8 -2 30 -1t6 -21q-22 0 -46 -8t-46 -12q-30 -14 -75 -44t-51 -70q0 -26 4 -58t36 -48q20 -2 40 -14t40 -10q22 -14 46 -10t44 -2
q26 8 65 32t41 58q-2 20 5 39t-1 39q2 22 -5 42t-13 40q-14 24 -1 50t15 52q-8 24 9 44t21 44q-8 4 0 11t4 13q0 30 22 15t30 -31q28 -18 62 -52t70 12q2 14 3 29t-9 29q-10 6 -26 24t-32 26q-14 10 -27 13t-23 21q-32 14 -30 35t10 41q8 14 12 28l8 28q4 8 7 17t3 19
q0 22 -27 43t-47 17zM650 176q38 -14 33 -43t-15 -51q-30 -24 -65 -21t-69 23q-14 32 20 45t52 23q10 4 23 10t21 14z" />
    <glyph glyph-name="uniAD12" unicode="&#xad12;" 
 />
    <glyph glyph-name="uniAD13" unicode="&#xad13;" 
 />
    <glyph glyph-name="uniAD14" unicode="&#xad14;" 
 />
    <glyph glyph-name="uniAD15" unicode="&#xad15;" 
 />
    <glyph glyph-name="uniAD16" unicode="&#xad16;" 
 />
    <glyph glyph-name="uniAD17" unicode="&#xad17;" 
 />
    <glyph glyph-name="uniAD18" unicode="&#xad18;" horiz-adv-x="1022" 
d="M446 210q-14 -2 -30 -5t-32 -3q-16 4 -11 13t7 17q-4 28 4 53t8 49q2 10 -1 23t-17 23q-10 18 -30 27t-30 -11q-8 -6 -10 -15t-2 -19q10 -26 4 -51t-8 -49q-10 -24 -13 -48t-23 -40q-18 4 -87 2t-79 -24q-4 -26 1 -42t25 -22q22 -6 66 -5t64 11q22 0 74 9t72 17l52 12
t52 6q22 -2 46 2t46 4q22 -6 27 -27t29 -19q28 -6 38 24t12 48q4 34 21 69t21 67q4 10 9 25t11 29q8 10 4 19t6 15q2 10 16 15t20 -5q-16 -82 -40 -166t-66 -166q-12 -38 24 -51t62 25q16 30 27 63t25 63q18 20 19 39t5 41q10 20 13 39t5 39q10 16 9 35t13 35q6 40 21 80
t31 78q8 22 11 41t15 41q0 20 -10 51t-46 27q-24 -12 -30 -35t-12 -43q-2 -24 -12 -47t-14 -45q-8 -12 -11 -23t-9 -23q-14 -6 -35 -10t-23 22q4 30 2 62t10 64q-2 8 2 17t-2 17q-18 22 -39 14t-37 -28q-14 -44 -16 -86l-4 -86q8 -34 -17 -25t-29 -19q-18 -20 10 -41t4 -45
q-6 -30 -18 -62l-24 -64q-8 -4 -3 -18t-13 0q-14 10 -30 13t-32 1q12 22 10 41t16 35q-2 14 7 28t11 28q-4 16 4 23t8 21q6 20 13 40t19 36q28 28 30 62t34 60q4 22 -11 46t-35 30q-14 14 -32 8t-34 -4q-20 -8 -40 -2t-40 8l-74 -8t-74 -2q-22 0 -46 -5t-46 -5q-14 -2 -28 4
t-28 2q-36 -10 -69 -21t-67 -21q-32 -10 -21 -29t25 -33l45 4t45 0q22 6 41 7t39 3q12 -6 23 3t21 -1q36 10 70 8l68 -4q28 0 52 4t50 -2q12 -12 37 -4t15 -20q-24 -30 -38 -63l-26 -61q-8 -2 -11 -8t-1 -12q-2 -12 -3 -22t-9 -22q-4 -18 -10 -36t-8 -34q2 -8 -4 -16t-8 -18
q-2 -14 -11 -32t-7 -34z" />
    <glyph glyph-name="uniAD19" unicode="&#xad19;" 
 />
    <glyph glyph-name="uniAD1A" unicode="&#xad1a;" 
 />
    <glyph glyph-name="uniAD1B" unicode="&#xad1b;" 
 />
    <glyph glyph-name="uniAD1C" unicode="&#xad1c;" horiz-adv-x="868" 
d="M364 312h-4h-4q0 20 10 101t6 103q10 20 -21 42t-47 -6q-14 -12 -16 -23t-4 -25q4 -20 -8 -100t-14 -102q-18 -16 -39 -11t-41 -3t-44 -8t-46 -4q-52 0 -45 -48t49 -44q16 -8 33 5t33 13q12 -2 23 -2t23 4l142 12t142 16q-2 -10 -9 -32t-15 -38q4 -56 38 -44t52 28
q12 34 42 152t38 144q-2 10 11 12t23 2q16 4 30 -14t-2 -34q8 -14 -20 -136t-34 -166q-12 -20 13 -37t39 -9q38 4 45 34t7 54q-2 22 16 128t26 138q-2 26 5 52t-1 52q6 22 8 45t8 45q0 16 5 34t5 34q4 14 5 28t-7 28q0 22 -19 54t-43 34q-12 16 -34 0t-8 -32l21 -29t9 -29
q-14 -20 -7 -38t-3 -40q2 -26 -9 -52t-9 -50q-4 -12 -13 -10t-19 0q-6 2 -16 4t-12 14q4 16 11 33t5 35q10 28 7 52t-7 50q4 14 -6 29t-8 29q-4 24 -22 36t-40 8l-7 -7l-7 -7q-8 -16 5 -34t3 -36q4 -6 4 -12t-2 -12q-2 4 -6 6l-8 4q-8 4 -16 9t-18 1q-16 -10 -32 -12t-34 -8
q-32 -2 -63 -5t-61 1q-38 -8 -75 -7t-75 -1q-20 0 -39 7t-41 -3q-20 22 -30 -1t-8 -33q12 -14 10 -30t12 -26q54 -18 112 -3t114 13q30 -6 58 -4t56 0q14 4 29 4t29 -4q30 -8 16 -26t-18 -34q-6 -6 -11 -14t-7 -18q-10 -14 -30 -36t-18 -40q-14 -14 -19 -31t-15 -35
q-2 -20 -16 -34t-22 -32q0 -2 -1 -7t-3 -11zM476 320l7 18t7 16q2 14 11 22t11 24q16 14 19 33t23 33q-12 -48 -25 -90t-23 -54h-13t-17 -2zM384 144q-28 -8 -26 -29t0 -37q16 -24 6 -49t2 -53q4 -14 12 -26t12 -28q20 -14 39 -14t39 2q32 10 63 11t61 1q40 -2 81 1t81 -1
q22 6 30 23t6 33q-16 28 -40 30t-48 2q-56 -6 -113 -8t-115 0q-20 -4 -17 11t-7 23q0 16 -5 34t-5 34l-24 32t-32 8z" />
    <glyph glyph-name="uniAD1D" unicode="&#xad1d;" 
 />
    <glyph glyph-name="uniAD1E" unicode="&#xad1e;" 
 />
    <glyph glyph-name="uniAD1F" unicode="&#xad1f;" 
 />
    <glyph glyph-name="uniAD20" unicode="&#xad20;" horiz-adv-x="826" 
d="M332 340q-4 -2 -9 -4t-9 -4q2 26 17 106t3 94q-10 34 -48 22t-32 -46q-4 -14 -11 -94t-21 -88q-38 -18 -73 -20t-75 -10q-16 -6 -25 -36t23 -44q16 -14 96 3t100 23q34 4 113 21t119 33q-2 -16 -5 -34t-3 -46v-2v-2q-14 -2 -27 -5t-29 -3q-28 -12 -57 -11t-57 -27
q-22 -26 11 -38t47 -4q48 4 97 7t97 17q14 -4 29 8t25 -12q-24 -14 -50 -25t-52 -13q-40 -16 -79 -14t-79 -8q-16 4 -47 -19t-1 -45q16 -18 16 -43t20 -43q12 -10 20 -15t22 -11q26 4 52 -1t52 3q40 0 80 6t78 24q12 4 36 17t12 33q-14 10 -10 23t-14 15q-30 -10 -63 -17
t-63 -9q-30 2 -63 -5t-61 3q8 22 31 17t41 3q48 22 97 26t97 42q4 28 17 53t3 49v3t-2 1q4 10 7 20t5 18q-2 22 12 96t16 96q4 64 9 126t13 124q4 12 3 23t1 23q-2 20 0 41t-8 37q-12 14 -30 25t-34 11q-26 -14 -15 -31t7 -35q2 -20 -4 -40t-4 -40q-10 -24 -9 -51t-19 -47
q-12 2 -29 1t-9 23q6 30 9 62t7 64q8 16 -7 33t-35 31l-20 10t-22 -2q-4 -18 -6 -35l-4 -35q-2 2 -3 2h-5q-22 -14 -47 -18t-49 2q-16 -2 -33 -1t-35 -3q-32 -4 -63 -10t-61 -8q-30 2 -58 -17t-56 1q-24 10 -40 -19t12 -47q4 -18 18 -24t28 -4q30 18 62 22t62 6q12 4 23 3
t23 -1q14 8 29 8h29q8 8 17 6t17 2q16 -6 40 0t20 -24q-24 -56 -61 -109t-69 -107q-2 -14 -14 -30t-6 -32zM436 366l51 77t45 73q2 -4 2 -10v-12q-10 -26 -8 -54t-24 -44q-14 -10 -31 -17t-35 -13zM640 242h-13h-13q-8 0 -19 -2t-21 -6q10 34 18 130t22 122q16 10 31 12
t25 -8q-2 -20 0 -39t-10 -41q6 -16 -5 -75t-15 -93z" />
    <glyph glyph-name="uniAD21" unicode="&#xad21;" 
 />
    <glyph glyph-name="uniAD22" unicode="&#xad22;" 
 />
    <glyph glyph-name="uniAD23" unicode="&#xad23;" 
 />
    <glyph glyph-name="uniAD24" unicode="&#xad24;" 
 />
    <glyph glyph-name="uniAD25" unicode="&#xad25;" 
 />
    <glyph glyph-name="uniAD26" unicode="&#xad26;" 
 />
    <glyph glyph-name="uniAD27" unicode="&#xad27;" 
 />
    <glyph glyph-name="uniAD28" unicode="&#xad28;" 
 />
    <glyph glyph-name="uniAD29" unicode="&#xad29;" horiz-adv-x="826" 
d="M334 362q-4 -2 -10 -4t-10 -4q2 26 16 119t2 107q-10 36 -48 23t-32 -45q-4 -14 -10 -108t-20 -102q-38 -16 -73 -19t-75 -11q-16 -6 -25 -36t23 -44q16 -14 96 3t100 23q34 4 113 21t119 33q-2 -16 -5 -34t-3 -46q-6 -44 33 -34t49 48q8 24 17 127t23 129q16 10 31 12
t25 -6q-2 -22 0 -41t-10 -41q6 -20 -8 -90t-12 -90q-2 -8 -1 -19t3 -23q-8 -22 -20 -41t-22 -41q-42 -12 -85 -22t-85 -14q-18 -2 -14 17t0 31q16 34 -26 76t-68 -8q-8 -16 0 -33t0 -33q2 -8 -9 -18t-3 -18q22 -22 17 -45t-3 -45l8 -52t18 -50q34 -22 72 -28t76 -2
q26 2 50 9l50 15l47 12t45 14q40 16 18 43t-44 43q10 28 23 56t23 58q10 20 15 42t-9 36q4 10 8 22t6 20q-2 22 12 97t16 95q4 64 9 126t13 126q4 10 3 21t1 23q-2 20 0 41t-8 37q-12 14 -30 25t-34 11q-26 -14 -15 -31t7 -33q2 -20 -4 -40t-4 -42q-10 -22 -9 -50t-19 -48
q-12 2 -29 2t-9 22q6 30 9 62t7 64q8 16 -7 34t-35 30l-20 10t-22 -2q-4 -16 -6 -33l-4 -35h-3h-5q-22 -14 -47 -18t-49 2q-16 -2 -33 -1t-35 -3q-32 -4 -63 -10t-61 -8q-30 2 -58 -17t-56 1q-24 10 -40 -19t12 -47q4 -16 18 -23t28 -5q30 20 62 23t62 5q12 4 23 3t23 -1
q14 8 29 8h29q8 8 17 6t17 2q16 -6 40 1t20 -23q-24 -56 -61 -110t-69 -108q-2 -14 -14 -30t-4 -32zM438 390l50 76t44 72q2 -4 2 -10v-12q-10 -26 -8 -53t-24 -43q-14 -10 -30 -17t-34 -13zM558 32q14 6 19 -8t-11 -24q-18 -18 -42 -25l-46 -13q-18 -4 -46 8t-2 38
q32 14 64 13t64 11z" />
    <glyph glyph-name="uniAD2A" unicode="&#xad2a;" 
 />
    <glyph glyph-name="uniAD2B" unicode="&#xad2b;" 
 />
    <glyph glyph-name="uniAD2C" unicode="&#xad2c;" horiz-adv-x="868" 
d="M352 340q0 22 5 87t1 85q12 22 -19 43t-47 -7q-14 -12 -16 -22t-4 -22q4 -22 -2 -88l-8 -88q-20 -16 -40 -11t-40 -3t-45 -8t-47 -4q-50 0 -43 -48t47 -44q16 -8 34 5t34 13q12 -2 23 -2t23 4q48 4 141 13t141 17q-2 -10 -9 -33t-13 -39q0 -4 1 -8t1 -8q-14 -8 -27 -21
t-27 -23l-64 -55t-62 -43q-6 -14 -30 -21t-6 -31q8 -56 44 -37l62 33q12 22 32 20t30 -24q22 -12 29 -31t27 -35q14 -32 49 -23t25 41q-24 22 3 29t33 19q28 32 43 6t29 -42q-10 -32 28 -47t52 19q22 30 -8 62t-40 58q-16 28 7 43t33 37q10 16 13 35t3 33q-2 22 17 129
t27 137q-2 26 5 52t-1 52q6 22 8 45t8 47q0 16 5 33t5 33q4 14 5 29t-9 31q0 22 -18 52t-44 32q-12 16 -33 0t-7 -32q10 -14 19 -28t7 -28q-10 -20 -4 -39t-4 -41q2 -26 -8 -52t-8 -50q-4 -12 -13 -10t-19 0q-6 2 -16 4t-12 14q4 16 11 35t5 35q10 26 7 51t-7 51q4 14 -6 28
t-8 28q-4 24 -23 36t-39 8l-7 -7l-7 -7q-8 -16 5 -34t3 -34q4 -14 2 -27t-4 -29q-6 4 -12 5t-14 -1q-24 -12 -49 -16t-47 4q-18 -2 -35 -1t-33 -3q-32 -6 -64 -11t-62 -7q-30 2 -58 -17t-56 1q-24 8 -39 -21t13 -49q4 -14 17 -21t27 -3q30 16 63 19t63 5q12 4 22 3t22 -1
q14 10 29 10h29q10 8 18 6t16 2q16 -6 42 1t18 -25q-22 -54 -59 -108l-71 -108q0 -8 -7 -19t-11 -23zM456 344q24 40 50 79t46 73q-10 -46 -24 -90t-24 -58q-10 0 -22 -1t-26 -3zM552 168l2 2l2 2q14 34 44 152t38 144q-2 10 11 12t23 2q16 4 30 -14t-2 -34q8 -12 -17 -123
t-35 -163q-26 -36 -58 -61t-72 -53q-6 -30 -28 -13t-10 25q18 28 63 55t17 59q-2 2 -3 4t-5 4z" />
    <glyph glyph-name="uniAD2D" unicode="&#xad2d;" horiz-adv-x="868" 
d="M352 312q0 22 11 94t5 92q14 20 -17 42t-47 -6q-14 -12 -16 -23l-4 -23q4 -20 -8 -93t-14 -95q-20 -16 -40 -11t-40 -5q-20 -8 -45 -7t-47 -3q-50 0 -43 -49t47 -43q16 -8 34 5t34 13q12 -2 23 -2t23 4q48 4 141 13t141 15q-2 -8 -9 -31t-13 -39q2 -18 6 -27t12 -13
q-20 -30 -33 -62t-5 -62q2 -20 14 -46t38 -30q46 -14 88 -6t86 26l45 63t19 63q-2 4 -2 7t-2 5q10 16 12 35t2 33q-2 20 17 128t27 138q-2 26 5 52t-1 52q6 22 8 45t8 47q0 16 5 33t5 33q4 14 5 29t-9 29q0 22 -18 53t-44 33q-12 16 -33 0t-7 -32q10 -14 19 -28t7 -28
q-10 -20 -4 -40t-4 -40q2 -26 -8 -52t-8 -52q-4 -10 -13 -8t-19 0q-6 2 -16 4t-12 14q4 16 11 34t5 36q10 24 7 50t-7 52q4 14 -6 28t-8 28q-4 24 -23 35t-39 7l-7 -6l-7 -6q-8 -18 5 -35t3 -33q4 -14 2 -27t-4 -29q-6 4 -12 5t-14 -1q-24 -14 -49 -17t-47 5q-18 -4 -35 -3
t-33 -3q-32 -4 -64 -10t-62 -8q-30 2 -58 -16t-56 2q-24 8 -39 -21t13 -49q4 -14 17 -21t27 -5q30 18 63 21t63 5q12 4 22 3t22 -1q14 10 29 9t29 -1q10 10 18 8t16 2q16 -8 42 0t18 -24q-22 -54 -59 -108l-71 -108q0 -8 -7 -19t-11 -23zM456 316q24 40 50 79t46 73
q-10 -46 -24 -90t-24 -58q-10 0 -22 -1t-26 -3zM658 174q-20 8 -40 8h-38h-5t-7 -2q16 58 39 149t31 111q-2 10 11 11t23 1q16 6 30 -12t-2 -34q6 -10 -10 -87t-32 -145zM598 88q14 4 42 -8t0 -36q-14 -28 -46 -51t-58 13q-12 22 13 51t49 31z" />
    <glyph glyph-name="uniAD2E" unicode="&#xad2e;" 
 />
    <glyph glyph-name="uniAD2F" unicode="&#xad2f;" 
 />
    <glyph glyph-name="uniAD30" unicode="&#xad30;" 
 />
    <glyph glyph-name="uniAD31" unicode="&#xad31;" 
 />
    <glyph glyph-name="uniAD32" unicode="&#xad32;" 
 />
    <glyph glyph-name="uniAD33" unicode="&#xad33;" 
 />
    <glyph glyph-name="uniAD34" unicode="&#xad34;" horiz-adv-x="940" 
d="M820 706q-26 -10 -24 -31t6 -39q2 -12 -4 -23t-2 -21q-14 -24 -24 -48t-18 -52q-10 -14 -15 -26t-15 -28q-2 -22 -14 -46t-20 -52q-8 -2 -16 -8t-18 2q-14 4 -28 -6t-30 -2q-12 -8 -22 -3t-22 1q-20 -2 -11 13t11 21q16 28 27 53t25 51q-4 4 7 13t13 17q14 30 35 58
t47 56q36 18 14 36t-20 34q-10 10 -29 12t-35 10q-26 -2 -51 -8t-51 -4q-28 -8 -57 -9t-57 -15q-30 -2 -63 -6t-63 -2q-24 -14 -52 0t-42 -20q-14 -14 -7 -26t21 -26q14 -12 27 -20t27 0q22 -10 45 -3l47 15q22 -6 45 2t43 8q32 -6 59 7t57 1q10 -30 -20 -57t-36 -59
q-4 -24 -21 -49t-27 -53q-12 -12 -21 -48t-31 0q12 12 7 23t9 23q-2 16 6 30t4 28q-4 28 -1 56t-25 58q-16 6 -40 10t-28 -22q8 -26 7 -51t-3 -51q-8 -26 -10 -52t-8 -52q4 -38 -25 -27t-45 -5q-16 2 -34 -1t-36 7q-20 2 -44 3t-48 3q-10 -6 -21 0t-23 -2q-8 -4 -8 -13
t-4 -19q0 -28 26 -41t46 -11q12 -2 23 -1t23 -5q38 -8 79 -6t79 -2q10 6 18 4t16 4q22 -2 41 2t39 4q22 14 41 5t41 5q30 0 61 5t63 7q24 0 17 -14t-5 -22q-4 -14 -6 -28t-12 -28q-16 -10 -18 -26t-2 -30q2 -14 5 -28t23 -18q4 -24 29 -12t33 26q-4 22 9 39t13 39
q16 18 21 38t7 38q14 30 22 59t14 57q4 20 12 39t16 41q22 26 26 52t20 46q10 14 12 25t8 23q-10 28 5 56t-1 58q4 26 -22 27t-42 7z" />
    <glyph glyph-name="uniAD35" unicode="&#xad35;" horiz-adv-x="878" 
d="M396 422q-14 4 -31 1t-27 13q10 12 14 23t12 21q10 26 32 53t-14 47q-16 30 -41 13t-27 -41q-20 -20 -28 -45t-28 -41q4 -14 -12 -23t-16 -19q-14 -8 -28 -3t-28 1l-35 8t-33 6q-52 24 -59 -32t53 -54q62 -8 121 -17t119 -3q14 0 28 5t28 5q40 4 81 -6t81 -8q28 4 18 -14
t-14 -28q-6 -14 -11 -29t-1 -29q-8 -36 30 -45t56 23q2 10 8 21t4 23q16 28 31 59t19 61q18 32 30 62t26 58q0 28 18 52t24 50q4 16 11 35t9 35q10 20 15 39t7 39q-2 16 -2 35t-12 35q-4 20 -24 26t-36 2q-8 -2 -18 -8t2 -16q-4 -14 -5 -28t-1 -30q4 -44 -18 -90t-34 -92
q-26 -40 -38 -85t-56 -77q-26 -2 -51 1t-51 5q4 4 5 8t3 6l55 86t49 82q20 10 21 35t25 35q4 10 9 17t13 13q16 10 9 22t5 20q-10 22 -29 50t-47 22q-24 -14 -49 -17t-47 3q-18 -2 -35 -1t-33 -3q-32 -4 -64 -10t-62 -8q-30 2 -58 -18t-56 0q-24 10 -39 -19t13 -47
q4 -14 17 -21t27 -5q30 18 63 21t63 5q12 4 22 3t22 -1q14 8 29 8h29q10 8 18 6t16 2q16 -6 42 1t18 -25q-22 -56 -59 -108t-71 -108q-2 -12 -10 -24t-12 -24zM448 230q-18 -2 -36 -5t-34 -11q-54 -26 -107 -32t-109 -24q-22 -8 -12 -20t18 -24q22 -20 41 -23t39 5
q30 -2 63 9t63 25q6 -2 18 5t8 -3q4 -14 -3 -29t-9 -29l-27 -52t-29 -50q-8 -30 29 -64t57 16q10 18 27 45t23 53q10 22 17 45t17 45q4 8 8 21t8 23q16 28 -14 56t-56 18z" />
    <glyph glyph-name="uniAD36" unicode="&#xad36;" 
 />
    <glyph glyph-name="uniAD37" unicode="&#xad37;" 
 />
    <glyph glyph-name="uniAD38" unicode="&#xad38;" horiz-adv-x="876" 
d="M510 328q10 16 14 32t12 30q2 14 11 21t11 21q16 14 20 37t24 37q8 16 18 30t12 34q14 10 18 26t6 30q14 22 9 45t-1 43q14 22 -7 34t-31 20q-8 2 -17 8t-17 2q-16 -10 -33 -12t-33 -8q-32 -2 -63 -5t-61 1q-38 -8 -75 -7t-77 -1q-20 0 -38 7t-40 -3q-20 22 -30 -1
t-8 -37q12 -14 9 -29t11 -25q56 -16 113 -1t113 13q32 -6 60 -4t56 0q14 4 29 4t29 -4q30 -8 16 -26t-18 -34q-6 -6 -11 -16t-7 -18q-10 -14 -30 -35t-18 -39q-14 -14 -19 -33t-15 -35q-2 -18 -16 -32t-22 -32q0 -6 -2 -13t-6 -17h-1h-3q-18 6 -37 1t-29 15q10 12 14 23
t12 21q10 24 32 52t-14 48q-16 30 -41 13t-27 -43q-16 -20 -25 -44t-31 -40q4 -14 -12 -23t-16 -21q-14 -8 -28 -2t-28 0q-16 6 -34 10t-34 6q-50 24 -57 -32t51 -54q62 -8 121 -17t119 -3q14 0 28 5t28 5q40 4 81 -6t81 -8q28 6 18 -14t-14 -30q-4 -14 -9 -28t1 -28
q-8 -36 28 -45t54 23q2 10 8 21t4 23q16 26 31 58t19 62q18 28 30 60t26 60q0 26 19 52t25 50q4 18 10 35t8 33q10 22 15 41t7 39q-2 16 -2 34t-12 34q-4 22 -24 29t-36 3q-8 -2 -18 -9t2 -17q-4 -14 -5 -29t-1 -29q4 -44 -18 -90t-34 -92q-24 -42 -36 -87t-58 -79
q-20 -2 -41 1t-43 5zM358 196q-26 -8 -25 -28t-1 -36q16 -26 6 -51t2 -51q4 -14 12 -26t10 -28q22 -14 42 -14t40 2q30 10 62 11t64 1q38 -2 79 1t79 -1q22 6 30 23t6 33q-16 26 -40 27t-46 1q-56 -4 -113 -6t-115 0q-20 -2 -17 12t-7 24q0 16 -5 33t-5 35q-10 16 -24 31
t-34 7z" />
    <glyph glyph-name="uniAD39" unicode="&#xad39;" 
 />
    <glyph glyph-name="uniAD3A" unicode="&#xad3a;" 
 />
    <glyph glyph-name="uniAD3B" unicode="&#xad3b;" 
 />
    <glyph glyph-name="uniAD3C" unicode="&#xad3c;" horiz-adv-x="878" 
d="M396 404q-14 2 -31 -1t-27 15q10 10 14 21t12 23q10 26 32 53t-14 45q-16 30 -41 14t-27 -40q-20 -22 -28 -47t-28 -41q4 -14 -12 -22t-16 -18q-14 -8 -28 -3t-28 1q-18 4 -35 7t-33 7q-52 22 -59 -33t53 -53q62 -10 121 -18t119 -2q14 0 28 4t28 4q40 4 81 -5t81 -7
q28 4 18 -15t-14 -29q-2 -2 -3 -7t-5 -11q-36 -6 -71 -17t-69 -13q-28 -12 -56 -11t-56 -27q-26 -26 8 -38t48 -4q46 4 96 7t96 17q8 -2 14 0l12 4q6 -2 12 -3t12 1l3 -3t1 -3q-20 -14 -47 -25t-53 -13q-38 -18 -79 -15t-81 -9q-14 6 -45 -18t-1 -44q16 -18 16 -43t22 -45
l18 -14t22 -10q26 4 52 -1t52 3q38 0 79 5t79 25q12 4 37 16t13 32q-14 10 -10 23t-18 15q-30 -8 -61 -15t-63 -9q-32 2 -64 -5t-60 3q6 22 31 16t41 4q46 20 96 25t96 43q8 28 20 52t2 50q-2 20 -13 31t-27 15q14 24 26 50t14 52q18 30 30 60t26 58q0 28 18 53t24 51
q4 16 11 34t9 36q10 20 15 39t7 39q-2 16 -2 34t-12 36q-4 20 -24 26t-36 2q-8 -2 -18 -9t2 -15q-4 -14 -5 -28t-1 -30q4 -46 -18 -91t-34 -91q-26 -40 -38 -86t-56 -78q-26 -2 -51 1t-51 5q4 4 5 8t3 6l55 86t49 82q20 12 21 36t25 36q4 10 9 16t13 14q16 8 9 20t5 22
q-10 22 -29 49t-47 23q-24 -14 -49 -17t-47 3q-18 -2 -35 -1t-33 -3q-32 -6 -64 -11t-62 -7q-30 2 -58 -18t-56 0q-24 10 -39 -19t13 -49q4 -14 17 -20t27 -4q30 16 63 19t63 5q12 4 22 3t22 -1q14 10 29 10h29q10 6 18 5t16 1q16 -4 42 2t18 -24q-22 -56 -59 -109t-71 -109
q-2 -10 -10 -22t-12 -24z" />
    <glyph glyph-name="uniAD3D" unicode="&#xad3d;" 
 />
    <glyph glyph-name="uniAD3E" unicode="&#xad3e;" 
 />
    <glyph glyph-name="uniAD3F" unicode="&#xad3f;" 
 />
    <glyph glyph-name="uniAD40" unicode="&#xad40;" 
 />
    <glyph glyph-name="uniAD41" unicode="&#xad41;" 
 />
    <glyph glyph-name="uniAD42" unicode="&#xad42;" 
 />
    <glyph glyph-name="uniAD43" unicode="&#xad43;" 
 />
    <glyph glyph-name="uniAD44" unicode="&#xad44;" horiz-adv-x="878" 
d="M396 396q-14 4 -31 1t-27 13q10 12 14 23t12 23q10 24 32 52t-14 46q-16 30 -41 13t-27 -41q-20 -20 -28 -45t-28 -41q4 -14 -12 -22t-16 -18q-14 -8 -28 -4t-28 0l-35 8t-33 6q-52 24 -59 -32t53 -52l121 -19t119 -1q14 0 28 4t28 4q40 4 81 -6t81 -8q28 6 18 -13
t-14 -29q-4 -8 -8 -19t-6 -21q-36 -4 -100 -8t-100 -2q-12 -8 -23 -3t-23 -11q-14 16 -29 21t-29 5q-38 -2 -32 -33t20 -49q-2 -20 -1 -66t15 -68l20 -49t38 -27q22 26 45 20t45 -2q36 2 70 0t66 -6q16 4 29 -11t27 5q22 4 29 27t17 37q-10 22 5 67t23 65q-4 18 -6 37
t-10 37q4 4 4 9v9q16 28 31 59t19 63q18 30 30 60t26 58q0 28 18 53t24 49q4 18 11 36t9 34q10 22 15 40t7 38q-2 18 -2 36t-12 34q-4 22 -24 28t-36 2q-8 -2 -18 -9t2 -17q-4 -14 -5 -28t-1 -30q4 -44 -18 -90t-34 -92q-26 -38 -38 -84t-56 -78q-26 -2 -51 1t-51 5q4 4 5 8
t3 6l55 86t49 82q20 12 21 36t25 36q4 10 9 16t13 12q16 10 9 22t5 20q-10 22 -29 50t-47 22q-24 -14 -49 -17t-47 5q-18 -4 -35 -3t-33 -3q-32 -4 -64 -9t-62 -9q-30 4 -58 -17t-56 -1q-24 10 -39 -19t13 -47q4 -14 17 -21t27 -3q30 16 63 19t63 5q12 4 22 3t22 -1
q14 10 29 9t29 -1q10 8 18 7t16 1q16 -6 42 1t18 -23q-22 -56 -59 -109t-71 -109q-2 -10 -10 -22t-12 -26zM466 138q24 -10 52 0t42 -22q-4 -10 -11 -41t-23 -53q-42 4 -95 5t-95 3q-4 6 -14 47t10 45q16 -4 67 3t67 13z" />
    <glyph glyph-name="uniAD45" unicode="&#xad45;" horiz-adv-x="878" 
d="M396 412q-14 4 -31 1t-27 13q10 12 14 23t12 21q10 26 32 53t-14 47q-16 30 -41 13t-27 -41q-20 -20 -28 -45t-28 -41q4 -14 -12 -23t-16 -19q-14 -8 -28 -3t-28 1l-35 8t-33 6q-52 24 -59 -32t53 -54q62 -8 121 -17t119 -3q14 0 28 5t28 5q40 4 81 -6t81 -8q28 4 18 -14
t-14 -28q-2 -8 -6 -16t-8 -18q-6 -22 -17 -42l-21 -40l-85 -20t-85 -14q-18 -2 -14 15t0 29q16 34 -26 76t-68 -6q-8 -16 0 -33t0 -35q4 -8 -8 -16t-4 -16q22 -24 17 -47t-1 -45q4 -26 7 -52t17 -52q34 -20 72 -27t74 -1q28 2 52 9l50 15q22 4 47 11l45 13q40 16 18 44
t-44 44q10 28 23 57t23 57q4 6 6 12t4 10q2 2 3 4t3 4q2 10 8 21t4 23q16 28 31 59t19 61q18 32 30 62t26 58q0 28 18 52t24 50q4 16 11 35t9 35q10 20 15 39t7 39q-2 16 -2 35t-12 35q-4 20 -24 26t-36 2q-8 -2 -18 -8t2 -16q-4 -14 -5 -28t-1 -30q4 -44 -18 -90t-34 -92
q-26 -40 -38 -85t-56 -77q-26 -2 -51 1t-51 5q4 4 5 8t3 6l55 86t49 82q20 10 21 35t25 35q4 10 9 17t13 13q16 10 9 22t5 20q-10 22 -29 50t-47 22q-24 -14 -49 -17t-47 3q-18 -2 -35 -1t-33 -3q-32 -4 -64 -10t-62 -8q-30 2 -58 -18t-56 0q-24 10 -39 -19t13 -47
q4 -14 17 -21t27 -5q30 18 63 21t63 5q12 4 22 3t22 -1q14 8 29 8h29q10 8 18 6t16 2q16 -6 42 1t18 -25q-22 -56 -59 -108t-71 -108q-2 -12 -10 -24t-12 -24zM468 60q14 8 19 -7t-11 -23q-18 -16 -42 -24t-46 -12q-18 -8 -46 4t-2 38q32 14 64 14t64 10z" />
    <glyph glyph-name="uniAD46" unicode="&#xad46;" 
 />
    <glyph glyph-name="uniAD47" unicode="&#xad47;" horiz-adv-x="878" 
d="M398 402q-14 2 -32 -2t-28 14q10 12 14 23t12 23q10 26 32 53t-14 45q-16 30 -41 13t-27 -39q-20 -22 -28 -47t-28 -41q4 -14 -12 -22t-16 -18q-14 -8 -28 -3t-28 1q-18 4 -35 7t-33 5q-52 24 -59 -31t53 -53l121 -19t119 -1q14 0 28 4t28 4q40 4 81 -6t81 -6
q28 4 18 -15t-14 -29q-2 -6 -5 -13t-7 -15v0v0q-26 -18 -42 -46t-44 -44q-32 -26 -64 -39t-62 -19q-16 8 -33 -12t-3 -34q24 -44 64 -30t76 24q16 2 33 24t33 2q38 -32 60 -73t62 -63q28 -20 52 19t-14 51q-12 16 -24 23t-16 21q-22 22 -35 42t-19 46q4 6 9 15t7 17
q14 0 26 6t20 18q2 12 8 22t4 22q16 28 31 60t19 62q18 30 30 60t26 58q0 28 18 53t24 51q4 16 11 34t9 34q10 22 15 41t7 39q-2 16 -2 34t-12 34q-4 22 -24 28t-36 2q-8 -2 -18 -9t2 -15q-4 -14 -5 -29t-1 -31q4 -44 -18 -89t-34 -91q-26 -40 -38 -86t-56 -78q-26 -2 -51 1
t-51 5q4 4 5 8t3 6l55 86t49 82q20 12 21 36t25 36q4 10 9 16t13 12q16 10 9 22t5 22q-10 22 -29 49t-47 23q-24 -14 -49 -18t-47 4q-18 -2 -35 -1t-33 -3q-32 -6 -64 -11t-62 -7q-30 2 -58 -18t-56 0q-24 10 -39 -20t13 -48q4 -14 17 -20t27 -4q30 16 63 19t63 5q12 4 22 3
t22 -1q14 10 29 10h29q10 6 18 5t16 1q16 -4 42 2t18 -24q-22 -56 -59 -109t-71 -109q-2 -10 -9 -22t-11 -24z" />
    <glyph glyph-name="uniAD48" unicode="&#xad48;" 
 />
    <glyph glyph-name="uniAD49" unicode="&#xad49;" horiz-adv-x="878" 
d="M396 380q-14 4 -31 1t-27 13q10 12 14 23t12 23q10 24 32 52t-14 46q-16 30 -41 13t-27 -41q-20 -20 -28 -45t-28 -41q4 -14 -12 -22t-16 -18q-14 -8 -28 -4t-28 0l-35 8t-33 6q-52 24 -59 -32t53 -52l121 -19t119 -1q14 0 28 4t28 4q40 4 81 -6t81 -8q28 6 18 -13
t-14 -29l-9 -23t-5 -25q-24 16 -50 17t-50 1q-26 0 -44 -22t-42 -28q-22 -34 -38 -69t-8 -69q2 -20 15 -44t39 -32q42 -14 85 -5t85 29q26 30 49 61t17 63q-4 10 -4 22t-4 20q12 2 22 8t16 16q2 12 8 22t4 22q16 28 31 59t19 63q18 30 30 60t26 58q0 28 18 53t24 49
q4 18 11 36t9 34q10 22 15 40t7 38q-2 18 -2 36t-12 34q-4 22 -24 28t-36 2q-8 -2 -18 -9t2 -17q-4 -14 -5 -28t-1 -30q4 -44 -18 -89t-34 -91q-26 -40 -38 -86t-56 -78q-26 -2 -51 1t-51 5q4 4 5 8t3 6l55 86t49 82q20 12 21 36t25 36q4 10 9 16t13 12q16 10 9 22t5 22
q-10 22 -29 49t-47 21q-24 -14 -49 -17t-47 5q-18 -4 -35 -3t-33 -3q-32 -4 -64 -9t-62 -9q-30 4 -58 -17t-56 -1q-24 10 -39 -19t13 -47q4 -14 17 -21t27 -3q30 16 63 19t63 5q12 4 22 3t22 -1q14 10 29 9t29 -1q10 8 18 7t16 1q16 -6 42 1t18 -23q-22 -56 -59 -109
t-71 -109q-2 -10 -10 -22t-12 -26zM466 116q14 6 41 -5t-1 -37q-14 -28 -45 -52t-57 14q-12 22 13 50t49 30z" />
    <glyph glyph-name="uniAD4A" unicode="&#xad4a;" 
 />
    <glyph glyph-name="uniAD4B" unicode="&#xad4b;" 
 />
    <glyph glyph-name="uniAD4C" unicode="&#xad4c;" 
 />
    <glyph glyph-name="uniAD4D" unicode="&#xad4d;" 
 />
    <glyph glyph-name="uniAD4E" unicode="&#xad4e;" 
 />
    <glyph glyph-name="uniAD4F" unicode="&#xad4f;" 
 />
    <glyph glyph-name="uniAD50" unicode="&#xad50;" horiz-adv-x="862" 
d="M554 652l-7 -2l-7 -2q-50 2 -102 -6t-104 -6q-16 -4 -33 -5t-33 -3q-14 -10 -35 1t-31 -11q-16 -8 -10 -24t2 -30q18 -6 22 -26t24 -8q38 8 74 18t74 10q64 0 131 4t131 -2q28 -2 14 -18t-18 -28q-14 -24 -26 -49t-34 -47q-10 -20 -24 -36t-22 -38q-18 -6 -20 -26t6 -36
q-10 -34 28 -42t52 32l21 28t13 22q18 24 26 41t22 37q-4 16 11 21t9 19q20 26 31 46t31 40q6 16 21 25t9 25q22 20 -2 42t-38 32q-50 4 -102 3t-104 -1zM312 488q-8 0 -19 -8l-21 -16q-4 -44 -9 -86t-3 -86q-2 -14 2 -28t-10 -24q-14 4 -29 2l-29 -4t-28 -2t-28 2
q-14 -2 -29 -5t-29 1q-20 16 -30 -3t-10 -35q8 -14 13 -35t29 -19q18 -8 35 -1t35 5q42 -2 85 1t85 -1q46 -6 91 -4t93 0q16 4 33 -6t33 -14q26 -10 52 -16t52 -14q8 -2 16 -1t16 -3q30 8 33 31t-7 45q-20 16 -43 24t-45 10l-52 8t-50 4l-46 8t-46 16q-6 30 17 61t31 63
q16 28 -9 67t-63 9q-4 -16 -9 -33t-11 -33q-14 -10 -15 -26t-11 -30q-12 -14 -15 -34t-17 -26q-2 38 2 79t0 79q-2 16 2 34t-8 36q-8 10 -16 7t-18 1z" />
    <glyph glyph-name="uniAD51" unicode="&#xad51;" 
 />
    <glyph glyph-name="uniAD52" unicode="&#xad52;" 
 />
    <glyph glyph-name="uniAD53" unicode="&#xad53;" 
 />
    <glyph glyph-name="uniAD54" unicode="&#xad54;" horiz-adv-x="976" 
d="M792 762l-8 -1l-8 -1q-20 -4 -40 -9t-40 -3q-12 12 -23 3t-21 3q-8 -8 -17 -7t-19 -7q-28 -2 -56 3t-56 1q-38 -4 -75 -5t-75 -3q-28 -8 -56 -3t-56 -3q-20 10 -35 -1t-31 -15q-24 -8 -31 -40t31 -42q12 -8 23 -7t21 3q36 2 70 8t68 8q82 10 161 6t159 -2q16 -2 39 3
t29 -19q-16 -12 -9 -23t-15 -21q-8 -22 -11 -41t-17 -41q-6 -20 -12 -44t-16 -48q-2 -20 -14 -43t-4 -45q-4 -18 -22 -16t-28 -2q-22 -2 -45 -3t-45 -7q-18 2 -10 13t12 19q20 8 19 23t7 29q-4 14 4 28t4 28q20 34 3 75t-49 63q-20 8 -26 -10t-12 -30q-2 -26 0 -51t-16 -53
q-8 -20 -11 -38t-19 -40q-22 -14 -9 -30t-3 -26q-72 -2 -143 -5t-141 -1q-18 -8 -42 3t-26 -23q-10 -26 16 -56t54 -22q40 10 80 8t80 0q22 4 45 4t47 -2q-8 -24 8 -47t14 -45q-6 -14 -7 -28t-5 -30q8 -14 11 -29t13 -25q16 2 28 -14t26 -2q22 10 47 10t45 -8q52 -2 104 -5
t102 -1q22 4 47 6t35 26q10 16 5 34t-15 32q-30 6 -62 -2t-64 -6q-28 -2 -56 1t-58 -1q-26 2 -50 0t-52 6q6 16 -5 34t3 34q2 16 -15 28t-11 26q14 -2 29 3t29 1q28 16 56 10t60 8h39t39 2q14 -10 29 2t29 4q40 20 80 12t78 24q4 12 5 23t3 23q-14 16 -24 26t-26 12
q-26 -10 -52 -8t-50 -10q-8 0 -18 1t-12 7q10 10 7 22t-1 22q6 18 16 42t14 46q12 12 6 23t14 23q2 10 4 25t10 29q20 18 16 39t8 39q14 16 13 38t-11 40q-10 16 -26 25t-32 11zM330 560l-9 -2l-9 -2q-16 -2 -11 -19t-3 -29q10 -24 2 -50t-6 -52q-16 -24 -4 -37t32 -33
q14 -10 29 -6t27 18q2 20 7 39t1 39q2 16 -5 30t-3 28q-8 18 -17 46t-31 30z" />
    <glyph glyph-name="uniAD55" unicode="&#xad55;" 
 />
    <glyph glyph-name="uniAD56" unicode="&#xad56;" 
 />
    <glyph glyph-name="uniAD57" unicode="&#xad57;" 
 />
    </font>
</defs>
</svg>
